<svg xmlns="http://www.w3.org/2000/svg" viewBox="0 -0.5 512 512" shape-rendering="crispEdges">
<metadata>Made with Pix2d https://pix2d.com</metadata>
<path stroke="#363760" d="M0 0h34M35 0h9M45 0h192M238 0h274M0 1h24M25 1h120M146 1h132M279 1h233M0 2h7M8 2h98M107 2h141M249 2h263M0 3h71M72 3h57M131 3h71M203 3h106M310 3h127M438 3h74M0 4h3M4 4h305M310 4h27M338 4h20M359 4h45M405 4h62M468 4h44M0 5h297M298 5h6M305 5h119M425 5h21M447 5h65M0 6h16M18 6h15M34 6h31M66 6h33M100 6h57M158 6h18M177 6h304M482 6h30M0 7h82M83 7h287M372 7h23M396 7h19M416 7h59M476 7h31M508 7h4M0 8h23M24 8h347M372 8h37M410 8h14M425 8h56M482 8h30M0 9h317M318 9h167M486 9h26M0 10h119M120 10h17M138 10h331M470 10h42M0 11h44M45 11h386M432 11h80M0 12h7M8 12h176M185 12h94M281 12h63M345 12h99M446 12h66M1 13h59M61 13h166M228 13h125M354 13h158M0 14h120M121 14h283M405 14h37M443 14h38M482 14h18M501 14h11M0 15h16M17 15h11M29 15h77M107 15h150M258 15h43M302 15h103M406 15h51M459 15h41M501 15h11M0 16h93M94 16h237M332 16h72M405 16h52M458 16h11M470 16h42M0 17h25M26 17h431M458 17h51M510 17h2M0 18h87M88 18h75M164 18h128M293 18h56M350 18h24M375 18h119M495 18h17M0 19h39M40 19h223M264 19h117M382 19h108M491 19h21M0 20h395M396 20h116M0 21h69M70 21h319M390 21h38M429 21h48M479 21h33M0 22h11M12 22h87M100 22h256M357 22h62M420 22h92M0 23h237M238 23h73M312 23h10M323 23h42M366 23h143M510 23h2M0 24h188M189 24h116M306 24h111M418 24h29M448 24h8M457 24h5M463 24h40M504 24h8M0 25h4M5 25h274M280 25h58M339 25h73M414 25h68M483 25h29M0 26h319M320 26h48M370 26h142M0 27h43M44 27h70M115 27h233M349 27h35M385 27h70M456 27h56M0 28h29M30 28h9M40 28h472M0 29h404M405 29h30M436 29h76M0 30h6M7 30h8M16 30h45M62 30h30M93 30h15M109 30h101M211 30h59M271 30h20M292 30h180M473 30h21M495 30h17M0 31h92M93 31h53M147 31h347M495 31h17M0 32h164M165 32h347M0 33h80M81 33h218M300 33h82M383 33h6M390 33h25M416 33h66M483 33h26M510 33h2M0 34h245M246 34h68M315 34h15M331 34h30M362 34h149M0 35h183M184 35h158M343 35h8M352 35h90M443 35h69M0 36h13M14 36h12M27 36h214M242 36h270M0 37h76M77 37h230M308 37h204M0 38h95M96 38h334M431 38h41M473 38h32M506 38h6M0 39h287M288 39h169M458 39h54M0 40h275M276 40h48M325 40h33M359 40h134M494 40h18M0 41h5M6 41h37M44 41h255M300 41h101M402 41h110M0 42h13M14 42h406M421 42h14M436 42h36M473 42h8M482 42h30M0 43h465M467 43h45M0 44h89M90 44h137M228 44h179M408 44h104M0 45h27M28 45h35M64 45h256M321 45h86M409 45h103M0 46h141M142 46h93M236 46h88M325 46h168M494 46h18M0 47h115M117 47h45M163 47h46M210 47h45M256 47h256M0 48h80M81 48h236M318 48h25M344 48h49M394 48h118M0 49h133M134 49h24M159 49h103M263 49h99M364 49h89M455 49h21M477 49h35M0 50h6M7 50h183M191 50h93M285 50h112M398 50h19M418 50h58M477 50h20M498 50h14M0 51h272M273 51h13M287 51h45M333 51h49M383 51h80M464 51h33M499 51h13M0 52h36M37 52h9M47 52h262M310 52h153M464 52h48M0 53h11M12 53h410M423 53h34M458 53h54M0 54h118M119 54h75M195 54h24M220 54h88M309 54h8M318 54h194M0 55h303M304 55h132M437 55h36M474 55h11M486 55h26M0 56h5M6 56h397M404 56h61M467 56h45M0 57h506M507 57h5M0 58h86M87 58h66M154 58h84M240 58h193M434 58h12M447 58h65M0 59h257M258 59h122M381 59h29M411 59h101M0 60h75M76 60h43M120 60h110M232 60h79M312 60h5M318 60h5M324 60h77M402 60h13M416 60h96M0 61h23M24 61h71M96 61h23M120 61h61M182 61h59M242 61h44M287 61h16M304 61h39M344 61h46M391 61h34M426 61h86M0 62h4M5 62h5M11 62h34M46 62h118M165 62h42M208 62h35M244 62h11M256 62h87M344 62h168M0 63h150M151 63h77M229 63h43M273 63h179M453 63h48M502 63h10M0 64h231M232 64h53M287 64h191M479 64h22M502 64h10M0 65h190M191 65h94M286 65h131M418 65h94M0 66h132M133 66h271M405 66h34M440 66h18M459 66h53M0 67h296M297 67h129M427 67h85M0 68h48M49 68h325M375 68h34M410 68h34M445 68h17M463 68h21M485 68h27M0 69h3M4 69h33M38 69h100M139 69h25M165 69h59M225 69h172M398 69h114M0 70h242M243 70h12M256 70h107M364 70h148M0 71h150M151 71h341M493 71h19M0 72h272M274 72h19M294 72h2M297 72h29M327 72h61M389 72h123M0 73h110M111 73h98M210 73h241M453 73h19M473 73h2M476 73h29M506 73h6M0 74h313M314 74h198M0 75h14M15 75h12M28 75h156M185 75h236M422 75h12M435 75h77M0 76h218M219 76h124M344 76h59M404 76h108M0 77h41M42 77h25M68 77h28M97 77h54M152 77h43M196 77h34M231 77h34M266 77h17M284 77h21M306 77h206M0 78h5M6 78h113M120 78h31M152 78h95M248 78h86M335 78h140M476 78h36M0 79h86M88 79h137M226 79h34M261 79h18M280 79h232M0 80h238M239 80h130M370 80h94M465 80h47M0 81h299M300 81h22M323 81h87M411 81h53M466 81h46M0 82h273M274 82h48M323 82h84M408 82h43M452 82h60M0 83h164M165 83h178M344 83h42M387 83h35M423 83h11M435 83h77M0 84h164M165 84h46M212 84h34M247 84h113M361 84h59M421 84h44M466 84h16M483 84h29M0 85h126M127 85h10M138 85h84M223 85h13M237 85h172M411 85h79M491 85h5M497 85h5M503 85h9M0 86h7M8 86h6M15 86h18M34 86h167M202 86h29M232 86h204M437 86h75M0 87h48M49 87h205M255 87h12M268 87h149M419 87h93M0 88h40M41 88h55M97 88h6M105 88h222M328 88h184M0 89h224M225 89h61M288 89h224M0 90h257M258 90h36M295 90h11M307 90h175M483 90h29M0 91h373M374 91h24M399 91h88M488 91h8M497 91h15M0 92h4M5 92h8M14 92h134M149 92h94M244 92h34M279 92h233M0 93h284M285 93h203M489 93h23M0 94h155M156 94h47M204 94h80M285 94h33M320 94h131M452 94h13M466 94h45M0 95h67M68 95h49M118 95h100M219 95h19M239 95h58M298 95h20M319 95h50M370 95h93M464 95h48M0 96h18M19 96h164M185 96h89M276 96h21M298 96h39M338 96h103M442 96h70M0 97h115M116 97h23M141 97h23M165 97h49M215 97h281M497 97h15M0 98h77M78 98h55M134 98h207M342 98h27M370 98h18M389 98h45M435 98h77M0 99h6M7 99h28M36 99h31M68 99h61M130 99h184M315 99h20M336 99h78M415 99h88M504 99h8M0 100h26M27 100h20M48 100h94M144 100h84M230 100h269M500 100h12M0 101h45M46 101h51M99 101h129M229 101h177M407 101h105M0 102h151M152 102h134M288 102h224M0 103h143M144 103h97M242 103h14M257 103h36M294 103h8M303 103h209M0 104h12M13 104h209M223 104h255M479 104h33M0 105h179M180 105h134M315 105h139M455 105h48M504 105h8M0 106h29M30 106h32M63 106h9M73 106h63M137 106h141M279 106h187M467 106h45M0 107h155M156 107h95M252 107h41M294 107h32M327 107h185M0 108h130M132 108h354M487 108h25M0 109h108M109 109h311M421 109h91M0 110h94M95 110h68M164 110h8M173 110h90M264 110h98M363 110h17M381 110h131M0 111h141M142 111h40M183 111h149M333 111h91M425 111h68M494 111h15M510 111h2M0 112h4M5 112h198M204 112h6M211 112h25M237 112h66M304 112h26M331 112h46M378 112h100M479 112h33M0 113h90M91 113h252M344 113h20M365 113h147M0 114h17M18 114h297M316 114h196M0 115h293M294 115h21M316 115h73M390 115h59M450 115h20M471 115h41M0 116h225M226 116h30M257 116h255M0 117h12M13 117h218M232 117h280M0 118h33M34 118h4M39 118h93M133 118h8M142 118h27M170 118h35M206 118h70M277 118h235M0 119h67M68 119h45M114 119h75M191 119h307M499 119h13M0 120h50M51 120h108M160 120h73M235 120h68M304 120h154M459 120h53M0 121h367M368 121h18M387 121h97M485 121h27M0 122h6M7 122h20M28 122h49M78 122h1M80 122h106M187 122h129M317 122h13M331 122h85M417 122h73M491 122h10M502 122h10M0 123h153M154 123h23M178 123h98M277 123h235M0 124h16M17 124h136M154 124h56M211 124h91M303 124h94M398 124h114M0 125h17M18 125h88M107 125h109M217 125h17M235 125h73M309 125h10M320 125h192M0 126h45M46 126h57M104 126h98M203 126h166M370 126h72M443 126h69M0 127h9M10 127h135M146 127h24M171 127h24M196 127h146M343 127h26M370 127h101M472 127h40M0 128h9M10 128h75M86 128h67M154 128h90M245 128h85M331 128h181M0 129h33M34 129h191M226 129h34M261 129h249M511 129h1M0 130h61M62 130h164M227 130h62M290 130h146M437 130h43M481 130h31M0 131h47M48 131h177M226 131h286M0 132h78M79 132h31M111 132h7M119 132h55M175 132h231M407 132h4M412 132h100M0 133h57M58 133h107M166 133h88M255 133h43M299 133h64M364 133h35M400 133h11M412 133h46M460 133h52M0 134h33M34 134h42M77 134h49M127 134h7M135 134h264M400 134h112M0 135h3M4 135h283M288 135h224M0 136h13M14 136h232M247 136h29M278 136h218M497 136h15M0 137h19M20 137h10M31 137h9M41 137h55M97 137h95M193 137h319M0 138h19M20 138h45M66 138h25M92 138h19M112 138h79M193 138h23M217 138h111M329 138h183M0 139h51M52 139h50M103 139h4M108 139h206M315 139h21M337 139h18M356 139h156M0 140h54M55 140h89M145 140h9M155 140h321M477 140h6M484 140h28M0 141h158M159 141h20M180 141h45M226 141h44M271 141h217M489 141h23M0 142h5M6 142h126M133 142h248M382 142h106M489 142h23M0 143h64M65 143h58M124 143h170M295 143h6M302 143h125M428 143h84M0 144h306M307 144h150M458 144h54M0 145h36M37 145h145M183 145h123M307 145h109M417 145h95M0 146h95M96 146h22M120 146h22M143 146h102M246 146h117M364 146h135M500 146h12M0 147h29M30 147h245M276 147h236M0 148h73M74 148h160M235 148h237M473 148h39M0 149h102M103 149h104M208 149h109M318 149h170M489 149h23M0 150h19M20 150h25M46 150h15M62 150h15M78 150h217M296 150h21M318 150h7M326 150h162M489 150h23M0 151h13M14 151h289M304 151h164M469 151h43M0 152h6M7 152h11M19 152h49M69 152h41M111 152h3M115 152h1M117 152h8M126 152h128M255 152h203M459 152h53M0 153h6M7 153h505M0 154h414M416 154h96M0 155h35M36 155h18M55 155h56M112 155h35M148 155h118M267 155h44M312 155h102M415 155h97M0 156h35M37 156h27M65 156h230M296 156h216M0 157h318M319 157h193M0 158h5M6 158h394M401 158h84M486 158h26M0 159h54M55 159h170M226 159h286M0 160h43M44 160h304M349 160h163M0 161h43M44 161h31M76 161h200M277 161h55M333 161h3M337 161h31M369 161h143M0 162h11M12 162h14M27 162h170M198 162h164M363 162h21M385 162h127M0 163h88M89 163h9M99 163h23M123 163h120M244 163h42M287 163h46M334 163h137M472 163h40M0 164h72M73 164h98M172 164h340M0 165h320M321 165h8M330 165h18M349 165h163M0 166h60M61 166h36M98 166h5M104 166h261M366 166h40M408 166h89M498 166h14M0 167h50M51 167h204M256 167h57M314 167h58M373 167h8M382 167h24M407 167h105M0 168h38M39 168h40M80 168h12M93 168h92M186 168h82M269 168h73M344 168h62M407 168h3M411 168h101M0 169h56M57 169h9M67 169h289M357 169h72M430 169h82M0 170h86M87 170h192M280 170h44M325 170h20M346 170h106M453 170h12M466 170h46M0 171h3M4 171h57M62 171h450M0 172h61M62 172h40M103 172h33M137 172h21M159 172h91M251 172h41M293 172h72M366 172h22M389 172h123M0 173h8M9 173h39M49 173h25M75 173h13M90 173h2M93 173h3M97 173h138M236 173h121M358 173h1M360 173h78M439 173h73M0 174h114M115 174h1M117 174h78M196 174h121M318 174h13M333 174h2M336 174h3M340 174h138M479 174h33M0 175h29M30 175h92M123 175h22M146 175h199M346 175h33M380 175h21M402 175h110M0 176h14M15 176h14M30 176h482M0 177h23M24 177h57M82 177h20M103 177h106M210 177h12M223 177h106M330 177h182M0 178h113M114 178h72M187 178h122M310 178h202M0 179h32M33 179h21M55 179h7M63 179h36M101 179h66M168 179h61M230 179h92M323 179h12M336 179h92M429 179h82M0 180h70M71 180h58M130 180h8M139 180h90M230 180h268M499 180h13M0 181h122M123 181h131M255 181h85M341 181h5M347 181h165M0 182h77M78 182h8M87 182h18M106 182h182M289 182h223M0 183h8M9 183h9M19 183h4M24 183h17M43 183h4M48 183h267M316 183h98M415 183h97M0 184h90M91 184h137M229 184h102M332 184h9M342 184h23M366 184h120M487 184h25M0 185h119M120 185h21M142 185h298M441 185h71M0 186h34M35 186h54M90 186h3M94 186h31M126 186h192M319 186h193M0 187h19M20 187h14M35 187h70M106 187h406M0 188h75M76 188h221M298 188h170M469 188h43M0 189h86M87 189h23M111 189h24M136 189h16M153 189h185M339 189h173M0 190h93M94 190h109M204 190h134M339 190h173M0 191h63M64 191h2M67 191h5M73 191h24M98 191h137M236 191h118M355 191h157M0 192h12M13 192h37M51 192h26M78 192h11M90 192h31M122 192h52M175 192h178M355 192h35M391 192h118M510 192h2M0 193h6M7 193h27M35 193h47M83 193h16M100 193h10M111 193h26M138 193h11M150 193h55M206 193h69M276 193h236M0 194h192M193 194h319M0 195h73M74 195h8M83 195h12M96 195h32M129 195h40M170 195h141M312 195h185M498 195h14M0 196h116M117 196h395M0 197h28M29 197h24M54 197h62M117 197h4M122 197h198M321 197h191M0 198h101M102 198h41M144 198h306M451 198h61M0 199h88M89 199h5M95 199h221M317 199h160M478 199h34M0 200h41M42 200h23M66 200h31M98 200h156M255 200h257M0 201h81M82 201h8M91 201h105M197 201h68M266 201h90M357 201h28M386 201h102M489 201h23M0 202h63M64 202h12M77 202h348M426 202h86M0 203h27M28 203h44M73 203h12M86 203h2M89 203h423M0 204h17M18 204h161M180 204h63M244 204h86M331 204h181M0 205h157M158 205h172M331 205h44M376 205h136M0 206h81M82 206h75M158 206h134M293 206h54M348 206h53M402 206h20M423 206h45M469 206h43M0 207h72M73 207h44M118 207h22M141 207h68M210 207h69M280 207h67M348 207h39M388 207h9M398 207h114M0 208h72M73 208h5M79 208h290M370 208h142M0 209h30M31 209h15M47 209h21M69 209h239M309 209h125M436 209h23M460 209h52M0 210h19M20 210h43M64 210h16M81 210h23M105 210h25M131 210h88M220 210h123M344 210h91M436 210h76M0 211h51M53 211h41M96 211h76M173 211h339M0 212h6M7 212h6M15 212h57M73 212h439M0 213h319M320 213h49M370 213h7M378 213h134M0 214h139M140 214h268M409 214h88M498 214h14M0 215h82M84 215h237M322 215h95M418 215h94M0 216h56M57 216h25M83 216h61M145 216h111M257 216h211M469 216h43M0 217h21M24 217h200M225 217h131M357 217h112M470 217h42M0 218h42M43 218h23M67 218h8M76 218h36M113 218h4M118 218h78M197 218h109M308 218h160M469 218h34M504 218h8M0 219h42M43 219h23M67 219h1M69 219h3M73 219h52M126 219h17M144 219h38M183 219h213M397 219h115M0 220h50M51 220h17M69 220h35M105 220h68M174 220h128M303 220h85M389 220h24M414 220h24M439 220h73M0 221h33M34 221h311M346 221h99M446 221h66M0 222h93M94 222h98M193 222h266M460 222h17M478 222h34M0 223h9M10 223h182M193 223h10M204 223h35M240 223h35M276 223h26M303 223h31M335 223h61M397 223h56M454 223h58M0 224h161M162 224h26M189 224h3M194 224h108M303 224h93M397 224h23M421 224h91M0 225h116M117 225h76M194 225h37M232 225h88M321 225h1M323 225h106M430 225h82M0 226h106M107 226h42M150 226h43M194 226h95M290 226h222M0 227h63M64 227h46M111 227h36M148 227h45M194 227h208M403 227h73M478 227h34M0 228h49M50 228h40M91 228h56M148 228h18M167 228h143M311 228h45M357 228h75M434 228h78M0 229h133M134 229h241M376 229h8M385 229h27M413 229h35M449 229h63M0 230h16M18 230h7M26 230h48M75 230h5M81 230h33M115 230h397M0 231h45M46 231h73M120 231h93M214 231h254M469 231h30M500 231h12M0 232h4M5 232h52M58 232h10M69 232h443M0 233h31M33 233h65M99 233h65M165 233h347M0 234h109M110 234h240M351 234h161M0 235h38M39 235h2M43 235h60M104 235h5M110 235h194M305 235h141M447 235h6M454 235h25M480 235h32M0 236h37M38 236h25M64 236h39M104 236h50M156 236h21M178 236h16M195 236h189M385 236h40M426 236h86M0 237h86M87 237h52M141 237h196M338 237h68M407 237h8M416 237h90M507 237h5M0 238h17M18 238h108M128 238h15M144 238h97M242 238h45M288 238h10M299 238h30M330 238h182M0 239h69M70 239h4M75 239h95M171 239h11M183 239h190M375 239h137M0 240h398M399 240h95M495 240h17M0 241h61M62 241h194M257 241h2M260 241h55M316 241h63M380 241h132M0 242h118M119 242h115M235 242h121M357 242h65M423 242h89M0 243h24M25 243h4M30 243h69M100 243h164M265 243h29M295 243h44M340 243h125M466 243h46M0 244h40M41 244h345M387 244h97M485 244h14M500 244h12M0 245h394M395 245h117M0 246h49M50 246h12M63 246h241M305 246h166M472 246h40M0 247h7M8 247h73M82 247h64M147 247h107M255 247h130M387 247h84M473 247h39M0 248h66M67 248h1M69 248h63M133 248h121M255 248h45M301 248h9M311 248h61M373 248h139M0 249h34M35 249h80M116 249h40M157 249h63M221 249h99M321 249h55M377 249h135M0 250h48M49 250h27M77 250h119M197 250h74M272 250h86M359 250h23M384 250h23M408 250h49M458 250h54M0 251h48M49 251h81M131 251h66M198 251h57M256 251h21M278 251h148M428 251h84M0 252h21M22 252h144M167 252h143M311 252h150M462 252h19M482 252h30M0 253h280M281 253h12M294 253h104M399 253h47M447 253h65M0 254h98M99 254h121M221 254h43M265 254h28M294 254h218M0 255h25M26 255h7M34 255h59M94 255h148M243 255h59M303 255h60M364 255h27M392 255h94M487 255h25M0 256h3M4 256h7M12 256h30M43 256h28M72 256h105M178 256h334M0 257h42M43 257h12M56 257h83M140 257h214M355 257h145M501 257h11M0 258h149M150 258h10M161 258h306M468 258h44M0 259h58M59 259h21M81 259h206M288 259h51M340 259h172M0 260h64M65 260h55M121 260h138M260 260h27M288 260h209M498 260h12M511 260h1M0 261h105M106 261h49M156 261h145M302 261h142M445 261h29M475 261h37M0 262h35M36 262h45M82 262h185M268 262h1M270 262h110M381 262h84M466 262h13M480 262h32M0 263h81M82 263h65M148 263h106M255 263h152M408 263h46M455 263h34M490 263h22M0 264h26M27 264h4M32 264h108M141 264h132M274 264h12M287 264h120M408 264h104M0 265h512M0 266h5M6 266h289M296 266h63M360 266h5M367 266h145M0 267h41M42 267h29M72 267h56M129 267h6M136 267h39M176 267h130M307 267h174M482 267h30M0 268h13M14 268h206M221 268h108M331 268h137M469 268h34M504 268h8M0 269h26M27 269h49M77 269h2M80 269h149M230 269h44M275 269h119M395 269h95M491 269h21M0 270h310M311 270h83M395 270h43M439 270h34M474 270h34M509 270h3M0 271h186M187 271h74M262 271h4M267 271h110M378 271h83M462 271h50M0 272h37M38 272h10M49 272h45M96 272h45M142 272h10M153 272h274M428 272h84M0 273h9M10 273h149M160 273h36M197 273h163M363 273h149M0 274h146M147 274h57M205 274h27M233 274h39M273 274h25M299 274h54M354 274h98M453 274h59M0 275h21M22 275h9M32 275h81M114 275h40M155 275h77M233 275h60M295 275h2M298 275h214M0 276h393M394 276h118M0 277h237M238 277h65M305 277h180M486 277h12M499 277h13M0 278h222M223 278h44M268 278h10M279 278h102M382 278h25M408 278h59M468 278h44M0 279h109M110 279h16M127 279h163M291 279h221M0 280h141M143 280h112M256 280h5M262 280h250M0 281h22M23 281h352M376 281h136M0 282h245M246 282h40M287 282h146M434 282h78M0 283h12M13 283h14M28 283h244M273 283h201M475 283h37M0 284h3M4 284h42M47 284h115M164 284h154M319 284h74M394 284h77M472 284h40M0 285h83M84 285h234M319 285h88M408 285h42M451 285h35M487 285h11M499 285h13M0 286h78M79 286h33M113 286h205M319 286h19M339 286h23M363 286h61M425 286h59M485 286h27M0 287h22M23 287h41M65 287h8M75 287h27M103 287h27M131 287h1M133 287h21M155 287h9M165 287h53M219 287h99M320 287h42M363 287h110M475 287h37M0 288h12M14 288h78M93 288h52M146 288h36M183 288h27M211 288h40M252 288h67M320 288h28M349 288h151M501 288h11M0 289h47M48 289h6M55 289h247M303 289h16M320 289h9M330 289h66M397 289h84M483 289h29M0 290h173M174 290h93M268 290h17M286 290h226M0 291h191M192 291h42M236 291h27M264 291h3M268 291h1M270 291h23M294 291h218M0 292h228M229 292h31M261 292h8M270 292h23M294 292h218M0 293h1M2 293h7M10 293h17M28 293h11M40 293h137M178 293h23M202 293h235M438 293h24M463 293h49M0 294h145M146 294h6M153 294h56M211 294h6M218 294h3M222 294h3M226 294h5M232 294h47M280 294h232M0 295h61M62 295h148M211 295h40M253 295h259M0 296h33M34 296h5M40 296h92M133 296h62M196 296h3M200 296h31M232 296h280M0 297h13M14 297h167M182 297h44M227 297h8M236 297h260M497 297h15M0 298h263M264 298h57M323 298h61M385 298h127M0 299h6M7 299h155M164 299h58M223 299h60M285 299h183M469 299h31M501 299h11M0 300h6M7 300h13M21 300h198M220 300h35M256 300h16M273 300h43M317 300h48M366 300h64M431 300h52M484 300h28M0 301h149M151 301h116M268 301h21M290 301h15M306 301h147M454 301h29M484 301h28M0 302h14M15 302h68M84 302h60M145 302h5M151 302h37M189 302h4M194 302h7M202 302h11M214 302h26M242 302h15M258 302h5M264 302h74M340 302h9M350 302h162M0 303h29M30 303h10M41 303h130M172 303h69M242 303h21M264 303h147M412 303h100M0 304h113M114 304h26M141 304h37M179 304h62M242 304h12M255 304h185M441 304h33M475 304h19M495 304h17M0 305h24M25 305h8M34 305h45M80 305h79M160 305h28M189 305h52M242 305h270M0 306h318M319 306h193M0 307h249M250 307h13M264 307h44M309 307h196M506 307h6M0 308h5M6 308h8M15 308h244M260 308h252M0 309h44M46 309h3M50 309h4M55 309h199M255 309h193M449 309h63M0 310h39M40 310h59M101 310h169M271 310h23M295 310h58M354 310h158M0 311h11M12 311h23M36 311h476M0 312h59M60 312h91M153 312h85M239 312h1M241 312h4M246 312h116M363 312h4M368 312h112M481 312h31M0 313h18M19 313h172M193 313h89M283 313h24M308 313h157M466 313h46M0 314h30M31 314h101M133 314h36M170 314h288M459 314h18M478 314h34M0 315h219M220 315h31M252 315h10M263 315h76M340 315h45M386 315h46M433 315h79M0 316h9M10 316h82M93 316h126M220 316h14M235 316h249M485 316h27M0 317h207M208 317h93M302 317h210M0 318h4M5 318h17M23 318h33M57 318h117M175 318h83M259 318h26M286 318h37M324 318h80M405 318h107M0 319h115M116 319h147M264 319h5M270 319h2M273 319h221M495 319h2M498 319h14M0 320h36M37 320h210M248 320h264M0 321h33M34 321h478M0 322h43M44 322h216M261 322h139M401 322h111M0 323h8M9 323h104M114 323h15M130 323h39M170 323h131M302 323h14M317 323h130M448 323h64M0 324h64M65 324h32M98 324h154M253 324h48M302 324h128M431 324h25M457 324h55M0 325h512M0 326h20M21 326h5M28 326h5M34 326h5M40 326h8M49 326h463M0 327h20M21 327h120M142 327h109M252 327h36M289 327h5M295 327h22M318 327h9M328 327h9M338 327h174M0 328h258M259 328h210M470 328h18M489 328h23M0 329h75M76 329h87M164 329h37M202 329h211M414 329h98M0 330h88M89 330h95M185 330h40M226 330h13M240 330h25M266 330h85M352 330h35M388 330h104M493 330h19M0 331h140M141 331h43M185 331h25M211 331h28M240 331h33M274 331h7M282 331h21M304 331h208M0 332h6M7 332h505M0 333h5M6 333h36M43 333h9M53 333h98M152 333h62M215 333h39M255 333h57M313 333h91M405 333h107M0 334h69M70 334h236M307 334h14M322 334h125M448 334h64M0 335h30M31 335h38M70 335h101M172 335h134M307 335h205M0 336h20M21 336h199M221 336h210M432 336h43M476 336h36M0 337h48M49 337h212M262 337h25M288 337h39M328 337h42M371 337h85M457 337h55M0 338h101M102 338h103M206 338h68M275 338h163M439 338h31M471 338h41M0 339h111M112 339h85M198 339h76M275 339h143M419 339h19M440 339h72M0 340h9M10 340h157M169 340h81M251 340h258M510 340h2M0 341h10M11 341h30M42 341h15M58 341h7M66 341h203M270 341h9M280 341h232M0 342h41M42 342h38M81 342h175M257 342h40M298 342h214M0 343h105M106 343h39M146 343h264M411 343h72M484 343h28M0 344h105M106 344h128M235 344h40M276 344h185M462 344h50M0 345h104M106 345h293M400 345h43M444 345h68M0 346h92M93 346h35M129 346h54M184 346h79M264 346h83M348 346h95M444 346h68M0 347h41M42 347h112M155 347h179M335 347h161M498 347h14M0 348h41M42 348h187M230 348h79M310 348h14M325 348h187M0 349h78M79 349h114M194 349h21M216 349h44M261 349h31M293 349h219M0 350h7M8 350h41M50 350h64M115 350h93M209 350h83M293 350h219M0 351h27M28 351h30M59 351h222M282 351h224M507 351h2M510 351h2M0 352h53M54 352h417M472 352h40M0 353h17M18 353h57M76 353h168M245 353h127M373 353h98M472 353h4M477 353h35M0 354h61M62 354h79M142 354h129M272 354h27M301 354h211M0 355h237M238 355h43M282 355h18M301 355h211M0 356h512M0 357h164M165 357h17M183 357h329M0 358h44M45 358h91M137 358h8M146 358h121M268 358h49M318 358h104M423 358h89M0 359h322M323 359h143M467 359h45M0 360h10M11 360h7M19 360h30M50 360h11M62 360h196M259 360h15M275 360h15M291 360h60M352 360h97M450 360h56M507 360h5M0 361h18M19 361h61M81 361h45M127 361h46M174 361h318M493 361h2M496 361h16M0 362h67M68 362h150M219 362h43M263 362h128M392 362h42M435 362h77M0 363h67M68 363h86M155 363h7M163 363h143M307 363h205M0 364h67M68 364h40M109 364h89M199 364h211M412 364h100M0 365h67M68 365h124M193 365h106M300 365h212M0 366h136M137 366h375M0 367h144M145 367h126M272 367h169M442 367h64M507 367h2M510 367h2M0 368h74M75 368h382M458 368h51M510 368h2M0 369h51M52 369h460M0 370h34M35 370h145M181 370h60M242 370h39M282 370h217M500 370h12M0 371h245M246 371h92M339 371h138M478 371h4M483 371h29M0 372h275M276 372h27M304 372h68M373 372h139M0 373h152M153 373h122M276 373h236M0 374h90M91 374h70M162 374h24M187 374h133M321 374h191M0 375h136M137 375h126M264 375h1M266 375h162M429 375h83M0 376h171M172 376h52M225 376h6M232 376h280M0 377h112M113 377h96M210 377h21M232 377h217M450 377h62M0 378h7M8 378h57M66 378h34M101 378h11M113 378h12M126 378h158M285 378h179M465 378h12M478 378h10M489 378h23M0 379h100M101 379h411M0 380h28M29 380h112M142 380h42M185 380h2M188 380h203M392 380h120M0 381h222M223 381h108M332 381h177M510 381h2M0 382h512M0 383h45M46 383h37M84 383h183M268 383h25M294 383h41M336 383h162M499 383h13M0 384h132M133 384h9M143 384h4M148 384h216M365 384h147M0 385h16M17 385h81M99 385h43M143 385h123M267 385h173M441 385h71M0 386h157M158 386h195M354 386h74M429 386h83M0 387h3M4 387h110M115 387h193M309 387h66M376 387h136M0 388h19M20 388h153M174 388h235M410 388h102M0 389h72M73 389h66M140 389h343M484 389h28M0 390h117M118 390h7M126 390h66M193 390h200M394 390h118M0 391h30M31 391h173M205 391h129M335 391h117M453 391h40M494 391h18M0 392h128M129 392h239M369 392h14M384 392h85M470 392h42M0 393h57M58 393h41M100 393h181M282 393h37M320 393h192M0 394h280M281 394h231M0 395h39M40 395h170M211 395h248M460 395h42M503 395h9M0 396h8M9 396h15M25 396h68M94 396h170M265 396h112M378 396h42M421 396h2M424 396h62M487 396h15M503 396h9M0 397h155M156 397h356M0 398h97M98 398h49M148 398h153M302 398h59M362 398h150M0 399h31M32 399h102M135 399h98M234 399h211M446 399h21M468 399h44M0 400h407M408 400h59M468 400h44M0 401h51M52 401h79M132 401h240M373 401h136M510 401h2M0 402h14M15 402h48M64 402h262M327 402h70M398 402h24M423 402h89M0 403h39M40 403h348M389 403h110M500 403h4M505 403h7M0 404h252M253 404h200M454 404h45M500 404h12M0 405h481M482 405h30M0 406h111M112 406h158M271 406h145M417 406h95M0 407h18M19 407h268M288 407h196M485 407h27M0 408h14M15 408h88M104 408h93M198 408h23M222 408h88M311 408h201M0 409h83M84 409h45M130 409h46M177 409h203M381 409h95M477 409h32M510 409h2M0 410h21M22 410h350M373 410h139M0 411h76M77 411h103M181 411h24M206 411h97M304 411h124M429 411h83M0 412h54M55 412h93M149 412h27M177 412h72M250 412h53M304 412h40M345 412h89M435 412h77M0 413h6M7 413h45M53 413h13M67 413h75M143 413h160M304 413h86M391 413h7M399 413h110M510 413h2M0 414h29M30 414h273M304 414h150M455 414h48M504 414h8M0 415h316M317 415h45M363 415h46M410 415h102M0 416h21M22 416h8M31 416h88M120 416h24M145 416h140M286 416h11M298 416h214M0 417h35M36 417h458M495 417h17M0 418h280M281 418h91M373 418h8M382 418h130M0 419h400M401 419h17M419 419h93M0 420h99M101 420h84M186 420h325M0 421h81M82 421h391M474 421h37M0 422h15M16 422h5M22 422h5M28 422h79M109 422h188M298 422h79M378 422h134M0 423h35M36 423h16M53 423h44M98 423h59M158 423h153M312 423h168M481 423h31M0 424h83M84 424h11M96 424h35M132 424h42M175 424h52M228 424h61M290 424h222M0 425h66M67 425h43M111 425h77M189 425h74M264 425h30M295 425h217M0 426h3M4 426h48M54 426h53M108 426h177M286 426h64M351 426h93M445 426h51M497 426h15M0 427h53M54 427h94M149 427h97M247 427h67M315 427h114M430 427h21M452 427h52M505 427h7M0 428h206M207 428h39M247 428h30M278 428h187M466 428h46M0 429h42M43 429h234M278 429h112M391 429h121M0 430h328M329 430h35M365 430h54M420 430h92M0 431h114M115 431h59M175 431h25M201 431h36M238 431h274M0 432h83M84 432h12M97 432h373M471 432h41M0 433h188M189 433h192M382 433h130M0 434h12M13 434h29M43 434h2M46 434h19M67 434h210M278 434h38M317 434h189M507 434h5M0 435h129M130 435h147M278 435h15M294 435h7M302 435h194M497 435h15M0 436h25M26 436h377M405 436h81M487 436h25M0 437h154M155 437h58M214 437h133M348 437h85M434 437h78M0 438h120M121 438h216M338 438h103M442 438h70M0 439h33M34 439h21M56 439h17M74 439h34M109 439h34M144 439h43M188 439h96M285 439h220M506 439h6M0 440h4M5 440h86M92 440h95M188 440h39M228 440h228M457 440h54M0 441h59M60 441h18M79 441h34M114 441h152M267 441h38M306 441h101M408 441h104M0 442h100M101 442h204M306 442h206M0 443h16M17 443h22M40 443h238M279 443h9M289 443h98M388 443h62M451 443h49M501 443h6M508 443h4M0 444h16M17 444h48M66 444h446M0 445h174M175 445h201M377 445h43M421 445h25M447 445h28M476 445h36M0 446h92M93 446h34M128 446h46M175 446h62M238 446h86M325 446h95M421 446h40M462 446h13M476 446h36M0 447h102M103 447h13M117 447h84M202 447h109M312 447h87M400 447h37M438 447h74M0 448h107M108 448h29M138 448h374M0 449h71M72 449h12M85 449h165M251 449h126M378 449h109M488 449h12M501 449h11M0 450h11M12 450h250M264 450h5M270 450h5M276 450h8M285 450h227M0 451h51M53 451h61M115 451h397M0 452h32M33 452h11M45 452h36M82 452h218M301 452h32M334 452h154M489 452h23M0 453h210M211 453h138M350 453h15M366 453h39M406 453h106M0 454h60M61 454h34M96 454h94M191 454h88M280 454h232M0 455h54M55 455h214M270 455h239M510 455h2M0 456h19M21 456h33M55 456h80M136 456h47M184 456h88M273 456h210M484 456h20M505 456h7M0 457h20M21 457h20M42 457h58M101 457h19M121 457h230M352 457h160M0 458h41M42 458h21M65 458h89M156 458h102M259 458h33M293 458h117M411 458h101M0 459h124M125 459h49M175 459h23M200 459h243M444 459h68M0 460h205M206 460h122M329 460h126M456 460h14M471 460h20M492 460h20M0 461h24M25 461h184M210 461h9M220 461h235M456 461h31M488 461h24M0 462h109M111 462h84M197 462h40M238 462h7M246 462h20M267 462h101M369 462h36M406 462h106M0 463h110M111 463h316M429 463h83M0 464h1M2 464h49M53 464h134M188 464h107M296 464h91M389 464h85M475 464h1M477 464h4M482 464h30M0 465h36M37 465h8M46 465h36M83 465h14M98 465h97M196 465h75M272 465h240M0 466h116M117 466h135M253 466h22M276 466h59M337 466h175M0 467h24M25 467h134M160 467h120M282 467h3M286 467h4M291 467h207M499 467h13M0 468h60M61 468h141M203 468h39M243 468h263M507 468h5M0 469h12M13 469h32M46 469h41M88 469h95M184 469h26M211 469h22M234 469h251M486 469h26M0 470h207M209 470h24M234 470h20M255 470h257M0 471h216M217 471h37M255 471h5M261 471h8M270 471h45M316 471h79M396 471h28M425 471h52M478 471h26M505 471h7M0 472h75M76 472h90M167 472h8M176 472h78M255 472h94M350 472h26M377 472h37M415 472h62M478 472h34M0 473h6M7 473h149M157 473h40M198 473h67M266 473h10M277 473h130M408 473h69M478 473h17M496 473h16M0 474h8M9 474h26M36 474h66M103 474h25M129 474h6M136 474h183M320 474h60M381 474h5M387 474h37M425 474h4M430 474h7M438 474h11M450 474h26M478 474h34M0 475h385M387 475h125M0 476h23M24 476h193M218 476h6M225 476h230M456 476h56M0 477h23M24 477h21M46 477h352M400 477h58M459 477h53M0 478h82M83 478h30M114 478h398M0 479h417M418 479h44M463 479h8M472 479h23M496 479h16M0 480h62M63 480h70M134 480h35M170 480h27M198 480h8M207 480h62M270 480h5M276 480h92M369 480h62M432 480h3M436 480h31M468 480h44M0 481h148M150 481h104M255 481h42M298 481h148M447 481h40M489 481h17M507 481h5M0 482h35M36 482h68M106 482h73M180 482h65M246 482h135M382 482h6M389 482h56M447 482h6M454 482h3M458 482h3M462 482h5M468 482h44M0 483h14M15 483h40M56 483h5M62 483h8M71 483h29M101 483h132M234 483h29M264 483h11M276 483h137M414 483h23M438 483h74M0 484h8M9 484h143M153 484h311M465 484h47M0 485h2M3 485h95M99 485h62M162 485h23M186 485h241M428 485h42M472 485h40M0 486h39M41 486h48M90 486h38M129 486h56M186 486h39M227 486h182M410 486h102M0 487h122M123 487h97M221 487h62M284 487h6M291 487h221M0 488h27M28 488h108M137 488h114M252 488h76M329 488h52M382 488h36M419 488h27M447 488h40M488 488h24M0 489h23M24 489h119M144 489h24M169 489h24M194 489h64M259 489h41M301 489h8M311 489h27M339 489h29M369 489h21M391 489h9M401 489h53M455 489h57M0 490h8M9 490h51M61 490h124M186 490h128M315 490h33M349 490h163M0 491h48M49 491h11M61 491h52M114 491h205M320 491h192M0 492h17M18 492h41M61 492h51M113 492h135M249 492h16M266 492h170M437 492h63M501 492h11M0 493h17M18 493h18M37 493h38M76 493h37M114 493h134M249 493h217M467 493h10M478 493h34M0 494h164M165 494h193M359 494h153M0 495h72M74 495h99M174 495h59M234 495h33M268 495h210M479 495h24M504 495h8M0 496h86M87 496h117M205 496h138M345 496h43M389 496h123M0 497h2M3 497h45M49 497h205M255 497h21M277 497h21M299 497h7M307 497h26M334 497h178M0 498h32M33 498h229M263 498h54M318 498h6M325 498h87M413 498h13M427 498h28M456 498h56M0 499h36M37 499h56M94 499h14M109 499h37M147 499h233M381 499h38M420 499h92M0 500h10M11 500h31M43 500h59M103 500h19M123 500h23M148 500h217M366 500h146M0 501h36M37 501h182M220 501h66M287 501h111M399 501h6M406 501h61M468 501h44M0 502h71M72 502h21M94 502h90M185 502h9M195 502h218M414 502h36M451 502h29M481 502h4M486 502h26M0 503h50M51 503h62M114 503h45M160 503h20M181 503h172M354 503h96M451 503h17M469 503h16M486 503h11M498 503h14M0 504h80M81 504h125M207 504h33M241 504h32M274 504h107M382 504h10M393 504h10M404 504h6M411 504h20M433 504h72M506 504h6M0 505h57M58 505h100M159 505h72M232 505h20M253 505h55M309 505h69M379 505h17M397 505h44M442 505h47M490 505h22M0 506h24M25 506h13M39 506h40M80 506h18M99 506h75M175 506h192M368 506h21M390 506h16M407 506h45M453 506h36M490 506h22M0 507h4M5 507h79M85 507h21M107 507h135M243 507h54M298 507h23M323 507h189M0 508h40M41 508h43M85 508h14M100 508h159M260 508h7M268 508h11M280 508h232M1 509h28M31 509h51M83 509h27M111 509h110M222 509h190M413 509h5M420 509h52M473 509h39M0 510h8M9 510h7M17 510h28M46 510h13M61 510h56M118 510h11M130 510h33M164 510h348M0 511h44M46 511h3M50 511h103M154 511h358" />
<path stroke="#ffffff" d="M34 0h1M44 0h1M237 0h1M24 1h1M145 1h1M278 1h1M7 2h1M106 2h1M248 2h1M71 3h1M129 3h2M202 3h1M309 3h1M437 3h1M3 4h1M309 4h1M337 4h1M358 4h1M404 4h1M467 4h1M297 5h1M304 5h1M424 5h1M446 5h1M16 6h2M33 6h1M65 6h1M99 6h1M157 6h1M176 6h1M481 6h1M82 7h1M370 7h2M395 7h1M415 7h1M475 7h1M507 7h1M23 8h1M371 8h1M409 8h1M424 8h1M481 8h1M317 9h1M485 9h1M119 10h1M137 10h1M469 10h1M44 11h1M431 11h1M7 12h1M184 12h1M279 12h2M344 12h1M444 12h2M0 13h1M60 13h1M227 13h1M353 13h1M120 14h1M404 14h1M442 14h1M481 14h1M500 14h1M16 15h1M28 15h1M106 15h1M257 15h1M301 15h1M405 15h1M457 15h2M500 15h1M93 16h1M331 16h1M404 16h1M457 16h1M469 16h1M25 17h1M457 17h1M509 17h1M87 18h1M163 18h1M292 18h1M349 18h1M374 18h1M494 18h1M39 19h1M263 19h1M381 19h1M490 19h1M395 20h1M69 21h1M389 21h1M428 21h1M477 21h2M11 22h1M99 22h1M356 22h1M419 22h1M237 23h1M311 23h1M322 23h1M365 23h1M509 23h1M188 24h1M305 24h1M417 24h1M447 24h1M456 24h1M462 24h1M503 24h1M4 25h1M279 25h1M338 25h1M412 25h2M482 25h1M319 26h1M368 26h2M43 27h1M114 27h1M348 27h1M384 27h1M455 27h1M29 28h1M39 28h1M404 29h1M435 29h1M6 30h1M15 30h1M61 30h1M92 30h1M108 30h1M210 30h1M270 30h1M291 30h1M472 30h1M494 30h1M92 31h1M146 31h1M494 31h1M164 32h1M80 33h1M299 33h1M382 33h1M389 33h1M415 33h1M482 33h1M509 33h1M245 34h1M314 34h1M330 34h1M361 34h1M511 34h1M183 35h1M342 35h1M351 35h1M442 35h1M13 36h1M26 36h1M241 36h1M76 37h1M307 37h1M95 38h1M430 38h1M472 38h1M505 38h1M287 39h1M457 39h1M275 40h1M324 40h1M358 40h1M493 40h1M5 41h1M43 41h1M299 41h1M401 41h1M13 42h1M420 42h1M435 42h1M472 42h1M481 42h1M465 43h2M89 44h1M227 44h1M407 44h1M27 45h1M63 45h1M320 45h1M407 45h2M141 46h1M235 46h1M324 46h1M493 46h1M115 47h2M162 47h1M209 47h1M255 47h1M80 48h1M317 48h1M343 48h1M393 48h1M133 49h1M158 49h1M262 49h1M362 49h2M453 49h2M476 49h1M6 50h1M190 50h1M284 50h1M397 50h1M417 50h1M476 50h1M497 50h1M272 51h1M286 51h1M332 51h1M382 51h1M463 51h1M497 51h2M36 52h1M46 52h1M309 52h1M463 52h1M11 53h1M422 53h1M457 53h1M118 54h1M194 54h1M219 54h1M308 54h1M317 54h1M303 55h1M436 55h1M473 55h1M485 55h1M5 56h1M403 56h1M465 56h2M506 57h1M86 58h1M153 58h1M238 58h2M433 58h1M446 58h1M257 59h1M380 59h1M410 59h1M75 60h1M119 60h1M230 60h2M311 60h1M317 60h1M323 60h1M401 60h1M415 60h1M23 61h1M95 61h1M119 61h1M181 61h1M241 61h1M286 61h1M303 61h1M343 61h1M390 61h1M425 61h1M4 62h1M10 62h1M45 62h1M164 62h1M207 62h1M243 62h1M255 62h1M343 62h1M150 63h1M228 63h1M272 63h1M452 63h1M501 63h1M231 64h1M285 64h2M478 64h1M501 64h1M190 65h1M285 65h1M417 65h1M132 66h1M404 66h1M439 66h1M458 66h1M296 67h1M426 67h1M48 68h1M374 68h1M409 68h1M444 68h1M462 68h1M484 68h1M3 69h1M37 69h1M138 69h1M164 69h1M224 69h1M397 69h1M242 70h1M255 70h1M363 70h1M150 71h1M492 71h1M272 72h2M293 72h1M296 72h1M326 72h1M388 72h1M110 73h1M209 73h1M451 73h2M472 73h1M475 73h1M505 73h1M313 74h1M14 75h1M27 75h1M184 75h1M421 75h1M434 75h1M218 76h1M343 76h1M403 76h1M41 77h1M67 77h1M96 77h1M151 77h1M195 77h1M230 77h1M265 77h1M283 77h1M305 77h1M5 78h1M119 78h1M151 78h1M247 78h1M334 78h1M475 78h1M86 79h2M225 79h1M260 79h1M279 79h1M238 80h1M369 80h1M464 80h1M299 81h1M322 81h1M410 81h1M464 81h2M273 82h1M322 82h1M407 82h1M451 82h1M164 83h1M343 83h1M386 83h1M422 83h1M434 83h1M164 84h1M211 84h1M246 84h1M360 84h1M420 84h1M465 84h1M482 84h1M126 85h1M137 85h1M222 85h1M236 85h1M409 85h2M490 85h1M496 85h1M502 85h1M7 86h1M14 86h1M33 86h1M201 86h1M231 86h1M436 86h1M48 87h1M254 87h1M267 87h1M417 87h2M40 88h1M96 88h1M103 88h2M327 88h1M224 89h1M286 89h2M257 90h1M294 90h1M306 90h1M482 90h1M373 91h1M398 91h1M487 91h1M496 91h1M4 92h1M13 92h1M148 92h1M243 92h1M278 92h1M284 93h1M488 93h1M155 94h1M203 94h1M284 94h1M318 94h2M451 94h1M465 94h1M511 94h1M67 95h1M117 95h1M218 95h1M238 95h1M297 95h1M318 95h1M369 95h1M463 95h1M18 96h1M183 96h2M274 96h2M297 96h1M337 96h1M441 96h1M115 97h1M139 97h2M164 97h1M214 97h1M496 97h1M77 98h1M133 98h1M341 98h1M369 98h1M388 98h1M434 98h1M6 99h1M35 99h1M67 99h1M129 99h1M314 99h1M335 99h1M414 99h1M503 99h1M26 100h1M47 100h1M142 100h2M228 100h2M499 100h1M45 101h1M97 101h2M228 101h1M406 101h1M151 102h1M286 102h2M143 103h1M241 103h1M256 103h1M293 103h1M302 103h1M12 104h1M222 104h1M478 104h1M179 105h1M314 105h1M454 105h1M503 105h1M29 106h1M62 106h1M72 106h1M136 106h1M278 106h1M466 106h1M155 107h1M251 107h1M293 107h1M326 107h1M130 108h2M486 108h1M108 109h1M420 109h1M94 110h1M163 110h1M172 110h1M263 110h1M362 110h1M380 110h1M141 111h1M182 111h1M332 111h1M424 111h1M493 111h1M509 111h1M4 112h1M203 112h1M210 112h1M236 112h1M303 112h1M330 112h1M377 112h1M478 112h1M90 113h1M343 113h1M364 113h1M17 114h1M315 114h1M293 115h1M315 115h1M389 115h1M449 115h1M470 115h1M225 116h1M256 116h1M12 117h1M231 117h1M33 118h1M38 118h1M132 118h1M141 118h1M169 118h1M205 118h1M276 118h1M67 119h1M113 119h1M189 119h2M498 119h1M50 120h1M159 120h1M233 120h2M303 120h1M458 120h1M367 121h1M386 121h1M484 121h1M6 122h1M27 122h1M77 122h1M79 122h1M186 122h1M316 122h1M330 122h1M416 122h1M490 122h1M501 122h1M153 123h1M177 123h1M276 123h1M16 124h1M153 124h1M210 124h1M302 124h1M397 124h1M17 125h1M106 125h1M216 125h1M234 125h1M308 125h1M319 125h1M45 126h1M103 126h1M202 126h1M369 126h1M442 126h1M9 127h1M145 127h1M170 127h1M195 127h1M342 127h1M369 127h1M471 127h1M9 128h1M85 128h1M153 128h1M244 128h1M330 128h1M33 129h1M225 129h1M260 129h1M510 129h1M61 130h1M226 130h1M289 130h1M436 130h1M480 130h1M47 131h1M225 131h1M78 132h1M110 132h1M118 132h1M174 132h1M406 132h1M411 132h1M57 133h1M165 133h1M254 133h1M298 133h1M363 133h1M399 133h1M411 133h1M458 133h2M33 134h1M76 134h1M126 134h1M134 134h1M399 134h1M3 135h1M287 135h1M13 136h1M246 136h1M276 136h2M496 136h1M19 137h1M30 137h1M40 137h1M96 137h1M192 137h1M19 138h1M65 138h1M91 138h1M111 138h1M191 138h2M216 138h1M328 138h1M51 139h1M102 139h1M107 139h1M314 139h1M336 139h1M355 139h1M54 140h1M144 140h1M154 140h1M476 140h1M483 140h1M158 141h1M179 141h1M225 141h1M270 141h1M488 141h1M5 142h1M132 142h1M381 142h1M488 142h1M64 143h1M123 143h1M294 143h1M301 143h1M427 143h1M306 144h1M457 144h1M36 145h1M182 145h1M306 145h1M416 145h1M95 146h1M118 146h2M142 146h1M245 146h1M363 146h1M499 146h1M29 147h1M275 147h1M73 148h1M234 148h1M472 148h1M102 149h1M207 149h1M317 149h1M488 149h1M19 150h1M45 150h1M61 150h1M77 150h1M295 150h1M317 150h1M325 150h1M488 150h1M13 151h1M303 151h1M468 151h1M6 152h1M18 152h1M68 152h1M110 152h1M114 152h1M116 152h1M125 152h1M254 152h1M458 152h1M6 153h1M414 154h2M35 155h1M54 155h1M111 155h1M147 155h1M266 155h1M311 155h1M414 155h1M35 156h2M64 156h1M295 156h1M318 157h1M5 158h1M400 158h1M485 158h1M54 159h1M225 159h1M43 160h1M348 160h1M43 161h1M75 161h1M276 161h1M332 161h1M336 161h1M368 161h1M11 162h1M26 162h1M197 162h1M362 162h1M384 162h1M88 163h1M98 163h1M122 163h1M243 163h1M286 163h1M333 163h1M471 163h1M72 164h1M171 164h1M320 165h1M329 165h1M348 165h1M60 166h1M97 166h1M103 166h1M365 166h1M406 166h2M497 166h1M50 167h1M255 167h1M313 167h1M372 167h1M381 167h1M406 167h1M38 168h1M79 168h1M92 168h1M185 168h1M268 168h1M342 168h2M406 168h1M410 168h1M56 169h1M66 169h1M356 169h1M429 169h1M86 170h1M279 170h1M324 170h1M345 170h1M452 170h1M465 170h1M3 171h1M61 171h1M61 172h1M102 172h1M136 172h1M158 172h1M250 172h1M292 172h1M365 172h1M388 172h1M8 173h1M48 173h1M74 173h1M88 173h2M92 173h1M96 173h1M235 173h1M357 173h1M359 173h1M438 173h1M114 174h1M116 174h1M195 174h1M317 174h1M331 174h2M335 174h1M339 174h1M478 174h1M29 175h1M122 175h1M145 175h1M345 175h1M379 175h1M401 175h1M14 176h1M29 176h1M23 177h1M81 177h1M102 177h1M209 177h1M222 177h1M329 177h1M113 178h1M186 178h1M309 178h1M32 179h1M54 179h1M62 179h1M99 179h2M167 179h1M229 179h1M322 179h1M335 179h1M428 179h1M511 179h1M70 180h1M129 180h1M138 180h1M229 180h1M498 180h1M122 181h1M254 181h1M340 181h1M346 181h1M77 182h1M86 182h1M105 182h1M288 182h1M8 183h1M18 183h1M23 183h1M41 183h2M47 183h1M315 183h1M414 183h1M90 184h1M228 184h1M331 184h1M341 184h1M365 184h1M486 184h1M119 185h1M141 185h1M440 185h1M34 186h1M89 186h1M93 186h1M125 186h1M318 186h1M19 187h1M34 187h1M105 187h1M75 188h1M297 188h1M468 188h1M86 189h1M110 189h1M135 189h1M152 189h1M338 189h1M93 190h1M203 190h1M338 190h1M63 191h1M66 191h1M72 191h1M97 191h1M235 191h1M354 191h1M12 192h1M50 192h1M77 192h1M89 192h1M121 192h1M174 192h1M353 192h2M390 192h1M509 192h1M6 193h1M34 193h1M82 193h1M99 193h1M110 193h1M137 193h1M149 193h1M205 193h1M275 193h1M192 194h1M73 195h1M82 195h1M95 195h1M128 195h1M169 195h1M311 195h1M497 195h1M116 196h1M28 197h1M53 197h1M116 197h1M121 197h1M320 197h1M101 198h1M143 198h1M450 198h1M88 199h1M94 199h1M316 199h1M477 199h1M41 200h1M65 200h1M97 200h1M254 200h1M81 201h1M90 201h1M196 201h1M265 201h1M356 201h1M385 201h1M488 201h1M63 202h1M76 202h1M425 202h1M27 203h1M72 203h1M85 203h1M88 203h1M17 204h1M179 204h1M243 204h1M330 204h1M157 205h1M330 205h1M375 205h1M81 206h1M157 206h1M292 206h1M347 206h1M401 206h1M422 206h1M468 206h1M72 207h1M117 207h1M140 207h1M209 207h1M279 207h1M347 207h1M387 207h1M397 207h1M72 208h1M78 208h1M369 208h1M30 209h1M46 209h1M68 209h1M308 209h1M434 209h2M459 209h1M19 210h1M63 210h1M80 210h1M104 210h1M130 210h1M219 210h1M343 210h1M435 210h1M51 211h2M94 211h2M172 211h1M6 212h1M13 212h2M72 212h1M319 213h1M369 213h1M377 213h1M139 214h1M408 214h1M497 214h1M82 215h2M321 215h1M417 215h1M56 216h1M82 216h1M144 216h1M256 216h1M468 216h1M21 217h3M224 217h1M356 217h1M469 217h1M42 218h1M66 218h1M75 218h1M112 218h1M117 218h1M196 218h1M306 218h2M468 218h1M503 218h1M42 219h1M66 219h1M68 219h1M72 219h1M125 219h1M143 219h1M182 219h1M396 219h1M50 220h1M68 220h1M104 220h1M173 220h1M302 220h1M388 220h1M413 220h1M438 220h1M33 221h1M345 221h1M445 221h1M93 222h1M192 222h1M459 222h1M477 222h1M9 223h1M192 223h1M203 223h1M239 223h1M275 223h1M302 223h1M334 223h1M396 223h1M453 223h1M161 224h1M188 224h1M192 224h2M302 224h1M396 224h1M420 224h1M116 225h1M193 225h1M231 225h1M320 225h1M322 225h1M429 225h1M106 226h1M149 226h1M193 226h1M289 226h1M63 227h1M110 227h1M147 227h1M193 227h1M402 227h1M476 227h2M49 228h1M90 228h1M147 228h1M166 228h1M310 228h1M356 228h1M432 228h2M133 229h1M375 229h1M384 229h1M412 229h1M448 229h1M16 230h2M25 230h1M74 230h1M80 230h1M114 230h1M45 231h1M119 231h1M213 231h1M468 231h1M499 231h1M4 232h1M57 232h1M68 232h1M31 233h2M98 233h1M164 233h1M109 234h1M350 234h1M38 235h1M41 235h2M103 235h1M109 235h1M304 235h1M446 235h1M453 235h1M479 235h1M37 236h1M63 236h1M103 236h1M154 236h2M177 236h1M194 236h1M384 236h1M425 236h1M86 237h1M139 237h2M337 237h1M406 237h1M415 237h1M506 237h1M17 238h1M126 238h2M143 238h1M241 238h1M287 238h1M298 238h1M329 238h1M69 239h1M74 239h1M170 239h1M182 239h1M373 239h2M398 240h1M494 240h1M61 241h1M256 241h1M259 241h1M315 241h1M379 241h1M118 242h1M234 242h1M356 242h1M422 242h1M24 243h1M29 243h1M99 243h1M264 243h1M294 243h1M339 243h1M465 243h1M40 244h1M386 244h1M484 244h1M499 244h1M394 245h1M49 246h1M62 246h1M304 246h1M471 246h1M7 247h1M81 247h1M146 247h1M254 247h1M385 247h2M471 247h2M66 248h1M68 248h1M132 248h1M254 248h1M300 248h1M310 248h1M372 248h1M34 249h1M115 249h1M156 249h1M220 249h1M320 249h1M376 249h1M48 250h1M76 250h1M196 250h1M271 250h1M358 250h1M382 250h2M407 250h1M457 250h1M48 251h1M130 251h1M197 251h1M255 251h1M277 251h1M426 251h2M21 252h1M166 252h1M310 252h1M461 252h1M481 252h1M280 253h1M293 253h1M398 253h1M446 253h1M98 254h1M220 254h1M264 254h1M293 254h1M25 255h1M33 255h1M93 255h1M242 255h1M302 255h1M363 255h1M391 255h1M486 255h1M3 256h1M11 256h1M42 256h1M71 256h1M177 256h1M42 257h1M55 257h1M139 257h1M354 257h1M500 257h1M149 258h1M160 258h1M467 258h1M58 259h1M80 259h1M287 259h1M339 259h1M64 260h1M120 260h1M259 260h1M287 260h1M497 260h1M510 260h1M105 261h1M155 261h1M301 261h1M444 261h1M474 261h1M35 262h1M81 262h1M267 262h1M269 262h1M380 262h1M465 262h1M479 262h1M81 263h1M147 263h1M254 263h1M407 263h1M454 263h1M489 263h1M26 264h1M31 264h1M140 264h1M273 264h1M286 264h1M407 264h1M5 266h1M295 266h1M359 266h1M365 266h2M41 267h1M71 267h1M128 267h1M135 267h1M175 267h1M306 267h1M481 267h1M13 268h1M220 268h1M329 268h2M468 268h1M503 268h1M26 269h1M76 269h1M79 269h1M229 269h1M274 269h1M394 269h1M490 269h1M310 270h1M394 270h1M438 270h1M473 270h1M508 270h1M186 271h1M261 271h1M266 271h1M377 271h1M461 271h1M37 272h1M48 272h1M94 272h2M141 272h1M152 272h1M427 272h1M9 273h1M159 273h1M196 273h1M360 273h3M146 274h1M204 274h1M232 274h1M272 274h1M298 274h1M353 274h1M452 274h1M21 275h1M31 275h1M113 275h1M154 275h1M232 275h1M293 275h2M297 275h1M393 276h1M237 277h1M303 277h2M485 277h1M498 277h1M222 278h1M267 278h1M278 278h1M381 278h1M407 278h1M467 278h1M109 279h1M126 279h1M290 279h1M141 280h2M255 280h1M261 280h1M22 281h1M375 281h1M245 282h1M286 282h1M433 282h1M12 283h1M27 283h1M272 283h1M474 283h1M3 284h1M46 284h1M162 284h2M318 284h1M393 284h1M471 284h1M83 285h1M318 285h1M407 285h1M450 285h1M486 285h1M498 285h1M78 286h1M112 286h1M318 286h1M338 286h1M362 286h1M424 286h1M484 286h1M22 287h1M64 287h1M73 287h2M102 287h1M130 287h1M132 287h1M154 287h1M164 287h1M218 287h1M318 287h2M362 287h1M473 287h2M12 288h2M92 288h1M145 288h1M182 288h1M210 288h1M251 288h1M319 288h1M348 288h1M500 288h1M47 289h1M54 289h1M302 289h1M319 289h1M329 289h1M396 289h1M481 289h2M173 290h1M267 290h1M285 290h1M191 291h1M234 291h2M263 291h1M267 291h1M269 291h1M293 291h1M228 292h1M260 292h1M269 292h1M293 292h1M1 293h1M9 293h1M27 293h1M39 293h1M177 293h1M201 293h1M437 293h1M462 293h1M145 294h1M152 294h1M209 294h2M217 294h1M221 294h1M225 294h1M231 294h1M279 294h1M61 295h1M210 295h1M251 295h2M33 296h1M39 296h1M132 296h1M195 296h1M199 296h1M231 296h1M13 297h1M181 297h1M226 297h1M235 297h1M496 297h1M263 298h1M321 298h2M384 298h1M6 299h1M162 299h2M222 299h1M283 299h2M468 299h1M500 299h1M6 300h1M20 300h1M219 300h1M255 300h1M272 300h1M316 300h1M365 300h1M430 300h1M483 300h1M149 301h2M267 301h1M289 301h1M305 301h1M453 301h1M483 301h1M14 302h1M83 302h1M144 302h1M150 302h1M188 302h1M193 302h1M201 302h1M213 302h1M240 302h2M257 302h1M263 302h1M338 302h2M349 302h1M29 303h1M40 303h1M171 303h1M241 303h1M263 303h1M411 303h1M113 304h1M140 304h1M178 304h1M241 304h1M254 304h1M440 304h1M474 304h1M494 304h1M24 305h1M33 305h1M79 305h1M159 305h1M188 305h1M241 305h1M318 306h1M249 307h1M263 307h1M308 307h1M505 307h1M5 308h1M14 308h1M259 308h1M44 309h2M49 309h1M54 309h1M254 309h1M448 309h1M39 310h1M99 310h2M270 310h1M294 310h1M353 310h1M11 311h1M35 311h1M59 312h1M151 312h2M238 312h1M240 312h1M245 312h1M362 312h1M367 312h1M480 312h1M18 313h1M191 313h2M282 313h1M307 313h1M465 313h1M30 314h1M132 314h1M169 314h1M458 314h1M477 314h1M219 315h1M251 315h1M262 315h1M339 315h1M385 315h1M432 315h1M9 316h1M92 316h1M219 316h1M234 316h1M484 316h1M207 317h1M301 317h1M4 318h1M22 318h1M56 318h1M174 318h1M258 318h1M285 318h1M323 318h1M404 318h1M115 319h1M263 319h1M269 319h1M272 319h1M494 319h1M497 319h1M36 320h1M247 320h1M33 321h1M43 322h1M260 322h1M400 322h1M8 323h1M113 323h1M129 323h1M169 323h1M301 323h1M316 323h1M447 323h1M64 324h1M97 324h1M252 324h1M301 324h1M430 324h1M456 324h1M20 326h1M26 326h2M33 326h1M39 326h1M48 326h1M20 327h1M141 327h1M251 327h1M288 327h1M294 327h1M317 327h1M327 327h1M337 327h1M258 328h1M469 328h1M488 328h1M75 329h1M163 329h1M201 329h1M413 329h1M88 330h1M184 330h1M225 330h1M239 330h1M265 330h1M351 330h1M387 330h1M492 330h1M140 331h1M184 331h1M210 331h1M239 331h1M273 331h1M281 331h1M303 331h1M6 332h1M5 333h1M42 333h1M52 333h1M151 333h1M214 333h1M254 333h1M312 333h1M404 333h1M69 334h1M306 334h1M321 334h1M447 334h1M30 335h1M69 335h1M171 335h1M306 335h1M20 336h1M220 336h1M431 336h1M475 336h1M48 337h1M261 337h1M287 337h1M327 337h1M370 337h1M456 337h1M101 338h1M205 338h1M274 338h1M438 338h1M470 338h1M111 339h1M197 339h1M274 339h1M418 339h1M438 339h2M9 340h1M167 340h2M250 340h1M509 340h1M10 341h1M41 341h1M57 341h1M65 341h1M269 341h1M279 341h1M41 342h1M80 342h1M256 342h1M297 342h1M105 343h1M145 343h1M410 343h1M483 343h1M105 344h1M234 344h1M275 344h1M461 344h1M104 345h2M399 345h1M443 345h1M92 346h1M128 346h1M183 346h1M263 346h1M347 346h1M443 346h1M41 347h1M154 347h1M334 347h1M496 347h2M41 348h1M229 348h1M309 348h1M324 348h1M78 349h1M193 349h1M215 349h1M260 349h1M292 349h1M7 350h1M49 350h1M114 350h1M208 350h1M292 350h1M27 351h1M58 351h1M281 351h1M506 351h1M509 351h1M53 352h1M471 352h1M17 353h1M75 353h1M244 353h1M372 353h1M471 353h1M476 353h1M61 354h1M141 354h1M271 354h1M299 354h2M237 355h1M281 355h1M300 355h1M164 357h1M182 357h1M44 358h1M136 358h1M145 358h1M267 358h1M317 358h1M422 358h1M322 359h1M466 359h1M10 360h1M18 360h1M49 360h1M61 360h1M258 360h1M274 360h1M290 360h1M351 360h1M449 360h1M506 360h1M18 361h1M80 361h1M126 361h1M173 361h1M492 361h1M495 361h1M67 362h1M218 362h1M262 362h1M391 362h1M434 362h1M67 363h1M154 363h1M162 363h1M306 363h1M67 364h1M108 364h1M198 364h1M410 364h2M67 365h1M192 365h1M299 365h1M136 366h1M144 367h1M271 367h1M441 367h1M506 367h1M509 367h1M74 368h1M457 368h1M509 368h1M51 369h1M34 370h1M180 370h1M241 370h1M281 370h1M499 370h1M245 371h1M338 371h1M477 371h1M482 371h1M275 372h1M303 372h1M372 372h1M152 373h1M275 373h1M90 374h1M161 374h1M186 374h1M320 374h1M136 375h1M263 375h1M265 375h1M428 375h1M171 376h1M224 376h1M231 376h1M112 377h1M209 377h1M231 377h1M449 377h1M7 378h1M65 378h1M100 378h1M112 378h1M125 378h1M284 378h1M464 378h1M477 378h1M488 378h1M100 379h1M28 380h1M141 380h1M184 380h1M187 380h1M391 380h1M222 381h1M331 381h1M509 381h1M45 383h1M83 383h1M267 383h1M293 383h1M335 383h1M498 383h1M132 384h1M142 384h1M147 384h1M364 384h1M16 385h1M98 385h1M142 385h1M266 385h1M440 385h1M157 386h1M353 386h1M428 386h1M3 387h1M114 387h1M308 387h1M375 387h1M19 388h1M173 388h1M409 388h1M72 389h1M139 389h1M483 389h1M117 390h1M125 390h1M192 390h1M393 390h1M30 391h1M204 391h1M334 391h1M452 391h1M493 391h1M128 392h1M368 392h1M383 392h1M469 392h1M57 393h1M99 393h1M281 393h1M319 393h1M280 394h1M39 395h1M210 395h1M459 395h1M502 395h1M8 396h1M24 396h1M93 396h1M264 396h1M377 396h1M420 396h1M423 396h1M486 396h1M502 396h1M155 397h1M97 398h1M147 398h1M301 398h1M361 398h1M31 399h1M134 399h1M233 399h1M445 399h1M467 399h1M407 400h1M467 400h1M51 401h1M131 401h1M372 401h1M509 401h1M14 402h1M63 402h1M326 402h1M397 402h1M422 402h1M39 403h1M388 403h1M499 403h1M504 403h1M252 404h1M453 404h1M499 404h1M481 405h1M111 406h1M270 406h1M416 406h1M18 407h1M287 407h1M484 407h1M14 408h1M103 408h1M197 408h1M221 408h1M310 408h1M83 409h1M129 409h1M176 409h1M380 409h1M476 409h1M509 409h1M21 410h1M372 410h1M76 411h1M180 411h1M205 411h1M303 411h1M428 411h1M54 412h1M148 412h1M176 412h1M249 412h1M303 412h1M344 412h1M434 412h1M6 413h1M52 413h1M66 413h1M142 413h1M303 413h1M390 413h1M398 413h1M509 413h1M29 414h1M303 414h1M454 414h1M503 414h1M316 415h1M362 415h1M409 415h1M21 416h1M30 416h1M119 416h1M144 416h1M285 416h1M297 416h1M35 417h1M494 417h1M280 418h1M372 418h1M381 418h1M400 419h1M418 419h1M99 420h2M185 420h1M511 420h1M81 421h1M473 421h1M511 421h1M15 422h1M21 422h1M27 422h1M107 422h2M297 422h1M377 422h1M35 423h1M52 423h1M97 423h1M157 423h1M311 423h1M480 423h1M83 424h1M95 424h1M131 424h1M174 424h1M227 424h1M289 424h1M66 425h1M110 425h1M188 425h1M263 425h1M294 425h1M3 426h1M52 426h2M107 426h1M285 426h1M350 426h1M444 426h1M496 426h1M53 427h1M148 427h1M246 427h1M314 427h1M429 427h1M451 427h1M504 427h1M206 428h1M246 428h1M277 428h1M465 428h1M42 429h1M277 429h1M390 429h1M328 430h1M364 430h1M419 430h1M114 431h1M174 431h1M200 431h1M237 431h1M83 432h1M96 432h1M470 432h1M188 433h1M381 433h1M12 434h1M42 434h1M45 434h1M65 434h2M277 434h1M316 434h1M506 434h1M129 435h1M277 435h1M293 435h1M301 435h1M496 435h1M25 436h1M403 436h2M486 436h1M154 437h1M213 437h1M347 437h1M433 437h1M120 438h1M337 438h1M441 438h1M33 439h1M55 439h1M73 439h1M108 439h1M143 439h1M187 439h1M284 439h1M505 439h1M4 440h1M91 440h1M187 440h1M227 440h1M456 440h1M511 440h1M59 441h1M78 441h1M113 441h1M266 441h1M305 441h1M407 441h1M100 442h1M305 442h1M16 443h1M39 443h1M278 443h1M288 443h1M387 443h1M450 443h1M500 443h1M507 443h1M16 444h1M65 444h1M174 445h1M376 445h1M420 445h1M446 445h1M475 445h1M92 446h1M127 446h1M174 446h1M237 446h1M324 446h1M420 446h1M461 446h1M475 446h1M102 447h1M116 447h1M201 447h1M311 447h1M399 447h1M437 447h1M107 448h1M137 448h1M71 449h1M84 449h1M250 449h1M377 449h1M487 449h1M500 449h1M11 450h1M262 450h2M269 450h1M275 450h1M284 450h1M51 451h2M114 451h1M32 452h1M44 452h1M81 452h1M300 452h1M333 452h1M488 452h1M210 453h1M349 453h1M365 453h1M405 453h1M60 454h1M95 454h1M190 454h1M279 454h1M54 455h1M269 455h1M509 455h1M19 456h2M54 456h1M135 456h1M183 456h1M272 456h1M483 456h1M504 456h1M20 457h1M41 457h1M100 457h1M120 457h1M351 457h1M41 458h1M63 458h2M154 458h2M258 458h1M292 458h1M410 458h1M124 459h1M174 459h1M198 459h2M443 459h1M205 460h1M328 460h1M455 460h1M470 460h1M491 460h1M24 461h1M209 461h1M219 461h1M455 461h1M487 461h1M109 462h2M195 462h2M237 462h1M245 462h1M266 462h1M368 462h1M405 462h1M110 463h1M427 463h2M1 464h1M51 464h2M187 464h1M295 464h1M387 464h2M474 464h1M476 464h1M481 464h1M36 465h1M45 465h1M82 465h1M97 465h1M195 465h1M271 465h1M116 466h1M252 466h1M275 466h1M335 466h2M24 467h1M159 467h1M280 467h2M285 467h1M290 467h1M498 467h1M60 468h1M202 468h1M242 468h1M506 468h1M12 469h1M45 469h1M87 469h1M183 469h1M210 469h1M233 469h1M485 469h1M207 470h2M233 470h1M254 470h1M216 471h1M254 471h1M260 471h1M269 471h1M315 471h1M395 471h1M424 471h1M477 471h1M504 471h1M75 472h1M166 472h1M175 472h1M254 472h1M349 472h1M376 472h1M414 472h1M477 472h1M6 473h1M156 473h1M197 473h1M265 473h1M276 473h1M407 473h1M477 473h1M495 473h1M8 474h1M35 474h1M102 474h1M128 474h1M135 474h1M319 474h1M380 474h1M386 474h1M424 474h1M429 474h1M437 474h1M449 474h1M476 474h2M385 475h2M23 476h1M217 476h1M224 476h1M455 476h1M23 477h1M45 477h1M398 477h2M458 477h1M82 478h1M113 478h1M417 479h1M462 479h1M471 479h1M495 479h1M62 480h1M133 480h1M169 480h1M197 480h1M206 480h1M269 480h1M275 480h1M368 480h1M431 480h1M435 480h1M467 480h1M148 481h2M254 481h1M297 481h1M446 481h1M487 481h2M506 481h1M35 482h1M104 482h2M179 482h1M245 482h1M381 482h1M388 482h1M445 482h2M453 482h1M457 482h1M461 482h1M467 482h1M14 483h1M55 483h1M61 483h1M70 483h1M100 483h1M233 483h1M263 483h1M275 483h1M413 483h1M437 483h1M8 484h1M152 484h1M464 484h1M2 485h1M98 485h1M161 485h1M185 485h1M427 485h1M470 485h2M39 486h2M89 486h1M128 486h1M185 486h1M225 486h2M409 486h1M122 487h1M220 487h1M283 487h1M290 487h1M27 488h1M136 488h1M251 488h1M328 488h1M381 488h1M418 488h1M446 488h1M487 488h1M23 489h1M143 489h1M168 489h1M193 489h1M258 489h1M300 489h1M309 489h2M338 489h1M368 489h1M390 489h1M400 489h1M454 489h1M8 490h1M60 490h1M185 490h1M314 490h1M348 490h1M48 491h1M60 491h1M113 491h1M319 491h1M17 492h1M59 492h2M112 492h1M248 492h1M265 492h1M436 492h1M500 492h1M17 493h1M36 493h1M75 493h1M113 493h1M248 493h1M466 493h1M477 493h1M164 494h1M358 494h1M72 495h2M173 495h1M233 495h1M267 495h1M478 495h1M503 495h1M86 496h1M204 496h1M343 496h2M388 496h1M2 497h1M48 497h1M254 497h1M276 497h1M298 497h1M306 497h1M333 497h1M32 498h1M262 498h1M317 498h1M324 498h1M412 498h1M426 498h1M455 498h1M36 499h1M93 499h1M108 499h1M146 499h1M380 499h1M419 499h1M10 500h1M42 500h1M102 500h1M122 500h1M146 500h2M365 500h1M36 501h1M219 501h1M286 501h1M398 501h1M405 501h1M467 501h1M71 502h1M93 502h1M184 502h1M194 502h1M413 502h1M450 502h1M480 502h1M485 502h1M50 503h1M113 503h1M159 503h1M180 503h1M353 503h1M450 503h1M468 503h1M485 503h1M497 503h1M80 504h1M206 504h1M240 504h1M273 504h1M381 504h1M392 504h1M403 504h1M410 504h1M431 504h2M505 504h1M57 505h1M158 505h1M231 505h1M252 505h1M308 505h1M378 505h1M396 505h1M441 505h1M489 505h1M24 506h1M38 506h1M79 506h1M98 506h1M174 506h1M367 506h1M389 506h1M406 506h1M452 506h1M489 506h1M4 507h1M84 507h1M106 507h1M242 507h1M297 507h1M321 507h2M40 508h1M84 508h1M99 508h1M259 508h1M267 508h1M279 508h1M0 509h1M29 509h2M82 509h1M110 509h1M221 509h1M412 509h1M418 509h2M472 509h1M8 510h1M16 510h1M45 510h1M59 510h2M117 510h1M129 510h1M163 510h1M44 511h2M49 511h1M153 511h1" />
</svg>