<svg xmlns="http://www.w3.org/2000/svg" viewBox="0 -0.5 512 512" shape-rendering="crispEdges">
<metadata>Made with Pix2d https://pix2d.com</metadata>
<path stroke="#f7ec28" d="M31 145h4M53 145h4M124 145h4M132 145h5M283 145h4M31 146h4M53 146h4M124 146h4M132 146h5M283 146h4M31 147h4M53 147h4M124 147h4M132 147h5M283 147h4M31 148h4M53 148h4M124 148h4M132 148h5M283 148h4M194 149h5M221 149h4M358 149h4M194 150h5M221 150h4M358 150h4M194 151h5M221 151h4M358 151h4M194 152h5M221 152h4M358 152h4M216 153h5M247 153h5M353 153h5M384 153h5M216 154h5M247 154h5M353 154h5M384 154h5M216 155h5M247 155h5M353 155h5M384 155h5M216 156h5M247 156h5M353 156h5M384 156h5M216 157h5M247 157h5M353 157h5M384 157h5M66 158h5M225 158h5M362 158h4M66 159h5M225 159h5M362 159h4M66 160h5M225 160h5M362 160h4M66 161h5M225 161h5M362 161h4M177 184h4M177 185h4M177 186h4M177 187h4M177 188h4M225 198h5M362 198h4M225 199h5M362 199h4M225 200h5M362 200h4M225 201h5M362 201h4M216 202h5M247 202h5M353 202h5M384 202h5M216 203h5M247 203h5M353 203h5M384 203h5M216 204h5M247 204h5M353 204h5M384 204h5M216 205h5M247 205h5M353 205h5M384 205h5M221 206h4M358 206h4M221 207h4M358 207h4M221 208h4M358 208h4M221 209h4M358 209h4M221 210h4M358 210h4M124 211h4M132 211h5M283 211h4M291 211h5M124 212h4M132 212h5M283 212h4M291 212h5M124 213h4M132 213h5M283 213h4M291 213h5M124 214h4M132 214h5M283 214h4M291 214h5M419 233h5M419 234h5M419 235h5M419 236h5M415 242h4M415 243h4M415 244h4M415 245h4M433 251h4M433 252h4M433 253h4M433 254h4M397 259h5M397 260h5M397 261h5M397 262h5M397 263h5M415 264h4M415 265h4M415 266h4M415 267h4M428 299h5M428 300h5M428 301h5M428 302h5M428 303h5" />
<path stroke="#f8ec28" d="M35 145h5M49 145h4M35 146h5M49 146h4M35 147h5M49 147h4M35 148h5M49 148h4M185 153h5M185 154h5M185 155h5M185 156h5M185 157h5M27 158h4M27 159h4M27 160h4M27 161h4M66 162h5M265 162h4M402 162h4M66 163h5M265 163h4M402 163h4M66 164h5M265 164h4M402 164h4M66 165h5M265 165h4M402 165h4M66 166h5M265 166h4M402 166h4M190 167h4M305 167h4M190 168h4M305 168h4M190 169h4M305 169h4M190 170h4M305 170h4M305 180h4M305 181h4M305 182h4M305 183h4M13 184h5M13 185h5M13 186h5M13 187h5M13 188h5M22 189h5M318 189h4M22 190h5M318 190h4M22 191h5M318 191h4M22 192h5M318 192h4M318 202h4M318 203h4M318 204h4M318 205h4M199 211h4M199 212h4M199 213h4M199 214h4M415 233h4M415 234h4M415 235h4M415 236h4M424 268h4M424 269h4M424 270h4M424 271h4M424 272h4M433 277h4M433 278h4M433 279h4M433 280h4M433 281h4M424 290h4M433 290h4M424 291h4M433 291h4M424 292h4M433 292h4M424 293h4M433 293h4M424 294h4M433 294h4M419 295h5M419 296h5M419 297h5M419 298h5" />
<path stroke="#f7ec28" d="M40 145h9M84 145h9M128 145h4M150 145h35M234 145h13M287 145h4M327 145h9M371 145h13M40 146h9M84 146h9M128 146h4M150 146h35M234 146h13M287 146h4M327 146h9M371 146h13M40 147h9M84 147h9M128 147h4M150 147h35M234 147h13M287 147h4M327 147h9M371 147h13M40 148h9M84 148h9M128 148h4M150 148h35M234 148h13M287 148h4M327 148h9M371 148h13M31 153h4M62 153h4M31 154h4M62 154h4M31 155h4M62 155h4M31 156h4M62 156h4M31 157h4M62 157h4M18 158h4M18 159h4M18 160h4M18 161h4M22 167h5M62 167h4M22 168h5M62 168h4M22 169h5M62 169h4M22 170h5M62 170h4M13 176h5M159 176h26M194 176h5M397 176h5M13 177h5M159 177h26M194 177h5M397 177h5M13 178h5M159 178h26M194 178h5M397 178h5M13 179h5M159 179h26M194 179h5M397 179h5M13 180h5M93 180h31M261 180h4M397 180h5M13 181h5M93 181h31M261 181h4M397 181h5M13 182h5M93 182h31M261 182h4M397 182h5M13 183h5M93 183h31M261 183h4M397 183h5M181 189h4M181 190h4M181 191h4M181 192h4M265 193h4M402 193h4M265 194h4M402 194h4M265 195h4M402 195h4M265 196h4M402 196h4M265 197h4M402 197h4M18 198h4M57 198h5M185 198h5M18 199h4M57 199h5M185 199h5M18 200h4M57 200h5M185 200h5M18 201h4M57 201h5M185 201h5M40 206h4M190 206h4M40 207h4M190 207h4M40 208h4M190 208h4M40 209h4M190 209h4M40 210h4M190 210h4M35 211h5M49 211h4M84 211h9M128 211h4M150 211h9M194 211h5M234 211h13M287 211h4M327 211h9M371 211h13M35 212h5M49 212h4M84 212h9M128 212h4M150 212h9M194 212h5M234 212h13M287 212h4M327 212h9M371 212h13M35 213h5M49 213h4M84 213h9M128 213h4M150 213h9M194 213h5M234 213h13M287 213h4M327 213h9M371 213h13M35 214h5M49 214h4M84 214h9M128 214h4M150 214h9M194 214h5M234 214h13M287 214h4M327 214h9M371 214h13M428 242h5M468 242h4M428 243h5M468 243h4M428 244h5M468 244h4M428 245h5M468 245h4M468 246h4M468 247h4M468 248h4M468 249h4M468 250h4M468 251h4M468 252h4M468 253h4M468 254h4M468 255h4M468 256h4M468 257h4M468 258h4M393 259h4M468 259h4M393 260h4M468 260h4M393 261h4M468 261h4M393 262h4M468 262h4M393 263h4M468 263h4M331 264h5M468 264h4M331 265h5M468 265h4M331 266h5M468 266h4M331 267h5M468 267h4M331 268h5M468 268h4M331 269h5M468 269h4M331 270h5M468 270h4M331 271h5M468 271h4M331 272h5M468 272h4M468 273h4M468 274h4M468 275h4M468 276h4M468 277h4M468 278h4M468 279h4M468 280h4M468 281h4M468 282h4M468 283h4M468 284h4M468 285h4M468 286h4M468 287h4M468 288h4M468 289h4M468 290h4M468 291h4M468 292h4M468 293h4M468 294h4M393 295h4M468 295h4M393 296h4M468 296h4M393 297h4M468 297h4M393 298h4M468 298h4M336 299h4M468 299h4M336 300h4M468 300h4M336 301h4M468 301h4M336 302h4M468 302h4M336 303h4M468 303h4M336 304h4M468 304h4M336 305h4M468 305h4M336 306h4M468 306h4M336 307h4M468 307h4" />
<path stroke="#f8eb29" d="M185 145h5M185 146h5M185 147h5M185 148h5M221 162h4M358 162h4M221 163h4M358 163h4M221 164h4M358 164h4M221 165h4M358 165h4M221 166h4M358 166h4M13 171h5M124 171h4M13 172h5M124 172h4M13 173h5M124 173h4M13 174h5M124 174h4M13 175h5M124 175h4M221 193h4M358 193h4M221 194h4M358 194h4M221 195h4M358 195h4M221 196h4M358 196h4M221 197h4M358 197h4M27 198h4M27 199h4M27 200h4M27 201h4M31 202h4M53 202h4M31 203h4M53 203h4M31 204h4M53 204h4M31 205h4M53 205h4M393 233h4M393 234h4M393 235h4M393 236h4M384 237h5M384 238h5M384 239h5M384 240h5M384 241h5M411 264h4M411 265h4M411 266h4M411 267h4M393 304h4M393 305h4M393 306h4M393 307h4" />
<path stroke="#f8ec29" d="M190 145h4M190 146h4M190 147h4M190 148h4M296 149h4M296 150h4M296 151h4M296 152h4M49 153h4M159 153h26M49 154h4M159 154h26M49 155h4M159 155h26M49 156h4M159 156h26M49 157h4M159 157h26M265 158h4M402 158h4M265 159h4M402 159h4M265 160h4M402 160h4M265 161h4M402 161h4M57 167h5M57 168h5M57 169h5M57 170h5M93 171h31M269 171h5M309 171h5M406 171h5M93 172h31M269 172h5M309 172h5M406 172h5M93 173h31M269 173h5M309 173h5M406 173h5M93 174h31M269 174h5M309 174h5M406 174h5M93 175h31M269 175h5M309 175h5M406 175h5M208 176h4M269 176h5M300 176h5M344 176h5M406 176h5M208 177h4M269 177h5M300 177h5M344 177h5M406 177h5M208 178h4M269 178h5M300 178h5M344 178h5M406 178h5M208 179h4M269 179h5M300 179h5M344 179h5M406 179h5M208 180h4M269 180h5M344 180h5M406 180h5M208 181h4M269 181h5M344 181h5M406 181h5M208 182h4M269 182h5M344 182h5M406 182h5M208 183h4M269 183h5M344 183h5M406 183h5M159 184h18M269 184h5M406 184h5M159 185h18M269 185h5M406 185h5M159 186h18M269 186h5M406 186h5M159 187h18M269 187h5M406 187h5M159 188h18M269 188h5M406 188h5M181 193h4M322 193h5M181 194h4M322 194h5M181 195h4M322 195h5M181 196h4M322 196h5M181 197h4M322 197h5M265 198h4M314 198h4M402 198h4M265 199h4M314 199h4M402 199h4M265 200h4M314 200h4M402 200h4M265 201h4M314 201h4M402 201h4M185 202h5M185 203h5M185 204h5M185 205h5M190 211h4M190 212h4M190 213h4M190 214h4M216 233h5M336 233h4M362 233h4M389 233h4M503 233h5M216 234h5M336 234h4M362 234h4M389 234h4M503 234h5M216 235h5M336 235h4M362 235h4M389 235h4M503 235h5M216 236h5M336 236h4M362 236h4M389 236h4M503 236h5M216 237h5M336 237h4M362 237h4M503 237h5M216 238h5M336 238h4M362 238h4M503 238h5M216 239h5M336 239h4M362 239h4M503 239h5M216 240h5M336 240h4M362 240h4M503 240h5M216 241h5M336 241h4M362 241h4M503 241h5M216 242h5M291 242h5M362 242h4M216 243h5M291 243h5M362 243h4M216 244h5M291 244h5M362 244h4M216 245h5M291 245h5M362 245h4M216 246h5M291 246h5M362 246h4M216 247h5M291 247h5M362 247h4M216 248h5M291 248h5M362 248h4M216 249h5M291 249h5M362 249h4M216 250h5M291 250h5M362 250h4M216 251h5M291 251h5M362 251h4M389 251h4M216 252h5M291 252h5M362 252h4M389 252h4M216 253h5M291 253h5M362 253h4M389 253h4M216 254h5M291 254h5M362 254h4M389 254h4M216 255h5M291 255h5M362 255h4M216 256h5M291 256h5M362 256h4M216 257h5M291 257h5M362 257h4M216 258h5M291 258h5M362 258h4M216 259h5M291 259h5M362 259h4M216 260h5M291 260h5M362 260h4M216 261h5M291 261h5M362 261h4M216 262h5M291 262h5M362 262h4M216 263h5M291 263h5M362 263h4M362 264h4M362 265h4M362 266h4M362 267h4M362 268h4M362 269h4M362 270h4M362 271h4M362 272h4M216 273h5M291 273h5M362 273h4M406 273h5M216 274h5M291 274h5M362 274h4M406 274h5M216 275h5M291 275h5M362 275h4M406 275h5M216 276h5M291 276h5M362 276h4M406 276h5M216 277h5M291 277h5M362 277h4M419 277h5M216 278h5M291 278h5M362 278h4M419 278h5M216 279h5M291 279h5M362 279h4M419 279h5M216 280h5M291 280h5M362 280h4M419 280h5M216 281h5M291 281h5M362 281h4M419 281h5M216 282h5M291 282h5M362 282h4M216 283h5M291 283h5M362 283h4M216 284h5M291 284h5M362 284h4M216 285h5M291 285h5M362 285h4M216 286h5M291 286h5M362 286h4M424 286h4M216 287h5M291 287h5M362 287h4M424 287h4M216 288h5M291 288h5M362 288h4M424 288h4M216 289h5M291 289h5M362 289h4M424 289h4M216 290h5M291 290h5M362 290h4M216 291h5M291 291h5M362 291h4M216 292h5M291 292h5M362 292h4M216 293h5M291 293h5M362 293h4M216 294h5M291 294h5M362 294h4M216 295h5M291 295h5M362 295h4M433 295h4M216 296h5M291 296h5M362 296h4M433 296h4M216 297h5M291 297h5M362 297h4M433 297h4M216 298h5M291 298h5M362 298h4M433 298h4M216 299h5M362 299h4M216 300h5M362 300h4M216 301h5M362 301h4M216 302h5M362 302h4M216 303h5M362 303h4M216 304h5M362 304h4M216 305h5M362 305h4M216 306h5M362 306h4M216 307h5M362 307h4" />
<path stroke="#f8ed2b" d="M225 145h5M362 145h4M225 146h5M362 146h4M225 147h5M362 147h4M225 148h5M362 148h4M62 149h4M62 150h4M62 151h4M62 152h4M371 153h4M371 154h4M371 155h4M371 156h4M371 157h4M269 167h5M406 167h5M269 168h5M406 168h5M269 169h5M406 169h5M269 170h5M406 170h5M221 171h4M358 171h4M221 172h4M358 172h4M221 173h4M358 173h4M221 174h4M358 174h4M221 175h4M358 175h4M194 180h5M194 181h5M194 182h5M194 183h5M190 184h4M221 184h4M358 184h4M190 185h4M221 185h4M358 185h4M190 186h4M221 186h4M358 186h4M190 187h4M221 187h4M358 187h4M190 188h4M221 188h4M358 188h4M57 189h5M269 189h5M406 189h5M57 190h5M269 190h5M406 190h5M57 191h5M269 191h5M406 191h5M57 192h5M269 192h5M406 192h5M27 193h4M194 193h5M27 194h4M194 194h5M27 195h4M194 195h5M27 196h4M194 196h5M27 197h4M194 197h5M35 202h5M49 202h4M66 202h5M199 202h4M234 202h4M371 202h4M35 203h5M49 203h4M66 203h5M199 203h4M234 203h4M371 203h4M35 204h5M49 204h4M66 204h5M199 204h4M234 204h4M371 204h4M35 205h5M49 205h4M66 205h5M199 205h4M234 205h4M371 205h4M27 211h4M57 211h5M27 212h4M57 212h5M27 213h4M57 213h5M27 214h4M57 214h5M428 237h5M428 238h5M428 239h5M428 240h5M428 241h5M402 273h4M402 274h4M402 275h4M402 276h4M402 295h4M402 296h4M402 297h4M402 298h4" />
<path stroke="#f8ec28" d="M230 145h4M366 145h5M230 146h4M366 146h5M230 147h4M366 147h5M230 148h4M366 148h5M199 158h4M199 159h4M199 160h4M199 161h4M13 167h5M296 167h4M13 168h5M296 168h4M13 169h5M296 169h4M13 170h5M296 170h4M190 180h4M190 181h4M190 182h4M190 183h4M31 211h4M53 211h4M230 211h4M322 211h5M366 211h5M31 212h4M53 212h4M230 212h4M322 212h5M366 212h5M31 213h4M53 213h4M230 213h4M322 213h5M366 213h5M31 214h4M53 214h4M230 214h4M322 214h5M366 214h5M389 246h4M389 247h4M389 248h4M389 249h4M389 250h4M380 259h4M380 260h4M380 261h4M380 262h4M380 263h4M389 290h4M389 291h4M389 292h4M389 293h4M389 294h4" />
<path stroke="#f7ec28" d="M247 145h5M291 145h5M384 145h5M247 146h5M291 146h5M384 146h5M247 147h5M291 147h5M384 147h5M247 148h5M291 148h5M384 148h5M261 153h4M397 153h5M261 154h4M397 154h5M261 155h4M397 155h5M261 156h4M397 156h5M261 157h4M397 157h5M57 162h5M190 162h4M212 162h4M291 162h5M349 162h4M57 163h5M190 163h4M212 163h4M291 163h5M349 163h4M57 164h5M190 164h4M212 164h4M291 164h5M349 164h4M57 165h5M190 165h4M212 165h4M291 165h5M349 165h4M57 166h5M190 166h4M212 166h4M291 166h5M349 166h4M66 167h5M66 168h5M66 169h5M66 170h5M212 193h4M349 193h4M212 194h4M349 194h4M212 195h4M349 195h4M212 196h4M349 196h4M212 197h4M349 197h4M66 198h5M66 199h5M66 200h5M66 201h5M261 202h4M397 202h5M261 203h4M397 203h5M261 204h4M397 204h5M261 205h4M397 205h5M247 211h5M384 211h5M247 212h5M384 212h5M247 213h5M384 213h5M247 214h5M384 214h5M384 282h5M384 283h5M384 284h5M384 285h5M380 295h4M380 296h4M380 297h4M380 298h4M384 299h5M384 300h5M384 301h5M384 302h5M384 303h5M419 304h5M419 305h5M419 306h5M419 307h5" />
<path stroke="#f7ed29" d="M252 145h4M389 145h4M252 146h4M389 146h4M252 147h4M389 147h4M252 148h4M389 148h4M18 153h4M35 153h5M199 153h4M18 154h4M35 154h5M199 154h4M18 155h4M35 155h5M199 155h4M18 156h4M35 156h5M199 156h4M18 157h4M35 157h5M199 157h4M53 158h4M212 158h4M349 158h4M53 159h4M212 159h4M349 159h4M53 160h4M212 160h4M349 160h4M53 161h4M212 161h4M349 161h4M13 162h5M27 162h4M305 162h4M13 163h5M27 163h4M305 163h4M13 164h5M27 164h4M305 164h4M13 165h5M27 165h4M305 165h4M13 166h5M27 166h4M305 166h4M256 167h5M393 167h4M256 168h5M393 168h4M256 169h5M393 169h4M256 170h5M393 170h4M305 184h4M318 184h4M305 185h4M318 185h4M305 186h4M318 186h4M305 187h4M318 187h4M305 188h4M318 188h4M256 189h5M256 190h5M256 191h5M256 192h5M212 198h4M349 198h4M212 199h4M349 199h4M212 200h4M349 200h4M212 201h4M349 201h4M318 206h4M318 207h4M318 208h4M318 209h4M318 210h4M225 211h5M252 211h4M362 211h4M389 211h4M225 212h5M252 212h4M362 212h4M389 212h4M225 213h5M252 213h4M362 213h4M389 213h4M225 214h5M252 214h4M362 214h4M389 214h4M397 242h5M411 242h4M397 243h5M411 243h4M397 244h5M411 244h4M397 245h5M411 245h4M402 259h4M402 260h4M402 261h4M402 262h4M402 263h4M419 264h5M419 265h5M419 266h5M419 267h5M389 268h4M428 268h5M389 269h4M428 269h5M389 270h4M428 270h5M389 271h4M428 271h5M389 272h4M428 272h5M433 273h4M433 274h4M433 275h4M433 276h4M375 290h5M375 291h5M375 292h5M375 293h5M375 294h5M424 304h4M424 305h4M424 306h4M424 307h4" />
<path stroke="#f9ec28" d="M22 149h5M22 150h5M22 151h5M22 152h5M252 158h4M389 158h4M252 159h4M389 159h4M252 160h4M389 160h4M252 161h4M389 161h4M185 171h5M185 172h5M185 173h5M185 174h5M185 175h5M13 193h5M13 194h5M13 195h5M13 196h5M13 197h5M252 198h4M389 198h4M252 199h4M389 199h4M252 200h4M389 200h4M252 201h4M389 201h4M18 202h4M18 203h4M18 204h4M18 205h4M22 206h5M62 206h4M22 207h5M62 207h4M22 208h5M62 208h4M22 209h5M62 209h4M22 210h5M62 210h4M419 246h5M433 246h4M419 247h5M433 247h4M419 248h5M433 248h4M419 249h5M433 249h4M419 250h5M433 250h4M389 304h4M389 305h4M389 306h4M389 307h4" />
<path stroke="#f8ec28" d="M27 149h4M27 150h4M27 151h4M27 152h4M296 153h4M296 154h4M296 155h4M296 156h4M296 157h4M212 167h4M349 167h4M212 168h4M349 168h4M212 169h4M349 169h4M212 170h4M349 170h4M309 176h5M309 177h5M309 178h5M309 179h5M124 180h4M124 181h4M124 182h4M124 183h4M212 189h4M349 189h4M212 190h4M349 190h4M212 191h4M349 191h4M212 192h4M349 192h4M66 193h5M314 193h4M66 194h5M314 194h4M66 195h5M314 195h4M66 196h5M314 196h4M66 197h5M314 197h4M322 198h5M322 199h5M322 200h5M322 201h5M397 233h5M397 234h5M397 235h5M397 236h5M380 246h4M380 247h4M380 248h4M380 249h4M380 250h4M380 255h4M380 256h4M380 257h4M380 258h4M406 264h5M406 265h5M406 266h5M406 267h5M384 286h5M384 287h5M384 288h5M384 289h5" />
<path stroke="#f8ec28" d="M31 149h26M84 149h9M128 149h4M150 149h44M230 149h4M238 149h18M287 149h9M327 149h9M366 149h27M31 150h26M84 150h9M128 150h4M150 150h44M230 150h4M238 150h18M287 150h9M327 150h9M366 150h27M31 151h26M84 151h9M128 151h4M150 151h44M230 151h4M238 151h18M287 151h9M327 151h9M366 151h27M31 152h26M84 152h9M128 152h4M150 152h44M230 152h4M238 152h18M287 152h9M327 152h9M366 152h27M27 153h4M57 153h5M84 153h9M128 153h4M150 153h9M190 153h9M221 153h9M256 153h5M287 153h9M327 153h9M358 153h8M393 153h4M27 154h4M57 154h5M84 154h9M128 154h4M150 154h9M190 154h9M221 154h9M256 154h5M287 154h9M327 154h9M358 154h8M393 154h4M27 155h4M57 155h5M84 155h9M128 155h4M150 155h9M190 155h9M221 155h9M256 155h5M287 155h9M327 155h9M358 155h8M393 155h4M27 156h4M57 156h5M84 156h9M128 156h4M150 156h9M190 156h9M221 156h9M256 156h5M287 156h9M327 156h9M358 156h8M393 156h4M27 157h4M57 157h5M84 157h9M128 157h4M150 157h9M190 157h9M221 157h9M256 157h5M287 157h9M327 157h9M358 157h8M393 157h4M22 158h5M62 158h4M84 158h9M128 158h4M150 158h9M194 158h5M221 158h4M261 158h4M287 158h13M327 158h9M358 158h4M397 158h5M22 159h5M62 159h4M84 159h9M128 159h4M150 159h9M194 159h5M221 159h4M261 159h4M287 159h13M327 159h9M358 159h4M397 159h5M22 160h5M62 160h4M84 160h9M128 160h4M150 160h9M194 160h5M221 160h4M261 160h4M287 160h13M327 160h9M358 160h4M397 160h5M22 161h5M62 161h4M84 161h9M128 161h4M150 161h9M194 161h5M221 161h4M261 161h4M287 161h13M327 161h9M358 161h4M397 161h5M18 162h9M62 162h4M84 162h9M128 162h4M150 162h9M194 162h5M216 162h5M261 162h4M287 162h4M327 162h9M353 162h5M397 162h5M18 163h9M62 163h4M84 163h9M128 163h4M150 163h9M194 163h5M216 163h5M261 163h4M287 163h4M327 163h9M353 163h5M397 163h5M18 164h9M62 164h4M84 164h9M128 164h4M150 164h9M194 164h5M216 164h5M261 164h4M287 164h4M327 164h9M353 164h5M397 164h5M18 165h9M62 165h4M84 165h9M128 165h4M150 165h9M194 165h5M216 165h5M261 165h4M287 165h4M327 165h9M353 165h5M397 165h5M18 166h9M62 166h4M84 166h9M128 166h4M150 166h9M194 166h5M216 166h5M261 166h4M287 166h4M327 166h9M353 166h5M397 166h5M18 167h4M84 167h9M128 167h4M150 167h9M194 167h5M216 167h5M261 167h8M287 167h4M300 167h5M327 167h9M353 167h5M397 167h9M18 168h4M84 168h9M128 168h4M150 168h9M194 168h5M216 168h5M261 168h8M287 168h4M300 168h5M327 168h9M353 168h5M397 168h9M18 169h4M84 169h9M128 169h4M150 169h9M194 169h5M216 169h5M261 169h8M287 169h4M300 169h5M327 169h9M353 169h5M397 169h9M18 170h4M84 170h9M128 170h4M150 170h9M194 170h5M216 170h5M261 170h8M287 170h4M300 170h5M327 170h9M353 170h5M397 170h9M18 171h4M84 171h9M128 171h4M150 171h9M194 171h5M212 171h9M261 171h8M287 171h4M305 171h4M327 171h9M349 171h9M397 171h9M18 172h4M84 172h9M128 172h4M150 172h9M194 172h5M212 172h9M261 172h8M287 172h4M305 172h4M327 172h9M349 172h9M397 172h9M18 173h4M84 173h9M128 173h4M150 173h9M194 173h5M212 173h9M261 173h8M287 173h4M305 173h4M327 173h9M349 173h9M397 173h9M18 174h4M84 174h9M128 174h4M150 174h9M194 174h5M212 174h9M261 174h8M287 174h4M305 174h4M327 174h9M349 174h9M397 174h9M18 175h4M84 175h9M128 175h4M150 175h9M194 175h5M212 175h9M261 175h8M287 175h4M305 175h4M327 175h9M349 175h9M397 175h9M18 176h4M84 176h48M150 176h9M185 176h9M212 176h9M265 176h4M287 176h4M305 176h4M327 176h9M349 176h9M402 176h4M18 177h4M84 177h48M150 177h9M185 177h9M212 177h9M265 177h4M287 177h4M305 177h4M327 177h9M349 177h9M402 177h4M18 178h4M84 178h48M150 178h9M185 178h9M212 178h9M265 178h4M287 178h4M305 178h4M327 178h9M349 178h9M402 178h4M18 179h4M84 179h48M150 179h9M185 179h9M212 179h9M265 179h4M287 179h4M305 179h4M327 179h9M349 179h9M402 179h4M18 180h4M84 180h9M128 180h4M150 180h35M212 180h4M265 180h4M287 180h4M309 180h5M327 180h9M349 180h9M402 180h4M18 181h4M84 181h9M128 181h4M150 181h35M212 181h4M265 181h4M287 181h4M309 181h5M327 181h9M349 181h9M402 181h4M18 182h4M84 182h9M128 182h4M150 182h35M212 182h4M265 182h4M287 182h4M309 182h5M327 182h9M349 182h9M402 182h4M18 183h4M84 183h9M128 183h4M150 183h35M212 183h4M265 183h4M287 183h4M309 183h5M327 183h9M349 183h9M402 183h4M18 184h4M84 184h9M128 184h4M150 184h9M181 184h4M212 184h9M261 184h8M287 184h4M327 184h9M349 184h9M397 184h9M18 185h4M84 185h9M128 185h4M150 185h9M181 185h4M212 185h9M261 185h8M287 185h4M327 185h9M349 185h9M397 185h9M18 186h4M84 186h9M128 186h4M150 186h9M181 186h4M212 186h9M261 186h8M287 186h4M327 186h9M349 186h9M397 186h9M18 187h4M84 187h9M128 187h4M150 187h9M181 187h4M212 187h9M261 187h8M287 187h4M327 187h9M349 187h9M397 187h9M18 188h4M84 188h9M128 188h4M150 188h9M181 188h4M212 188h9M261 188h8M287 188h4M327 188h9M349 188h9M397 188h9M18 189h4M62 189h9M84 189h9M128 189h4M150 189h9M185 189h5M216 189h5M261 189h8M287 189h4M314 189h4M327 189h9M353 189h5M397 189h9M18 190h4M62 190h9M84 190h9M128 190h4M150 190h9M185 190h5M216 190h5M261 190h8M287 190h4M314 190h4M327 190h9M353 190h5M397 190h9M18 191h4M62 191h9M84 191h9M128 191h4M150 191h9M185 191h5M216 191h5M261 191h8M287 191h4M314 191h4M327 191h9M353 191h5M397 191h9M18 192h4M62 192h9M84 192h9M128 192h4M150 192h9M185 192h5M216 192h5M261 192h8M287 192h4M314 192h4M327 192h9M353 192h5M397 192h9M18 193h4M62 193h4M84 193h9M128 193h4M150 193h9M185 193h5M216 193h5M261 193h4M287 193h4M318 193h4M327 193h9M353 193h5M397 193h5M18 194h4M62 194h4M84 194h9M128 194h4M150 194h9M185 194h5M216 194h5M261 194h4M287 194h4M318 194h4M327 194h9M353 194h5M397 194h5M18 195h4M62 195h4M84 195h9M128 195h4M150 195h9M185 195h5M216 195h5M261 195h4M287 195h4M318 195h4M327 195h9M353 195h5M397 195h5M18 196h4M62 196h4M84 196h9M128 196h4M150 196h9M185 196h5M216 196h5M261 196h4M287 196h4M318 196h4M327 196h9M353 196h5M397 196h5M18 197h4M62 197h4M84 197h9M128 197h4M150 197h9M185 197h5M216 197h5M261 197h4M287 197h4M318 197h4M327 197h9M353 197h5M397 197h5M22 198h5M62 198h4M84 198h9M128 198h4M150 198h9M190 198h4M221 198h4M261 198h4M287 198h4M318 198h4M327 198h9M358 198h4M397 198h5M22 199h5M62 199h4M84 199h9M128 199h4M150 199h9M190 199h4M221 199h4M261 199h4M287 199h4M318 199h4M327 199h9M358 199h4M397 199h5M22 200h5M62 200h4M84 200h9M128 200h4M150 200h9M190 200h4M221 200h4M261 200h4M287 200h4M318 200h4M327 200h9M358 200h4M397 200h5M22 201h5M62 201h4M84 201h9M128 201h4M150 201h9M190 201h4M221 201h4M261 201h4M287 201h4M318 201h4M327 201h9M358 201h4M397 201h5M27 202h4M57 202h5M84 202h9M128 202h4M150 202h9M190 202h4M221 202h9M256 202h5M287 202h4M322 202h14M358 202h8M393 202h4M27 203h4M57 203h5M84 203h9M128 203h4M150 203h9M190 203h4M221 203h9M256 203h5M287 203h4M322 203h14M358 203h8M393 203h4M27 204h4M57 204h5M84 204h9M128 204h4M150 204h9M190 204h4M221 204h9M256 204h5M287 204h4M322 204h14M358 204h8M393 204h4M27 205h4M57 205h5M84 205h9M128 205h4M150 205h9M190 205h4M221 205h9M256 205h5M287 205h4M322 205h14M358 205h8M393 205h4M31 206h9M49 206h8M84 206h9M128 206h4M150 206h9M194 206h5M230 206h26M287 206h4M322 206h14M366 206h27M31 207h9M49 207h8M84 207h9M128 207h4M150 207h9M194 207h5M230 207h26M287 207h4M322 207h14M366 207h27M31 208h9M49 208h8M84 208h9M128 208h4M150 208h9M194 208h5M230 208h26M287 208h4M322 208h14M366 208h27M31 209h9M49 209h8M84 209h9M128 209h4M150 209h9M194 209h5M230 209h26M287 209h4M322 209h14M366 209h27M31 210h9M49 210h8M84 210h9M128 210h4M150 210h9M194 210h5M230 210h26M287 210h4M322 210h14M366 210h27M208 233h8M256 233h9M283 233h53M353 233h9M402 233h9M446 233h57M208 234h8M256 234h9M283 234h53M353 234h9M402 234h9M446 234h57M208 235h8M256 235h9M283 235h53M353 235h9M402 235h9M446 235h57M208 236h8M256 236h9M283 236h53M353 236h9M402 236h9M446 236h57M208 237h8M256 237h9M283 237h53M353 237h9M389 237h35M446 237h57M208 238h8M256 238h9M283 238h53M353 238h9M389 238h35M446 238h57M208 239h8M256 239h9M283 239h53M353 239h9M389 239h35M446 239h57M208 240h8M256 240h9M283 240h53M353 240h9M389 240h35M446 240h57M208 241h8M256 241h9M283 241h53M353 241h9M389 241h35M446 241h57M208 242h8M256 242h9M283 242h8M353 242h9M384 242h9M424 242h4M472 242h5M208 243h8M256 243h9M283 243h8M353 243h9M384 243h9M424 243h4M472 243h5M208 244h8M256 244h9M283 244h8M353 244h9M384 244h9M424 244h4M472 244h5M208 245h8M256 245h9M283 245h8M353 245h9M384 245h9M424 245h4M472 245h5M208 246h8M256 246h9M283 246h8M353 246h9M384 246h5M424 246h9M472 246h5M208 247h8M256 247h9M283 247h8M353 247h9M384 247h5M424 247h9M472 247h5M208 248h8M256 248h9M283 248h8M353 248h9M384 248h5M424 248h9M472 248h5M208 249h8M256 249h9M283 249h8M353 249h9M384 249h5M424 249h9M472 249h5M208 250h8M256 250h9M283 250h8M353 250h9M384 250h5M424 250h9M472 250h5M208 251h8M256 251h9M283 251h8M353 251h9M380 251h9M428 251h5M472 251h5M208 252h8M256 252h9M283 252h8M353 252h9M380 252h9M428 252h5M472 252h5M208 253h8M256 253h9M283 253h8M353 253h9M380 253h9M428 253h5M472 253h5M208 254h8M256 254h9M283 254h8M353 254h9M380 254h9M428 254h5M472 254h5M208 255h8M256 255h9M283 255h8M353 255h9M384 255h5M472 255h5M208 256h8M256 256h9M283 256h8M353 256h9M384 256h5M472 256h5M208 257h8M256 257h9M283 257h8M353 257h9M384 257h5M472 257h5M208 258h8M256 258h9M283 258h8M353 258h9M384 258h5M472 258h5M208 259h8M256 259h9M283 259h8M353 259h9M384 259h9M472 259h5M208 260h8M256 260h9M283 260h8M353 260h9M384 260h9M472 260h5M208 261h8M256 261h9M283 261h8M353 261h9M384 261h9M472 261h5M208 262h8M256 262h9M283 262h8M353 262h9M384 262h9M472 262h5M208 263h8M256 263h9M283 263h8M353 263h9M384 263h9M472 263h5M208 264h57M283 264h48M353 264h9M389 264h17M472 264h5M208 265h57M283 265h48M353 265h9M389 265h17M472 265h5M208 266h57M283 266h48M353 266h9M389 266h17M472 266h5M208 267h57M283 267h48M353 267h9M389 267h17M472 267h5M208 268h57M283 268h48M353 268h9M402 268h22M472 268h5M208 269h57M283 269h48M353 269h9M402 269h22M472 269h5M208 270h57M283 270h48M353 270h9M402 270h22M472 270h5M208 271h57M283 271h48M353 271h9M402 271h22M472 271h5M208 272h57M283 272h48M353 272h9M402 272h22M472 272h5M208 273h8M256 273h9M283 273h8M353 273h9M419 273h9M472 273h5M208 274h8M256 274h9M283 274h8M353 274h9M419 274h9M472 274h5M208 275h8M256 275h9M283 275h8M353 275h9M419 275h9M472 275h5M208 276h8M256 276h9M283 276h8M353 276h9M419 276h9M472 276h5M208 277h8M256 277h9M283 277h8M353 277h9M428 277h5M472 277h5M208 278h8M256 278h9M283 278h8M353 278h9M428 278h5M472 278h5M208 279h8M256 279h9M283 279h8M353 279h9M428 279h5M472 279h5M208 280h8M256 280h9M283 280h8M353 280h9M428 280h5M472 280h5M208 281h8M256 281h9M283 281h8M353 281h9M428 281h5M472 281h5M208 282h8M256 282h9M283 282h8M353 282h9M380 282h4M428 282h9M472 282h5M208 283h8M256 283h9M283 283h8M353 283h9M380 283h4M428 283h9M472 283h5M208 284h8M256 284h9M283 284h8M353 284h9M380 284h4M428 284h9M472 284h5M208 285h8M256 285h9M283 285h8M353 285h9M380 285h4M428 285h9M472 285h5M208 286h8M256 286h9M283 286h8M353 286h9M380 286h4M428 286h9M472 286h5M208 287h8M256 287h9M283 287h8M353 287h9M380 287h4M428 287h9M472 287h5M208 288h8M256 288h9M283 288h8M353 288h9M380 288h4M428 288h9M472 288h5M208 289h8M256 289h9M283 289h8M353 289h9M380 289h4M428 289h9M472 289h5M208 290h8M256 290h9M283 290h8M353 290h9M380 290h9M428 290h5M472 290h5M208 291h8M256 291h9M283 291h8M353 291h9M380 291h9M428 291h5M472 291h5M208 292h8M256 292h9M283 292h8M353 292h9M380 292h9M428 292h5M472 292h5M208 293h8M256 293h9M283 293h8M353 293h9M380 293h9M428 293h5M472 293h5M208 294h8M256 294h9M283 294h8M353 294h9M380 294h9M428 294h5M472 294h5M208 295h8M256 295h9M283 295h8M353 295h9M384 295h9M424 295h9M472 295h5M208 296h8M256 296h9M283 296h8M353 296h9M384 296h9M424 296h9M472 296h5M208 297h8M256 297h9M283 297h8M353 297h9M384 297h9M424 297h9M472 297h5M208 298h8M256 298h9M283 298h8M353 298h9M384 298h9M424 298h9M472 298h5M208 299h8M256 299h9M283 299h53M353 299h9M389 299h35M472 299h5M208 300h8M256 300h9M283 300h53M353 300h9M389 300h35M472 300h5M208 301h8M256 301h9M283 301h53M353 301h9M389 301h35M472 301h5M208 302h8M256 302h9M283 302h53M353 302h9M389 302h35M472 302h5M208 303h8M256 303h9M283 303h53M353 303h9M389 303h35M472 303h5M208 304h8M256 304h9M283 304h53M353 304h9M402 304h13M472 304h5M208 305h8M256 305h9M283 305h53M353 305h9M402 305h13M472 305h5M208 306h8M256 306h9M283 306h53M353 306h9M402 306h13M472 306h5M208 307h8M256 307h9M283 307h53M353 307h9M402 307h13M472 307h5" />
<path stroke="#f7eb28" d="M57 149h5M57 150h5M57 151h5M57 152h5M53 153h4M53 154h4M53 155h4M53 156h4M53 157h4M190 158h4M190 159h4M190 160h4M190 161h4M300 171h5M300 172h5M300 173h5M300 174h5M300 175h5M44 206h5M44 207h5M44 208h5M44 209h5M44 210h5M424 237h4M424 238h4M424 239h4M424 240h4M424 241h4M424 251h4M424 252h4M424 253h4M424 254h4M397 268h5M397 269h5M397 270h5M397 271h5M397 272h5M415 273h4M415 274h4M415 275h4M415 276h4M397 304h5M415 304h4M397 305h5M415 305h4M397 306h5M415 306h4M397 307h5M415 307h4" />
<path stroke="#f8ec29" d="M124 149h4M132 149h5M256 149h5M283 149h4M393 149h4M124 150h4M132 150h5M256 150h5M283 150h4M393 150h4M124 151h4M132 151h5M256 151h5M283 151h4M393 151h4M124 152h4M132 152h5M256 152h5M283 152h4M393 152h4M124 153h4M132 153h5M230 153h4M283 153h4M366 153h5M124 154h4M132 154h5M230 154h4M283 154h4M366 154h5M124 155h4M132 155h5M230 155h4M283 155h4M366 155h5M124 156h4M132 156h5M230 156h4M283 156h4M366 156h5M124 157h4M132 157h5M230 157h4M283 157h4M366 157h5M124 158h4M132 158h5M283 158h4M300 158h5M124 159h4M132 159h5M283 159h4M300 159h5M124 160h4M132 160h5M283 160h4M300 160h5M124 161h4M132 161h5M283 161h4M300 161h5M124 162h4M132 162h5M199 162h4M256 162h5M283 162h4M393 162h4M124 163h4M132 163h5M199 163h4M256 163h5M283 163h4M393 163h4M124 164h4M132 164h5M199 164h4M256 164h5M283 164h4M393 164h4M124 165h4M132 165h5M199 165h4M256 165h5M283 165h4M393 165h4M124 166h4M132 166h5M199 166h4M256 166h5M283 166h4M393 166h4M124 167h4M132 167h5M199 167h4M283 167h4M291 167h5M124 168h4M132 168h5M199 168h4M283 168h4M291 168h5M124 169h4M132 169h5M199 169h4M283 169h4M291 169h5M124 170h4M132 170h5M199 170h4M283 170h4M291 170h5M22 171h5M132 171h5M283 171h4M291 171h5M22 172h5M132 172h5M283 172h4M291 172h5M22 173h5M132 173h5M283 173h4M291 173h5M22 174h5M132 174h5M283 174h4M291 174h5M22 175h5M132 175h5M283 175h4M291 175h5M22 176h5M132 176h5M283 176h4M291 176h5M22 177h5M132 177h5M283 177h4M291 177h5M22 178h5M132 178h5M283 178h4M291 178h5M22 179h5M132 179h5M283 179h4M291 179h5M22 180h5M132 180h5M283 180h4M291 180h5M314 180h4M22 181h5M132 181h5M283 181h4M291 181h5M314 181h4M22 182h5M132 182h5M283 182h4M291 182h5M314 182h4M22 183h5M132 183h5M283 183h4M291 183h5M314 183h4M22 184h5M62 184h9M124 184h4M132 184h5M283 184h4M291 184h5M22 185h5M62 185h9M124 185h4M132 185h5M283 185h4M291 185h5M22 186h5M62 186h9M124 186h4M132 186h5M283 186h4M291 186h5M22 187h5M62 187h9M124 187h4M132 187h5M283 187h4M291 187h5M22 188h5M62 188h9M124 188h4M132 188h5M283 188h4M291 188h5M13 189h5M124 189h4M132 189h5M190 189h4M283 189h4M291 189h5M309 189h5M13 190h5M124 190h4M132 190h5M190 190h4M283 190h4M291 190h5M309 190h5M13 191h5M124 191h4M132 191h5M190 191h4M283 191h4M291 191h5M309 191h5M13 192h5M124 192h4M132 192h5M190 192h4M283 192h4M291 192h5M309 192h5M124 193h4M132 193h5M256 193h5M283 193h4M291 193h5M124 194h4M132 194h5M256 194h5M283 194h4M291 194h5M124 195h4M132 195h5M256 195h5M283 195h4M291 195h5M124 196h4M132 196h5M256 196h5M283 196h4M291 196h5M124 197h4M132 197h5M256 197h5M283 197h4M291 197h5M124 198h4M132 198h5M194 198h5M283 198h4M291 198h5M124 199h4M132 199h5M194 199h5M283 199h4M291 199h5M124 200h4M132 200h5M194 200h5M283 200h4M291 200h5M124 201h4M132 201h5M194 201h5M283 201h4M291 201h5M124 202h4M132 202h5M230 202h4M283 202h4M291 202h5M366 202h5M124 203h4M132 203h5M230 203h4M283 203h4M291 203h5M366 203h5M124 204h4M132 204h5M230 204h4M283 204h4M291 204h5M366 204h5M124 205h4M132 205h5M230 205h4M283 205h4M291 205h5M366 205h5M124 206h4M132 206h5M199 206h4M256 206h5M283 206h4M291 206h5M393 206h4M124 207h4M132 207h5M199 207h4M256 207h5M283 207h4M291 207h5M393 207h4M124 208h4M132 208h5M199 208h4M256 208h5M283 208h4M291 208h5M393 208h4M124 209h4M132 209h5M199 209h4M256 209h5M283 209h4M291 209h5M393 209h4M124 210h4M132 210h5M199 210h4M256 210h5M283 210h4M291 210h5M393 210h4M265 233h4M442 233h4M265 234h4M442 234h4M265 235h4M442 235h4M265 236h4M442 236h4M265 237h4M442 237h4M265 238h4M442 238h4M265 239h4M442 239h4M265 240h4M442 240h4M265 241h4M442 241h4M265 242h4M380 242h4M393 242h4M477 242h4M265 243h4M380 243h4M393 243h4M477 243h4M265 244h4M380 244h4M393 244h4M477 244h4M265 245h4M380 245h4M393 245h4M477 245h4M265 246h4M477 246h4M265 247h4M477 247h4M265 248h4M477 248h4M265 249h4M477 249h4M265 250h4M477 250h4M265 251h4M477 251h4M265 252h4M477 252h4M265 253h4M477 253h4M265 254h4M477 254h4M265 255h4M389 255h4M477 255h4M265 256h4M389 256h4M477 256h4M265 257h4M389 257h4M477 257h4M265 258h4M389 258h4M477 258h4M265 259h4M477 259h4M265 260h4M477 260h4M265 261h4M477 261h4M265 262h4M477 262h4M265 263h4M477 263h4M265 264h4M384 264h5M477 264h4M265 265h4M384 265h5M477 265h4M265 266h4M384 266h5M477 266h4M265 267h4M384 267h5M477 267h4M265 268h4M393 268h4M477 268h4M265 269h4M393 269h4M477 269h4M265 270h4M393 270h4M477 270h4M265 271h4M393 271h4M477 271h4M265 272h4M393 272h4M477 272h4M265 273h4M411 273h4M477 273h4M265 274h4M411 274h4M477 274h4M265 275h4M411 275h4M477 275h4M265 276h4M411 276h4M477 276h4M265 277h4M477 277h4M265 278h4M477 278h4M265 279h4M477 279h4M265 280h4M477 280h4M265 281h4M477 281h4M265 282h4M375 282h5M477 282h4M265 283h4M375 283h5M477 283h4M265 284h4M375 284h5M477 284h4M265 285h4M375 285h5M477 285h4M265 286h4M375 286h5M477 286h4M265 287h4M375 287h5M477 287h4M265 288h4M375 288h5M477 288h4M265 289h4M375 289h5M477 289h4M265 290h4M477 290h4M265 291h4M477 291h4M265 292h4M477 292h4M265 293h4M477 293h4M265 294h4M477 294h4M265 295h4M477 295h4M265 296h4M477 296h4M265 297h4M477 297h4M265 298h4M477 298h4M265 299h4M477 299h4M265 300h4M477 300h4M265 301h4M477 301h4M265 302h4M477 302h4M265 303h4M477 303h4M265 304h4M477 304h4M265 305h4M477 305h4M265 306h4M477 306h4M265 307h4M477 307h4" />
<path stroke="#f8eb28" d="M225 149h5M362 149h4M225 150h5M362 150h4M225 151h5M362 151h4M225 152h5M362 152h4M22 153h5M252 153h4M389 153h4M22 154h5M252 154h4M389 154h4M22 155h5M252 155h4M389 155h4M22 156h5M252 156h4M389 156h4M22 157h5M252 157h4M389 157h4M57 158h5M216 158h5M256 158h5M353 158h5M393 158h4M57 159h5M216 159h5M256 159h5M353 159h5M393 159h4M57 160h5M216 160h5M256 160h5M353 160h5M393 160h4M57 161h5M216 161h5M256 161h5M353 161h5M393 161h4M296 162h9M296 163h9M296 164h9M296 165h9M296 166h9M190 171h4M190 172h4M190 173h4M190 174h4M190 175h4M185 180h5M185 181h5M185 182h5M185 183h5M185 184h5M309 184h9M185 185h5M309 185h9M185 186h5M309 186h9M185 187h5M309 187h9M185 188h5M309 188h9M22 193h5M190 193h4M22 194h5M190 194h4M22 195h5M190 195h4M22 196h5M190 196h4M22 197h5M190 197h4M216 198h5M256 198h5M353 198h5M393 198h4M216 199h5M256 199h5M353 199h5M393 199h4M216 200h5M256 200h5M353 200h5M393 200h4M216 201h5M256 201h5M353 201h5M393 201h4M22 202h5M62 202h4M194 202h5M252 202h4M389 202h4M22 203h5M62 203h4M194 203h5M252 203h4M389 203h4M22 204h5M62 204h4M194 204h5M252 204h4M389 204h4M22 205h5M62 205h4M194 205h5M252 205h4M389 205h4M27 206h4M57 206h5M225 206h5M362 206h4M27 207h4M57 207h5M225 207h5M362 207h4M27 208h4M57 208h5M225 208h5M362 208h4M27 209h4M57 209h5M225 209h5M362 209h4M27 210h4M57 210h5M225 210h5M362 210h4M40 211h9M40 212h9M40 213h9M40 214h9M411 233h4M411 234h4M411 235h4M411 236h4M419 242h5M419 243h5M419 244h5M419 245h5M428 273h5M428 274h5M428 275h5M428 276h5M424 277h4M424 278h4M424 279h4M424 280h4M424 281h4M424 299h4M424 300h4M424 301h4M424 302h4M424 303h4" />
<path stroke="#ed75dc" d="M234 149h4M234 150h4M234 151h4M234 152h4M234 153h4M243 153h4M234 154h4M243 154h4M234 155h4M243 155h4M234 156h4M243 156h4M234 157h4M243 157h4M230 158h4M238 158h5M247 158h5M230 159h4M238 159h5M247 159h5M230 160h4M238 160h5M247 160h5M230 161h4M238 161h5M247 161h5M247 162h9M247 163h9M247 164h9M247 165h9M247 166h9M225 167h5M243 167h4M252 167h4M225 168h5M243 168h4M252 168h4M225 169h5M243 169h4M252 169h4M225 170h5M243 170h4M252 170h4M225 176h5M243 176h4M256 176h5M225 177h5M243 177h4M256 177h5M225 178h5M243 178h4M256 178h5M225 179h5M243 179h4M256 179h5M221 180h9M221 181h9M221 182h9M221 183h9M256 184h5M256 185h5M256 186h5M256 187h5M256 188h5M238 189h5M252 189h4M238 190h5M252 190h4M238 191h5M252 191h4M238 192h5M252 192h4M225 193h5M225 194h5M225 195h5M225 196h5M225 197h5M230 198h8M247 198h5M230 199h8M247 199h5M230 200h8M247 200h5M230 201h8M247 201h5M238 202h9M238 203h9M238 204h9M238 205h9" />
<path stroke="#fb83c6" d="M238 153h5M238 154h5M238 155h5M238 156h5M238 157h5M234 158h4M234 159h4M234 160h4M234 161h4M225 162h9M225 163h9M225 164h9M225 165h9M225 166h9M225 171h5M234 171h9M225 172h5M234 172h9M225 173h5M234 173h9M225 174h5M234 174h9M225 175h5M234 175h9M230 176h8M252 176h4M230 177h8M252 177h4M230 178h8M252 178h4M230 179h8M252 179h4M230 180h4M230 181h4M230 182h4M230 183h4M230 184h8M230 185h8M230 186h8M230 187h8M230 188h8M230 189h4M230 190h4M230 191h4M230 192h4" />
<path stroke="#000000" d="M375 153h5M375 154h5M375 155h5M375 156h5M375 157h5M371 158h13M371 159h13M371 160h13M371 161h13M375 162h5M375 163h5M375 164h5M375 165h5M375 166h5M375 167h5M375 168h5M375 169h5M375 170h5M375 171h5M375 172h5M375 173h5M375 174h5M375 175h5M375 176h5M375 177h5M375 178h5M375 179h5" />
<path stroke="#fd85c3" d="M243 158h4M243 159h4M243 160h4M243 161h4" />
<path stroke="#f2f2f2" d="M366 158h5M384 158h5M366 159h5M384 159h5M366 160h5M384 160h5M366 161h5M384 161h5M362 162h13M380 162h13M362 163h13M380 163h13M362 164h13M380 164h13M362 165h13M380 165h13M362 166h13M380 166h13M362 167h13M380 167h13M362 168h13M380 168h13M362 169h13M380 169h13M362 170h13M380 170h13M362 171h13M380 171h17M362 172h13M380 172h17M362 173h13M380 173h17M362 174h13M380 174h17M362 175h13M380 175h17M358 176h17M380 176h9M393 176h4M358 177h17M380 177h9M393 177h4M358 178h17M380 178h9M393 178h4M358 179h17M380 179h9M393 179h4M358 180h17M358 181h17M358 182h17M358 183h17M362 184h27M393 184h4M362 185h27M393 185h4M362 186h27M393 186h4M362 187h27M393 187h4M362 188h27M393 188h4M362 189h35M362 190h35M362 191h35M362 192h35M362 193h31M362 194h31M362 195h31M362 196h31M362 197h31M366 198h23M366 199h23M366 200h23M366 201h23M375 202h9M375 203h9M375 204h9M375 205h9" />
<path stroke="#b069d2" d="M234 162h4M234 163h4M234 164h4M234 165h4M234 166h4M230 167h4M238 167h5M247 167h5M230 168h4M238 168h5M247 168h5M230 169h4M238 169h5M247 169h5M230 170h4M238 170h5M247 170h5M243 171h4M252 171h4M243 172h4M252 172h4M243 173h4M252 173h4M243 174h4M252 174h4M243 175h4M252 175h4M221 176h4M221 177h4M221 178h4M221 179h4M256 180h5M256 181h5M256 182h5M256 183h5M225 184h5M225 185h5M225 186h5M225 187h5M225 188h5M225 189h5M225 190h5M225 191h5M225 192h5M230 193h4M238 193h5M230 194h4M238 194h5M230 195h4M238 195h5M230 196h4M238 196h5M230 197h4M238 197h5" />
<path stroke="#ffffff" d="M238 162h5M238 163h5M238 164h5M238 165h5M238 166h5M234 167h4M234 168h4M234 169h4M234 170h4M230 171h4M230 172h4M230 173h4M230 174h4M230 175h4M150 246h5M150 247h5M150 248h5M150 249h5M150 250h5M150 251h5M150 252h5M150 253h5M150 254h5M150 255h5M150 256h5M150 257h5M150 258h5M150 259h5M150 260h5M150 261h5M150 262h5M150 263h5M146 264h9M146 265h9M146 266h9M146 267h9M146 268h4M146 269h4M146 270h4M146 271h4M146 272h4" />
<path stroke="#f67ecd" d="M243 162h4M243 163h4M243 164h4M243 165h4M243 166h4" />
<path stroke="#f8ed28" d="M221 167h4M358 167h4M221 168h4M358 168h4M221 169h4M358 169h4M221 170h4M358 170h4M199 171h4M199 172h4M199 173h4M199 174h4M199 175h4M221 189h4M358 189h4M221 190h4M358 190h4M221 191h4M358 191h4M221 192h4M358 192h4M57 193h5M57 194h5M57 195h5M57 196h5M57 197h5M424 282h4M424 283h4M424 284h4M424 285h4M397 295h5M415 295h4M397 296h5M415 296h4M397 297h5M415 297h4M397 298h5M415 298h4" />
<path stroke="#565742" d="M247 171h5M247 172h5M247 173h5M247 174h5M247 175h5M247 176h5M247 177h5M247 178h5M247 179h5M243 180h13M243 181h13M243 182h13M243 183h13M247 189h5M247 190h5M247 191h5M247 192h5M234 193h4M243 193h4M234 194h4M243 194h4M234 195h4M243 195h4M234 196h4M243 196h4M234 197h4M243 197h4M238 198h5M238 199h5M238 200h5M238 201h5" />
<path stroke="#ff87c0" d="M256 171h5M256 172h5M256 173h5M256 174h5M256 175h5" />
<path stroke="#d379a5" d="M238 176h5M238 177h5M238 178h5M238 179h5M234 180h4M234 181h4M234 182h4M234 183h4" />
<path stroke="#fad44d" d="M261 176h4M261 177h4M261 178h4M261 179h4" />
<path stroke="#3d3d3d" d="M389 176h4M389 177h4M389 178h4M389 179h4M380 180h17M380 181h17M380 182h17M380 183h17M389 184h4M389 185h4M389 186h4M389 187h4M389 188h4" />
<path stroke="#e7d348" d="M216 180h5M216 181h5M216 182h5M216 183h5" />
<path stroke="#d278a6" d="M238 180h5M238 181h5M238 182h5M238 183h5M238 184h5M238 185h5M238 186h5M238 187h5M238 188h5" />
<path stroke="#797979" d="M375 180h5M375 181h5M375 182h5M375 183h5" />
<path stroke="#886175" d="M243 184h9M243 185h9M243 186h9M243 187h9M243 188h9M243 189h4M243 190h4M243 191h4M243 192h4" />
<path stroke="#916a67" d="M252 184h4M252 185h4M252 186h4M252 187h4M252 188h4" />
<path stroke="#d973d9" d="M234 189h4M234 190h4M234 191h4M234 192h4" />
<path stroke="#c46dd5" d="M247 193h9M247 194h9M247 195h9M247 196h9M247 197h9" />
<path stroke="#f8ec29" d="M393 193h4M393 194h4M393 195h4M393 196h4M393 197h4" />
<path stroke="#42533f" d="M243 198h4M243 199h4M243 200h4M243 201h4" />
</svg>