<svg xmlns="http://www.w3.org/2000/svg" viewBox="0 -0.5 512 512" shape-rendering="crispEdges">
<metadata>Made with Pix2d https://pix2d.com</metadata>
<path stroke="#363760" d="M0 0h28M33 0h471M509 0h3M0 1h28M33 1h471M509 1h3M0 2h28M33 2h471M509 2h3M0 3h504M509 3h3M0 4h512M0 5h171M176 5h336M0 6h171M176 6h336M0 7h171M176 7h336M0 8h171M176 8h336M0 9h171M176 9h238M419 9h58M482 9h30M0 10h414M419 10h58M482 10h30M0 11h414M419 11h58M482 11h30M0 12h414M419 12h58M482 12h30M0 13h307M312 13h102M419 13h58M482 13h30M0 14h307M312 14h200M0 15h307M312 15h200M0 16h307M312 16h200M0 17h307M312 17h200M0 18h512M0 19h512M0 20h512M0 21h512M0 22h512M0 23h512M0 24h512M0 25h512M0 26h512M0 27h512M1 28h122M128 28h384M1 29h122M128 29h384M1 30h122M128 30h127M260 30h252M1 31h122M128 31h127M260 31h252M1 32h122M128 32h127M260 32h252M0 33h123M128 33h127M260 33h252M0 34h255M260 34h252M0 35h512M0 36h512M0 37h512M0 38h512M0 39h512M0 40h77M82 40h430M0 41h77M82 41h430M0 42h77M82 42h355M442 42h70M0 43h77M82 43h355M442 43h70M0 44h77M82 44h355M442 44h70M0 45h437M442 45h70M0 46h437M442 46h70M0 47h512M0 48h154M159 48h353M0 49h154M159 49h353M0 50h154M159 50h353M0 51h154M159 51h353M0 52h154M159 52h353M0 53h512M0 54h512M0 55h215M220 55h292M0 56h215M220 56h292M0 57h215M220 57h292M0 58h215M220 58h292M0 59h215M220 59h292M0 60h512M0 61h512M0 62h512M0 63h512M0 64h512M0 65h512M0 66h512M0 67h512M0 68h512M0 69h512M0 70h512M0 71h512M0 72h512M0 73h512M0 74h512M0 75h512M0 76h512M0 77h512M0 78h512M0 79h512M0 80h512M0 81h512M0 82h512M0 83h512M0 84h512M0 85h512M0 86h512M0 87h512M0 88h512M0 89h512M0 90h512M0 91h512M0 92h512M0 93h512M0 94h512M0 95h512M0 96h512M0 97h512M0 98h512M0 99h512M0 100h298M303 100h209M0 101h298M303 101h97M405 101h107M0 102h298M303 102h97M405 102h107M0 103h298M303 103h97M405 103h107M0 104h298M303 104h97M405 104h107M0 105h400M405 105h107M0 106h395M400 106h5M410 106h102M0 107h395M400 107h5M410 107h102M0 108h395M400 108h5M410 108h102M0 109h395M400 109h5M410 109h102M0 110h395M400 110h5M410 110h102M0 111h161M166 111h234M405 111h107M0 112h161M166 112h234M405 112h107M0 113h161M166 113h234M405 113h107M0 114h161M166 114h234M405 114h107M0 115h161M166 115h234M405 115h107M0 116h512M0 117h512M0 118h512M0 119h512M0 120h512M0 121h512M0 122h512M0 123h512M0 124h512M0 125h512M0 126h512M0 127h99M104 127h408M0 128h31M36 128h63M104 128h408M0 129h31M36 129h63M104 129h408M0 130h31M36 130h63M104 130h408M0 131h31M36 131h63M104 131h408M0 132h31M36 132h476M0 133h512M0 134h512M0 135h512M0 136h512M0 137h334M339 137h173M0 138h334M339 138h173M0 139h334M339 139h173M0 140h334M339 140h173M0 141h334M339 141h173M0 142h479M484 142h28M0 143h479M484 143h28M0 144h479M484 144h28M0 145h479M484 145h28M0 146h479M484 146h28M0 147h512M0 148h512M0 149h512M0 150h512M0 151h512M0 152h512M0 153h512M0 154h512M0 155h512M0 156h512M0 157h512M0 158h512M0 159h512M0 160h512M0 161h512M0 162h512M0 163h512M0 164h512M0 165h512M0 166h512M0 167h512M0 168h512M0 169h512M0 170h512M0 171h512M0 172h512M0 173h512M0 174h512M0 175h512M0 176h512M0 177h512M0 178h512M0 179h512M0 180h512M0 181h512M0 182h512M0 183h512M0 184h125M130 184h382M0 185h125M130 185h382M0 186h125M130 186h382M0 187h125M130 187h382M0 188h125M130 188h382M0 189h512M0 190h198M203 190h309M0 191h198M203 191h309M0 192h198M203 192h309M0 193h198M203 193h309M0 194h198M203 194h309M0 195h512M0 196h512M0 197h512M0 198h512M0 199h512M0 200h512M0 201h512M0 202h512M0 203h512M0 204h512M0 205h512M0 206h290M295 206h217M0 207h290M295 207h217M0 208h290M295 208h217M0 209h290M295 209h217M0 210h290M295 210h217M0 211h512M0 212h512M0 213h512M0 214h512M0 215h512M0 216h512M0 217h512M0 218h512M0 219h512M0 220h512M0 221h512M0 222h27M32 222h480M0 223h27M32 223h480M0 224h27M32 224h344M381 224h131M0 225h27M32 225h344M381 225h131M0 226h27M32 226h344M381 226h131M0 227h376M381 227h131M0 228h376M381 228h131M0 229h512M0 230h512M0 231h512M0 232h512M0 233h150M155 233h357M0 234h150M155 234h357M0 235h150M155 235h357M0 236h150M155 236h357M0 237h150M155 237h357M0 238h512M0 239h512M0 240h512M0 241h472M477 241h35M0 242h472M477 242h35M0 243h472M477 243h35M0 244h472M477 244h35M0 245h472M477 245h35M0 246h512M0 247h512M0 248h512M0 249h512M0 250h512M0 251h512M0 252h81M86 252h426M0 253h81M86 253h426M0 254h81M86 254h426M0 255h81M86 255h426M0 256h81M86 256h426M0 257h512M0 258h512M0 259h512M0 260h512M0 261h512M0 262h242M247 262h265M0 263h242M247 263h265M0 264h242M247 264h265M0 265h242M247 265h265M0 266h242M247 266h265M0 267h512M0 268h512M0 269h512M0 270h512M0 271h512M0 272h512M0 273h512M0 274h512M0 275h512M0 276h512M0 277h512M0 278h512M0 279h512M0 280h512M0 281h512M0 282h512M0 283h512M0 284h512M0 285h512M0 286h512M0 287h512M0 288h512M0 289h512M0 290h512M0 291h512M0 292h512M0 293h512M0 294h359M364 294h148M0 295h359M364 295h148M0 296h359M364 296h148M0 297h359M364 297h148M0 298h359M364 298h148M0 299h512M0 300h512M0 301h61M66 301h446M0 302h61M66 302h446M0 303h61M66 303h446M0 304h61M66 304h140M211 304h301M0 305h61M66 305h140M211 305h301M0 306h56M71 306h135M211 306h301M0 307h56M71 307h68M144 307h62M211 307h301M0 308h56M71 308h68M144 308h62M211 308h75M291 308h221M0 309h56M71 309h68M144 309h142M291 309h221M0 310h56M71 310h68M144 310h142M291 310h221M0 311h61M66 311h73M144 311h142M291 311h221M0 312h61M66 312h220M291 312h221M0 313h61M66 313h446M0 314h61M66 314h446M0 315h61M66 315h446M0 316h512M0 317h512M0 318h512M0 319h512M0 320h512M0 321h512M0 322h512M0 323h512M0 324h512M0 325h512M0 326h512M0 327h512M0 328h512M0 329h512M0 330h512M0 331h512M0 332h512M0 333h512M0 334h512M0 335h512M0 336h465M470 336h42M0 337h465M470 337h42M0 338h465M470 338h42M0 339h465M470 339h42M0 340h465M470 340h42M0 341h512M0 342h512M0 343h512M0 344h512M0 345h512M0 346h512M0 347h413M418 347h94M0 348h413M418 348h94M0 349h413M418 349h94M0 350h413M418 350h94M0 351h413M418 351h94M0 352h512M0 353h512M0 354h512M0 355h512M0 356h358M363 356h149M0 357h358M363 357h149M0 358h358M363 358h149M0 359h358M363 359h149M0 360h358M363 360h149M0 361h512M0 362h512M0 363h213M218 363h294M0 364h213M218 364h294M0 365h213M218 365h294M0 366h213M218 366h294M0 367h213M218 367h294M0 368h512M0 369h512M0 370h512M0 371h149M154 371h358M0 372h149M154 372h358M0 373h149M154 373h358M0 374h149M154 374h358M0 375h149M154 375h358M0 376h512M0 377h512M0 378h512M0 379h512M0 380h512M0 381h512M0 382h512M0 383h512M0 384h512M0 385h512M0 386h512M0 387h512M0 388h512M0 389h512M0 390h512M0 391h512M0 392h512M0 393h31M36 393h476M0 394h31M36 394h476M0 395h31M36 395h476M0 396h31M36 396h317M358 396h2M365 396h147M0 397h31M36 397h317M358 397h2M365 397h102M472 397h40M0 398h353M358 398h2M365 398h102M472 398h40M0 399h353M358 399h2M365 399h102M472 399h40M0 400h353M358 400h2M365 400h102M472 400h40M0 401h467M472 401h40M0 402h467M472 402h40M0 403h271M276 403h236M0 404h271M276 404h236M0 405h271M276 405h236M0 406h271M276 406h236M0 407h271M276 407h236M0 408h512M0 409h512M0 410h512M0 411h512M0 412h512M0 413h512M0 414h512M0 415h512M0 416h431M437 416h75M0 417h431M437 417h75M0 418h196M201 418h230M437 418h75M0 419h196M201 419h230M437 419h75M0 420h196M201 420h230M437 420h71M0 421h53M58 421h22M85 421h52M142 421h54M201 421h307M0 422h53M58 422h22M85 422h52M142 422h54M201 422h307M0 423h53M58 423h22M85 423h52M142 423h366M0 424h53M58 424h22M85 424h52M142 424h366M0 425h53M58 425h22M85 425h52M142 425h370M0 426h512M0 427h512M0 428h512M0 429h512M0 430h512M0 431h512M0 432h512M0 433h512M0 434h512M0 435h512M0 436h512M0 437h512M0 438h512M0 439h512M0 440h512M0 441h512M0 442h512M0 443h512M0 444h512M1 445h511M1 446h511M1 447h511M1 448h511M1 449h511M0 450h512M0 451h512M0 452h512M0 453h512M0 454h356M361 454h151M0 455h356M361 455h151M0 456h356M361 456h151M0 457h356M361 457h151M0 458h356M361 458h151M0 459h512M0 460h288M293 460h219M0 461h288M293 461h219M0 462h288M293 462h219M0 463h288M293 463h219M0 464h170M175 464h113M293 464h219M0 465h170M175 465h337M0 466h170M175 466h256M436 466h76M0 467h170M175 467h256M436 467h76M0 468h170M175 468h256M436 468h76M0 469h431M436 469h76M0 470h431M436 470h76M0 471h512M0 472h512M0 473h512M0 474h512M0 475h512M0 476h512M0 477h512M0 478h512M0 479h512M0 480h512M0 481h512M0 482h512M0 483h33M38 483h84M127 483h385M0 484h33M38 484h84M127 484h385M0 485h33M38 485h84M127 485h385M0 486h33M38 486h84M127 486h385M0 487h33M38 487h47M90 487h32M127 487h385M0 488h85M90 488h422M0 489h85M90 489h422M0 490h85M90 490h422M0 491h85M90 491h422M0 492h512M0 493h512M0 494h328M333 494h179M0 495h328M333 495h179M0 496h328M333 496h136M474 496h38M0 497h328M333 497h136M474 497h38M0 498h328M333 498h136M474 498h38M0 499h469M474 499h38M0 500h469M474 500h38M0 501h512M0 502h512M0 503h512M0 504h512M0 505h512M0 506h204M209 506h303M0 507h204M209 507h303M0 508h204M209 508h197M411 508h101M0 509h204M209 509h197M411 509h101M0 510h204M209 510h197M411 510h101M0 511h406M411 511h101" />
<path stroke="#e9eaee" d="M28 0h5M504 0h5M28 1h5M504 1h5M28 2h5M504 2h5M504 3h5M171 5h5M171 6h5M171 7h5M171 8h5M171 9h5M414 9h5M477 9h5M414 10h5M477 10h5M414 11h5M477 11h5M414 12h5M477 12h5M307 13h5M414 13h5M477 13h5M307 14h5M307 15h5M307 16h5M307 17h5M123 29h5M123 30h5M255 30h5M123 31h5M255 31h5M123 32h5M255 32h5M255 33h5M255 34h5M77 40h5M77 41h5M77 42h5M437 42h5M77 43h5M437 43h5M77 44h5M437 44h5M437 45h5M437 46h5M154 48h5M154 49h5M154 50h5M154 51h5M154 52h5M215 55h5M215 56h5M215 57h5M215 58h5M215 59h5M298 100h5M298 101h5M400 101h5M298 102h5M400 102h5M298 103h5M400 103h5M298 104h5M400 104h5M400 105h5M395 106h5M405 106h5M395 107h5M405 107h5M395 108h5M405 108h5M395 109h5M405 109h5M395 110h5M405 110h5M161 111h5M400 111h5M161 112h5M400 112h5M161 113h5M400 113h5M161 114h5M400 114h5M161 115h5M400 115h5M99 127h5M31 128h5M99 128h5M31 129h5M99 129h5M31 130h5M99 130h5M31 131h5M99 131h5M31 132h5M334 137h5M334 138h5M334 139h5M334 140h5M334 141h5M479 142h5M479 143h5M479 144h5M479 145h5M479 146h5M125 184h5M125 185h5M125 186h5M125 187h5M125 188h5M198 190h5M198 191h5M198 192h5M198 193h5M198 194h5M290 206h5M290 207h5M290 208h5M290 209h5M290 210h5M27 222h5M27 223h5M27 224h5M376 224h5M27 225h5M376 225h5M27 226h5M376 226h5M376 227h5M376 228h5M150 233h5M150 234h5M150 235h5M150 236h5M150 237h5M472 241h5M472 242h5M472 243h5M472 244h5M472 245h5M81 252h5M81 253h5M81 254h5M81 255h5M81 256h5M242 262h5M242 263h5M242 264h5M242 265h5M242 266h5M359 294h5M359 295h5M359 296h5M359 297h5M359 298h5M61 301h5M61 302h5M61 303h5M61 304h5M206 304h5M61 305h5M206 305h5M56 306h15M206 306h5M56 307h15M139 307h5M206 307h5M56 308h15M139 308h5M206 308h5M286 308h5M56 309h15M139 309h5M286 309h5M56 310h15M139 310h5M286 310h5M61 311h5M139 311h5M286 311h5M61 312h5M286 312h5M61 313h5M61 314h5M61 315h5M465 336h5M465 337h5M465 338h5M465 339h5M465 340h5M413 347h5M413 348h5M413 349h5M413 350h5M413 351h5M358 356h5M358 357h5M358 358h5M358 359h5M358 360h5M213 363h5M213 364h5M213 365h5M213 366h5M213 367h5M149 371h5M149 372h5M149 373h5M149 374h5M149 375h5M31 393h5M31 394h5M31 395h5M31 396h5M353 396h5M360 396h5M31 397h5M353 397h5M360 397h5M353 398h5M360 398h5M467 398h5M353 399h5M360 399h5M467 399h5M353 400h5M360 400h5M467 400h5M467 401h5M271 403h5M271 404h5M271 405h5M271 406h5M271 407h5M432 416h4M432 417h4M196 418h5M432 418h4M196 419h5M432 419h4M196 420h5M432 420h4M508 420h4M53 421h5M80 421h5M137 421h5M196 421h5M508 421h4M53 422h5M80 422h5M137 422h5M196 422h5M508 422h4M53 423h5M80 423h5M137 423h5M508 423h4M53 424h5M80 424h5M137 424h5M508 424h4M53 425h5M80 425h5M137 425h5M356 454h5M356 455h5M356 456h5M356 457h5M356 458h5M288 460h5M288 461h5M288 462h5M288 463h5M170 464h5M288 464h5M170 465h5M170 466h5M431 466h5M170 467h5M431 467h5M170 468h5M431 468h5M431 469h5M431 470h5M33 483h5M122 483h5M33 484h5M122 484h5M33 485h5M122 485h5M33 486h5M122 486h5M33 487h5M85 487h5M122 487h5M85 488h5M85 489h5M85 490h5M85 491h5M328 494h5M328 495h5M328 496h5M469 496h5M328 497h5M469 497h5M328 498h5M469 498h5M469 499h5M469 500h5M204 506h5M204 507h5M204 508h5M406 508h5M204 509h5M406 509h5M204 510h5M406 510h5M406 511h5" />
<path stroke="#bcbdca" d="M0 28h1M123 28h5M0 29h1M0 30h1M0 31h1M0 32h1M123 33h5M467 397h5M467 402h5M431 416h1M436 416h1M431 417h1M436 417h1M431 418h1M436 418h1M431 419h1M436 419h1M431 420h1M436 420h1M0 445h1M0 446h1M0 447h1M0 448h1M0 449h1" />
</svg>