<svg xmlns="http://www.w3.org/2000/svg" viewBox="0 -0.5 485 193" shape-rendering="crispEdges">
<metadata>Made with Pix2d https://pix2d.com</metadata>
<path stroke="#f7ec29" d="M29 22h4M51 22h4M122 22h4M130 22h5M281 22h4M29 23h4M51 23h4M122 23h4M130 23h5M281 23h4M29 24h4M51 24h4M122 24h4M130 24h5M281 24h4M29 25h4M51 25h4M122 25h4M130 25h5M281 25h4M192 26h5M219 26h4M356 26h4M192 27h5M219 27h4M356 27h4M192 28h5M219 28h4M356 28h4M192 29h5M219 29h4M356 29h4M214 30h5M245 30h5M351 30h5M382 30h5M214 31h5M245 31h5M351 31h5M382 31h5M214 32h5M245 32h5M351 32h5M382 32h5M214 33h5M245 33h5M351 33h5M382 33h5M214 34h5M245 34h5M351 34h5M382 34h5M64 35h5M223 35h5M360 35h4M64 36h5M223 36h5M360 36h4M64 37h5M223 37h5M360 37h4M64 38h5M223 38h5M360 38h4M175 61h4M175 62h4M175 63h4M175 64h4M175 65h4M223 75h5M360 75h4M223 76h5M360 76h4M223 77h5M360 77h4M223 78h5M360 78h4M214 79h5M245 79h5M351 79h5M382 79h5M214 80h5M245 80h5M351 80h5M382 80h5M214 81h5M245 81h5M351 81h5M382 81h5M214 82h5M245 82h5M351 82h5M382 82h5M219 83h4M356 83h4M219 84h4M356 84h4M219 85h4M356 85h4M219 86h4M356 86h4M219 87h4M356 87h4M122 88h4M130 88h5M281 88h4M289 88h5M122 89h4M130 89h5M281 89h4M289 89h5M122 90h4M130 90h5M281 90h4M289 90h5M122 91h4M130 91h5M281 91h4M289 91h5M387 109h5M387 110h5M387 111h5M387 112h5M383 118h4M383 119h4M383 120h4M383 121h4M401 127h4M401 128h4M401 129h4M401 130h4M365 135h5M365 136h5M365 137h5M365 138h5M365 139h5M383 140h4M383 141h4M383 142h4M383 143h4M396 175h5M396 176h5M396 177h5M396 178h5M396 179h5" />
<path stroke="#f8ed29" d="M33 22h5M47 22h4M33 23h5M47 23h4M33 24h5M47 24h4M33 25h5M47 25h4M183 30h5M183 31h5M183 32h5M183 33h5M183 34h5M25 35h4M25 36h4M25 37h4M25 38h4M64 39h5M263 39h4M400 39h4M64 40h5M263 40h4M400 40h4M64 41h5M263 41h4M400 41h4M64 42h5M263 42h4M400 42h4M64 43h5M263 43h4M400 43h4M188 44h4M303 44h4M188 45h4M303 45h4M188 46h4M303 46h4M188 47h4M303 47h4M303 57h4M303 58h4M303 59h4M303 60h4M11 61h5M11 62h5M11 63h5M11 64h5M11 65h5M20 66h5M316 66h4M20 67h5M316 67h4M20 68h5M316 68h4M20 69h5M316 69h4M316 79h4M316 80h4M316 81h4M316 82h4M197 88h4M197 89h4M197 90h4M197 91h4M383 109h4M383 110h4M383 111h4M383 112h4M392 144h4M392 145h4M392 146h4M392 147h4M392 148h4M401 153h4M401 154h4M401 155h4M401 156h4M401 157h4M392 166h4M401 166h4M392 167h4M401 167h4M392 168h4M401 168h4M392 169h4M401 169h4M392 170h4M401 170h4M387 171h5M387 172h5M387 173h5M387 174h5" />
<path stroke="#f7ec28" d="M38 22h9M82 22h9M126 22h4M148 22h35M232 22h13M285 22h4M325 22h9M369 22h13M38 23h9M82 23h9M126 23h4M148 23h35M232 23h13M285 23h4M325 23h9M369 23h13M38 24h9M82 24h9M126 24h4M148 24h35M232 24h13M285 24h4M325 24h9M369 24h13M38 25h9M82 25h9M126 25h4M148 25h35M232 25h13M285 25h4M325 25h9M369 25h13M29 30h4M60 30h4M29 31h4M60 31h4M29 32h4M60 32h4M29 33h4M60 33h4M29 34h4M60 34h4M16 35h4M16 36h4M16 37h4M16 38h4M20 44h5M60 44h4M20 45h5M60 45h4M20 46h5M60 46h4M20 47h5M60 47h4M11 53h5M157 53h26M192 53h5M395 53h5M11 54h5M157 54h26M192 54h5M395 54h5M11 55h5M157 55h26M192 55h5M395 55h5M11 56h5M157 56h26M192 56h5M395 56h5M11 57h5M91 57h31M259 57h4M395 57h5M11 58h5M91 58h31M259 58h4M395 58h5M11 59h5M91 59h31M259 59h4M395 59h5M11 60h5M91 60h31M259 60h4M395 60h5M179 66h4M179 67h4M179 68h4M179 69h4M263 70h4M400 70h4M263 71h4M400 71h4M263 72h4M400 72h4M263 73h4M400 73h4M263 74h4M400 74h4M16 75h4M55 75h5M183 75h5M16 76h4M55 76h5M183 76h5M16 77h4M55 77h5M183 77h5M16 78h4M55 78h5M183 78h5M38 83h4M188 83h4M38 84h4M188 84h4M38 85h4M188 85h4M38 86h4M188 86h4M38 87h4M188 87h4M33 88h5M47 88h4M82 88h9M126 88h4M148 88h9M192 88h5M232 88h13M285 88h4M325 88h9M369 88h13M33 89h5M47 89h4M82 89h9M126 89h4M148 89h9M192 89h5M232 89h13M285 89h4M325 89h9M369 89h13M33 90h5M47 90h4M82 90h9M126 90h4M148 90h9M192 90h5M232 90h13M285 90h4M325 90h9M369 90h13M33 91h5M47 91h4M82 91h9M126 91h4M148 91h9M192 91h5M232 91h13M285 91h4M325 91h9M369 91h13M396 118h5M436 118h4M396 119h5M436 119h4M396 120h5M436 120h4M396 121h5M436 121h4M436 122h4M436 123h4M436 124h4M436 125h4M436 126h4M436 127h4M436 128h4M436 129h4M436 130h4M436 131h4M436 132h4M436 133h4M436 134h4M361 135h4M436 135h4M361 136h4M436 136h4M361 137h4M436 137h4M361 138h4M436 138h4M361 139h4M436 139h4M299 140h5M436 140h4M299 141h5M436 141h4M299 142h5M436 142h4M299 143h5M436 143h4M299 144h5M436 144h4M299 145h5M436 145h4M299 146h5M436 146h4M299 147h5M436 147h4M299 148h5M436 148h4M436 149h4M436 150h4M436 151h4M436 152h4M436 153h4M436 154h4M436 155h4M436 156h4M436 157h4M436 158h4M436 159h4M436 160h4M436 161h4M436 162h4M436 163h4M436 164h4M436 165h4M436 166h4M436 167h4M436 168h4M436 169h4M436 170h4M361 171h4M436 171h4M361 172h4M436 172h4M361 173h4M436 173h4M361 174h4M436 174h4M304 175h4M436 175h4M304 176h4M436 176h4M304 177h4M436 177h4M304 178h4M436 178h4M304 179h4M436 179h4M304 180h4M436 180h4M304 181h4M436 181h4M304 182h4M436 182h4M304 183h4M436 183h4" />
<path stroke="#f8eb29" d="M183 22h5M183 23h5M183 24h5M183 25h5M219 39h4M356 39h4M219 40h4M356 40h4M219 41h4M356 41h4M219 42h4M356 42h4M219 43h4M356 43h4M11 48h5M122 48h4M11 49h5M122 49h4M11 50h5M122 50h4M11 51h5M122 51h4M11 52h5M122 52h4M219 70h4M356 70h4M219 71h4M356 71h4M219 72h4M356 72h4M219 73h4M356 73h4M219 74h4M356 74h4M25 75h4M25 76h4M25 77h4M25 78h4M29 79h4M51 79h4M29 80h4M51 80h4M29 81h4M51 81h4M29 82h4M51 82h4M361 109h4M361 110h4M361 111h4M361 112h4M352 113h5M352 114h5M352 115h5M352 116h5M352 117h5M379 140h4M379 141h4M379 142h4M379 143h4M361 180h4M361 181h4M361 182h4M361 183h4" />
<path stroke="#f7ec2a" d="M188 22h4M188 23h4M188 24h4M188 25h4M294 26h4M294 27h4M294 28h4M294 29h4M47 30h4M157 30h26M47 31h4M157 31h26M47 32h4M157 32h26M47 33h4M157 33h26M47 34h4M157 34h26M263 35h4M400 35h4M263 36h4M400 36h4M263 37h4M400 37h4M263 38h4M400 38h4M55 44h5M55 45h5M55 46h5M55 47h5M91 48h31M267 48h5M307 48h5M404 48h5M91 49h31M267 49h5M307 49h5M404 49h5M91 50h31M267 50h5M307 50h5M404 50h5M91 51h31M267 51h5M307 51h5M404 51h5M91 52h31M267 52h5M307 52h5M404 52h5M206 53h4M267 53h5M298 53h5M342 53h5M404 53h5M206 54h4M267 54h5M298 54h5M342 54h5M404 54h5M206 55h4M267 55h5M298 55h5M342 55h5M404 55h5M206 56h4M267 56h5M298 56h5M342 56h5M404 56h5M206 57h4M267 57h5M342 57h5M404 57h5M206 58h4M267 58h5M342 58h5M404 58h5M206 59h4M267 59h5M342 59h5M404 59h5M206 60h4M267 60h5M342 60h5M404 60h5M157 61h18M267 61h5M404 61h5M157 62h18M267 62h5M404 62h5M157 63h18M267 63h5M404 63h5M157 64h18M267 64h5M404 64h5M157 65h18M267 65h5M404 65h5M179 70h4M320 70h5M179 71h4M320 71h5M179 72h4M320 72h5M179 73h4M320 73h5M179 74h4M320 74h5M263 75h4M312 75h4M400 75h4M263 76h4M312 76h4M400 76h4M263 77h4M312 77h4M400 77h4M263 78h4M312 78h4M400 78h4M183 79h5M183 80h5M183 81h5M183 82h5M188 88h4M188 89h4M188 90h4M188 91h4M184 109h5M304 109h4M330 109h4M357 109h4M471 109h5M184 110h5M304 110h4M330 110h4M357 110h4M471 110h5M184 111h5M304 111h4M330 111h4M357 111h4M471 111h5M184 112h5M304 112h4M330 112h4M357 112h4M471 112h5M184 113h5M304 113h4M330 113h4M471 113h5M184 114h5M304 114h4M330 114h4M471 114h5M184 115h5M304 115h4M330 115h4M471 115h5M184 116h5M304 116h4M330 116h4M471 116h5M184 117h5M304 117h4M330 117h4M471 117h5M184 118h5M259 118h5M330 118h4M184 119h5M259 119h5M330 119h4M184 120h5M259 120h5M330 120h4M184 121h5M259 121h5M330 121h4M184 122h5M259 122h5M330 122h4M184 123h5M259 123h5M330 123h4M184 124h5M259 124h5M330 124h4M184 125h5M259 125h5M330 125h4M184 126h5M259 126h5M330 126h4M184 127h5M259 127h5M330 127h4M357 127h4M184 128h5M259 128h5M330 128h4M357 128h4M184 129h5M259 129h5M330 129h4M357 129h4M184 130h5M259 130h5M330 130h4M357 130h4M184 131h5M259 131h5M330 131h4M184 132h5M259 132h5M330 132h4M184 133h5M259 133h5M330 133h4M184 134h5M259 134h5M330 134h4M184 135h5M259 135h5M330 135h4M184 136h5M259 136h5M330 136h4M184 137h5M259 137h5M330 137h4M184 138h5M259 138h5M330 138h4M184 139h5M259 139h5M330 139h4M330 140h4M330 141h4M330 142h4M330 143h4M330 144h4M330 145h4M330 146h4M330 147h4M330 148h4M184 149h5M259 149h5M330 149h4M374 149h5M184 150h5M259 150h5M330 150h4M374 150h5M184 151h5M259 151h5M330 151h4M374 151h5M184 152h5M259 152h5M330 152h4M374 152h5M184 153h5M259 153h5M330 153h4M387 153h5M184 154h5M259 154h5M330 154h4M387 154h5M184 155h5M259 155h5M330 155h4M387 155h5M184 156h5M259 156h5M330 156h4M387 156h5M184 157h5M259 157h5M330 157h4M387 157h5M184 158h5M259 158h5M330 158h4M184 159h5M259 159h5M330 159h4M184 160h5M259 160h5M330 160h4M184 161h5M259 161h5M330 161h4M184 162h5M259 162h5M330 162h4M392 162h4M184 163h5M259 163h5M330 163h4M392 163h4M184 164h5M259 164h5M330 164h4M392 164h4M184 165h5M259 165h5M330 165h4M392 165h4M184 166h5M259 166h5M330 166h4M184 167h5M259 167h5M330 167h4M184 168h5M259 168h5M330 168h4M184 169h5M259 169h5M330 169h4M184 170h5M259 170h5M330 170h4M184 171h5M259 171h5M330 171h4M401 171h4M184 172h5M259 172h5M330 172h4M401 172h4M184 173h5M259 173h5M330 173h4M401 173h4M184 174h5M259 174h5M330 174h4M401 174h4M184 175h5M330 175h4M184 176h5M330 176h4M184 177h5M330 177h4M184 178h5M330 178h4M184 179h5M330 179h4M184 180h5M330 180h4M184 181h5M330 181h4M184 182h5M330 182h4M184 183h5M330 183h4" />
<path stroke="#f7ec2c" d="M223 22h5M360 22h4M223 23h5M360 23h4M223 24h5M360 24h4M223 25h5M360 25h4M60 26h4M60 27h4M60 28h4M60 29h4M369 30h4M369 31h4M369 32h4M369 33h4M369 34h4M267 44h5M404 44h5M267 45h5M404 45h5M267 46h5M404 46h5M267 47h5M404 47h5M219 48h4M356 48h4M219 49h4M356 49h4M219 50h4M356 50h4M219 51h4M356 51h4M219 52h4M356 52h4M192 57h5M192 58h5M192 59h5M192 60h5M188 61h4M219 61h4M356 61h4M188 62h4M219 62h4M356 62h4M188 63h4M219 63h4M356 63h4M188 64h4M219 64h4M356 64h4M188 65h4M219 65h4M356 65h4M55 66h5M267 66h5M404 66h5M55 67h5M267 67h5M404 67h5M55 68h5M267 68h5M404 68h5M55 69h5M267 69h5M404 69h5M25 70h4M192 70h5M25 71h4M192 71h5M25 72h4M192 72h5M25 73h4M192 73h5M25 74h4M192 74h5M33 79h5M47 79h4M64 79h5M197 79h4M232 79h4M369 79h4M33 80h5M47 80h4M64 80h5M197 80h4M232 80h4M369 80h4M33 81h5M47 81h4M64 81h5M197 81h4M232 81h4M369 81h4M33 82h5M47 82h4M64 82h5M197 82h4M232 82h4M369 82h4M25 88h4M55 88h5M25 89h4M55 89h5M25 90h4M55 90h5M25 91h4M55 91h5M396 113h5M396 114h5M396 115h5M396 116h5M396 117h5M370 149h4M370 150h4M370 151h4M370 152h4M370 171h4M370 172h4M370 173h4M370 174h4" />
<path stroke="#f8ec29" d="M228 22h4M364 22h5M228 23h4M364 23h5M228 24h4M364 24h5M228 25h4M364 25h5M197 35h4M197 36h4M197 37h4M197 38h4M11 44h5M294 44h4M11 45h5M294 45h4M11 46h5M294 46h4M11 47h5M294 47h4M188 57h4M188 58h4M188 59h4M188 60h4M29 88h4M51 88h4M228 88h4M320 88h5M364 88h5M29 89h4M51 89h4M228 89h4M320 89h5M364 89h5M29 90h4M51 90h4M228 90h4M320 90h5M364 90h5M29 91h4M51 91h4M228 91h4M320 91h5M364 91h5M357 122h4M357 123h4M357 124h4M357 125h4M357 126h4M348 135h4M348 136h4M348 137h4M348 138h4M348 139h4M357 166h4M357 167h4M357 168h4M357 169h4M357 170h4" />
<path stroke="#f8ec29" d="M245 22h5M289 22h5M382 22h5M245 23h5M289 23h5M382 23h5M245 24h5M289 24h5M382 24h5M245 25h5M289 25h5M382 25h5M259 30h4M395 30h5M259 31h4M395 31h5M259 32h4M395 32h5M259 33h4M395 33h5M259 34h4M395 34h5M55 39h5M188 39h4M210 39h4M289 39h5M347 39h4M55 40h5M188 40h4M210 40h4M289 40h5M347 40h4M55 41h5M188 41h4M210 41h4M289 41h5M347 41h4M55 42h5M188 42h4M210 42h4M289 42h5M347 42h4M55 43h5M188 43h4M210 43h4M289 43h5M347 43h4M64 44h5M64 45h5M64 46h5M64 47h5M210 70h4M347 70h4M210 71h4M347 71h4M210 72h4M347 72h4M210 73h4M347 73h4M210 74h4M347 74h4M64 75h5M64 76h5M64 77h5M64 78h5M259 79h4M395 79h5M259 80h4M395 80h5M259 81h4M395 81h5M259 82h4M395 82h5M245 88h5M382 88h5M245 89h5M382 89h5M245 90h5M382 90h5M245 91h5M382 91h5M352 158h5M352 159h5M352 160h5M352 161h5M348 171h4M348 172h4M348 173h4M348 174h4M352 175h5M352 176h5M352 177h5M352 178h5M352 179h5M387 180h5M387 181h5M387 182h5M387 183h5" />
<path stroke="#f7ed29" d="M250 22h4M387 22h4M250 23h4M387 23h4M250 24h4M387 24h4M250 25h4M387 25h4M16 30h4M33 30h5M197 30h4M16 31h4M33 31h5M197 31h4M16 32h4M33 32h5M197 32h4M16 33h4M33 33h5M197 33h4M16 34h4M33 34h5M197 34h4M51 35h4M210 35h4M347 35h4M51 36h4M210 36h4M347 36h4M51 37h4M210 37h4M347 37h4M51 38h4M210 38h4M347 38h4M11 39h5M25 39h4M303 39h4M11 40h5M25 40h4M303 40h4M11 41h5M25 41h4M303 41h4M11 42h5M25 42h4M303 42h4M11 43h5M25 43h4M303 43h4M254 44h5M391 44h4M254 45h5M391 45h4M254 46h5M391 46h4M254 47h5M391 47h4M303 61h4M316 61h4M303 62h4M316 62h4M303 63h4M316 63h4M303 64h4M316 64h4M303 65h4M316 65h4M254 66h5M254 67h5M254 68h5M254 69h5M210 75h4M347 75h4M210 76h4M347 76h4M210 77h4M347 77h4M210 78h4M347 78h4M316 83h4M316 84h4M316 85h4M316 86h4M316 87h4M223 88h5M250 88h4M360 88h4M387 88h4M223 89h5M250 89h4M360 89h4M387 89h4M223 90h5M250 90h4M360 90h4M387 90h4M223 91h5M250 91h4M360 91h4M387 91h4M365 118h5M379 118h4M365 119h5M379 119h4M365 120h5M379 120h4M365 121h5M379 121h4M370 135h4M370 136h4M370 137h4M370 138h4M370 139h4M387 140h5M387 141h5M387 142h5M387 143h5M357 144h4M396 144h5M357 145h4M396 145h5M357 146h4M396 146h5M357 147h4M396 147h5M357 148h4M396 148h5M401 149h4M401 150h4M401 151h4M401 152h4M343 166h5M343 167h5M343 168h5M343 169h5M343 170h5M392 180h4M392 181h4M392 182h4M392 183h4" />
<path stroke="#f8ec2a" d="M20 26h5M20 27h5M20 28h5M20 29h5M250 35h4M387 35h4M250 36h4M387 36h4M250 37h4M387 37h4M250 38h4M387 38h4M183 48h5M183 49h5M183 50h5M183 51h5M183 52h5M11 70h5M11 71h5M11 72h5M11 73h5M11 74h5M250 75h4M387 75h4M250 76h4M387 76h4M250 77h4M387 77h4M250 78h4M387 78h4M16 79h4M16 80h4M16 81h4M16 82h4M20 83h5M60 83h4M20 84h5M60 84h4M20 85h5M60 85h4M20 86h5M60 86h4M20 87h5M60 87h4M387 122h5M401 122h4M387 123h5M401 123h4M387 124h5M401 124h4M387 125h5M401 125h4M387 126h5M401 126h4M357 180h4M357 181h4M357 182h4M357 183h4" />
<path stroke="#f7ec29" d="M25 26h4M25 27h4M25 28h4M25 29h4M294 30h4M294 31h4M294 32h4M294 33h4M294 34h4M210 44h4M347 44h4M210 45h4M347 45h4M210 46h4M347 46h4M210 47h4M347 47h4M307 53h5M307 54h5M307 55h5M307 56h5M122 57h4M122 58h4M122 59h4M122 60h4M210 66h4M347 66h4M210 67h4M347 67h4M210 68h4M347 68h4M210 69h4M347 69h4M64 70h5M312 70h4M64 71h5M312 71h4M64 72h5M312 72h4M64 73h5M312 73h4M64 74h5M312 74h4M320 75h5M320 76h5M320 77h5M320 78h5M365 109h5M365 110h5M365 111h5M365 112h5M348 122h4M348 123h4M348 124h4M348 125h4M348 126h4M348 131h4M348 132h4M348 133h4M348 134h4M374 140h5M374 141h5M374 142h5M374 143h5M352 162h5M352 163h5M352 164h5M352 165h5" />
<path stroke="#f8ec28" d="M29 26h26M82 26h9M126 26h4M148 26h44M228 26h4M236 26h18M285 26h9M325 26h9M364 26h27M29 27h26M82 27h9M126 27h4M148 27h44M228 27h4M236 27h18M285 27h9M325 27h9M364 27h27M29 28h26M82 28h9M126 28h4M148 28h44M228 28h4M236 28h18M285 28h9M325 28h9M364 28h27M29 29h26M82 29h9M126 29h4M148 29h44M228 29h4M236 29h18M285 29h9M325 29h9M364 29h27M25 30h4M55 30h5M82 30h9M126 30h4M148 30h9M188 30h9M219 30h9M254 30h5M285 30h9M325 30h9M356 30h8M391 30h4M25 31h4M55 31h5M82 31h9M126 31h4M148 31h9M188 31h9M219 31h9M254 31h5M285 31h9M325 31h9M356 31h8M391 31h4M25 32h4M55 32h5M82 32h9M126 32h4M148 32h9M188 32h9M219 32h9M254 32h5M285 32h9M325 32h9M356 32h8M391 32h4M25 33h4M55 33h5M82 33h9M126 33h4M148 33h9M188 33h9M219 33h9M254 33h5M285 33h9M325 33h9M356 33h8M391 33h4M25 34h4M55 34h5M82 34h9M126 34h4M148 34h9M188 34h9M219 34h9M254 34h5M285 34h9M325 34h9M356 34h8M391 34h4M20 35h5M60 35h4M82 35h9M126 35h4M148 35h9M192 35h5M219 35h4M259 35h4M285 35h13M325 35h9M356 35h4M395 35h5M20 36h5M60 36h4M82 36h9M126 36h4M148 36h9M192 36h5M219 36h4M259 36h4M285 36h13M325 36h9M356 36h4M395 36h5M20 37h5M60 37h4M82 37h9M126 37h4M148 37h9M192 37h5M219 37h4M259 37h4M285 37h13M325 37h9M356 37h4M395 37h5M20 38h5M60 38h4M82 38h9M126 38h4M148 38h9M192 38h5M219 38h4M259 38h4M285 38h13M325 38h9M356 38h4M395 38h5M16 39h9M60 39h4M82 39h9M126 39h4M148 39h9M192 39h5M214 39h5M259 39h4M285 39h4M325 39h9M351 39h5M395 39h5M16 40h9M60 40h4M82 40h9M126 40h4M148 40h9M192 40h5M214 40h5M259 40h4M285 40h4M325 40h9M351 40h5M395 40h5M16 41h9M60 41h4M82 41h9M126 41h4M148 41h9M192 41h5M214 41h5M259 41h4M285 41h4M325 41h9M351 41h5M395 41h5M16 42h9M60 42h4M82 42h9M126 42h4M148 42h9M192 42h5M214 42h5M259 42h4M285 42h4M325 42h9M351 42h5M395 42h5M16 43h9M60 43h4M82 43h9M126 43h4M148 43h9M192 43h5M214 43h5M259 43h4M285 43h4M325 43h9M351 43h5M395 43h5M16 44h4M82 44h9M126 44h4M148 44h9M192 44h5M214 44h5M259 44h8M285 44h4M298 44h5M325 44h9M351 44h5M395 44h9M16 45h4M82 45h9M126 45h4M148 45h9M192 45h5M214 45h5M259 45h8M285 45h4M298 45h5M325 45h9M351 45h5M395 45h9M16 46h4M82 46h9M126 46h4M148 46h9M192 46h5M214 46h5M259 46h8M285 46h4M298 46h5M325 46h9M351 46h5M395 46h9M16 47h4M82 47h9M126 47h4M148 47h9M192 47h5M214 47h5M259 47h8M285 47h4M298 47h5M325 47h9M351 47h5M395 47h9M16 48h4M82 48h9M126 48h4M148 48h9M192 48h5M210 48h9M259 48h8M285 48h4M303 48h4M325 48h9M347 48h9M395 48h9M16 49h4M82 49h9M126 49h4M148 49h9M192 49h5M210 49h9M259 49h8M285 49h4M303 49h4M325 49h9M347 49h9M395 49h9M16 50h4M82 50h9M126 50h4M148 50h9M192 50h5M210 50h9M259 50h8M285 50h4M303 50h4M325 50h9M347 50h9M395 50h9M16 51h4M82 51h9M126 51h4M148 51h9M192 51h5M210 51h9M259 51h8M285 51h4M303 51h4M325 51h9M347 51h9M395 51h9M16 52h4M82 52h9M126 52h4M148 52h9M192 52h5M210 52h9M259 52h8M285 52h4M303 52h4M325 52h9M347 52h9M395 52h9M16 53h4M82 53h48M148 53h9M183 53h9M210 53h9M263 53h4M285 53h4M303 53h4M325 53h9M347 53h9M400 53h4M16 54h4M82 54h48M148 54h9M183 54h9M210 54h9M263 54h4M285 54h4M303 54h4M325 54h9M347 54h9M400 54h4M16 55h4M82 55h48M148 55h9M183 55h9M210 55h9M263 55h4M285 55h4M303 55h4M325 55h9M347 55h9M400 55h4M16 56h4M82 56h48M148 56h9M183 56h9M210 56h9M263 56h4M285 56h4M303 56h4M325 56h9M347 56h9M400 56h4M16 57h4M82 57h9M126 57h4M148 57h35M210 57h4M263 57h4M285 57h4M307 57h5M325 57h9M347 57h9M400 57h4M16 58h4M82 58h9M126 58h4M148 58h35M210 58h4M263 58h4M285 58h4M307 58h5M325 58h9M347 58h9M400 58h4M16 59h4M82 59h9M126 59h4M148 59h35M210 59h4M263 59h4M285 59h4M307 59h5M325 59h9M347 59h9M400 59h4M16 60h4M82 60h9M126 60h4M148 60h35M210 60h4M263 60h4M285 60h4M307 60h5M325 60h9M347 60h9M400 60h4M16 61h4M82 61h9M126 61h4M148 61h9M179 61h4M210 61h9M259 61h8M285 61h4M325 61h9M347 61h9M395 61h9M16 62h4M82 62h9M126 62h4M148 62h9M179 62h4M210 62h9M259 62h8M285 62h4M325 62h9M347 62h9M395 62h9M16 63h4M82 63h9M126 63h4M148 63h9M179 63h4M210 63h9M259 63h8M285 63h4M325 63h9M347 63h9M395 63h9M16 64h4M82 64h9M126 64h4M148 64h9M179 64h4M210 64h9M259 64h8M285 64h4M325 64h9M347 64h9M395 64h9M16 65h4M82 65h9M126 65h4M148 65h9M179 65h4M210 65h9M259 65h8M285 65h4M325 65h9M347 65h9M395 65h9M16 66h4M60 66h9M82 66h9M126 66h4M148 66h9M183 66h5M214 66h5M259 66h8M285 66h4M312 66h4M325 66h9M351 66h5M395 66h9M16 67h4M60 67h9M82 67h9M126 67h4M148 67h9M183 67h5M214 67h5M259 67h8M285 67h4M312 67h4M325 67h9M351 67h5M395 67h9M16 68h4M60 68h9M82 68h9M126 68h4M148 68h9M183 68h5M214 68h5M259 68h8M285 68h4M312 68h4M325 68h9M351 68h5M395 68h9M16 69h4M60 69h9M82 69h9M126 69h4M148 69h9M183 69h5M214 69h5M259 69h8M285 69h4M312 69h4M325 69h9M351 69h5M395 69h9M16 70h4M60 70h4M82 70h9M126 70h4M148 70h9M183 70h5M214 70h5M259 70h4M285 70h4M316 70h4M325 70h9M351 70h5M395 70h5M16 71h4M60 71h4M82 71h9M126 71h4M148 71h9M183 71h5M214 71h5M259 71h4M285 71h4M316 71h4M325 71h9M351 71h5M395 71h5M16 72h4M60 72h4M82 72h9M126 72h4M148 72h9M183 72h5M214 72h5M259 72h4M285 72h4M316 72h4M325 72h9M351 72h5M395 72h5M16 73h4M60 73h4M82 73h9M126 73h4M148 73h9M183 73h5M214 73h5M259 73h4M285 73h4M316 73h4M325 73h9M351 73h5M395 73h5M16 74h4M60 74h4M82 74h9M126 74h4M148 74h9M183 74h5M214 74h5M259 74h4M285 74h4M316 74h4M325 74h9M351 74h5M395 74h5M20 75h5M60 75h4M82 75h9M126 75h4M148 75h9M188 75h4M219 75h4M259 75h4M285 75h4M316 75h4M325 75h9M356 75h4M395 75h5M20 76h5M60 76h4M82 76h9M126 76h4M148 76h9M188 76h4M219 76h4M259 76h4M285 76h4M316 76h4M325 76h9M356 76h4M395 76h5M20 77h5M60 77h4M82 77h9M126 77h4M148 77h9M188 77h4M219 77h4M259 77h4M285 77h4M316 77h4M325 77h9M356 77h4M395 77h5M20 78h5M60 78h4M82 78h9M126 78h4M148 78h9M188 78h4M219 78h4M259 78h4M285 78h4M316 78h4M325 78h9M356 78h4M395 78h5M25 79h4M55 79h5M82 79h9M126 79h4M148 79h9M188 79h4M219 79h9M254 79h5M285 79h4M320 79h14M356 79h8M391 79h4M25 80h4M55 80h5M82 80h9M126 80h4M148 80h9M188 80h4M219 80h9M254 80h5M285 80h4M320 80h14M356 80h8M391 80h4M25 81h4M55 81h5M82 81h9M126 81h4M148 81h9M188 81h4M219 81h9M254 81h5M285 81h4M320 81h14M356 81h8M391 81h4M25 82h4M55 82h5M82 82h9M126 82h4M148 82h9M188 82h4M219 82h9M254 82h5M285 82h4M320 82h14M356 82h8M391 82h4M29 83h9M47 83h8M82 83h9M126 83h4M148 83h9M192 83h5M228 83h26M285 83h4M320 83h14M364 83h27M29 84h9M47 84h8M82 84h9M126 84h4M148 84h9M192 84h5M228 84h26M285 84h4M320 84h14M364 84h27M29 85h9M47 85h8M82 85h9M126 85h4M148 85h9M192 85h5M228 85h26M285 85h4M320 85h14M364 85h27M29 86h9M47 86h8M82 86h9M126 86h4M148 86h9M192 86h5M228 86h26M285 86h4M320 86h14M364 86h27M29 87h9M47 87h8M82 87h9M126 87h4M148 87h9M192 87h5M228 87h26M285 87h4M320 87h14M364 87h27M176 109h8M224 109h9M251 109h53M321 109h9M370 109h9M414 109h57M176 110h8M224 110h9M251 110h53M321 110h9M370 110h9M414 110h57M176 111h8M224 111h9M251 111h53M321 111h9M370 111h9M414 111h57M176 112h8M224 112h9M251 112h53M321 112h9M370 112h9M414 112h57M176 113h8M224 113h9M251 113h53M321 113h9M357 113h35M414 113h57M176 114h8M224 114h9M251 114h53M321 114h9M357 114h35M414 114h57M176 115h8M224 115h9M251 115h53M321 115h9M357 115h35M414 115h57M176 116h8M224 116h9M251 116h53M321 116h9M357 116h35M414 116h57M176 117h8M224 117h9M251 117h53M321 117h9M357 117h35M414 117h57M176 118h8M224 118h9M251 118h8M321 118h9M352 118h9M392 118h4M440 118h5M176 119h8M224 119h9M251 119h8M321 119h9M352 119h9M392 119h4M440 119h5M176 120h8M224 120h9M251 120h8M321 120h9M352 120h9M392 120h4M440 120h5M176 121h8M224 121h9M251 121h8M321 121h9M352 121h9M392 121h4M440 121h5M176 122h8M224 122h9M251 122h8M321 122h9M352 122h5M392 122h9M440 122h5M176 123h8M224 123h9M251 123h8M321 123h9M352 123h5M392 123h9M440 123h5M176 124h8M224 124h9M251 124h8M321 124h9M352 124h5M392 124h9M440 124h5M176 125h8M224 125h9M251 125h8M321 125h9M352 125h5M392 125h9M440 125h5M176 126h8M224 126h9M251 126h8M321 126h9M352 126h5M392 126h9M440 126h5M176 127h8M224 127h9M251 127h8M321 127h9M348 127h9M396 127h5M440 127h5M176 128h8M224 128h9M251 128h8M321 128h9M348 128h9M396 128h5M440 128h5M176 129h8M224 129h9M251 129h8M321 129h9M348 129h9M396 129h5M440 129h5M176 130h8M224 130h9M251 130h8M321 130h9M348 130h9M396 130h5M440 130h5M176 131h8M224 131h9M251 131h8M321 131h9M352 131h5M440 131h5M176 132h8M224 132h9M251 132h8M321 132h9M352 132h5M440 132h5M176 133h8M224 133h9M251 133h8M321 133h9M352 133h5M440 133h5M176 134h8M224 134h9M251 134h8M321 134h9M352 134h5M440 134h5M176 135h8M224 135h9M251 135h8M321 135h9M352 135h9M440 135h5M176 136h8M224 136h9M251 136h8M321 136h9M352 136h9M440 136h5M176 137h8M224 137h9M251 137h8M321 137h9M352 137h9M440 137h5M176 138h8M224 138h9M251 138h8M321 138h9M352 138h9M440 138h5M176 139h8M224 139h9M251 139h8M321 139h9M352 139h9M440 139h5M176 140h57M251 140h48M321 140h9M357 140h17M440 140h5M176 141h57M251 141h48M321 141h9M357 141h17M440 141h5M176 142h57M251 142h48M321 142h9M357 142h17M440 142h5M176 143h57M251 143h48M321 143h9M357 143h17M440 143h5M176 144h57M251 144h48M321 144h9M370 144h22M440 144h5M176 145h57M251 145h48M321 145h9M370 145h22M440 145h5M176 146h57M251 146h48M321 146h9M370 146h22M440 146h5M176 147h57M251 147h48M321 147h9M370 147h22M440 147h5M176 148h57M251 148h48M321 148h9M370 148h22M440 148h5M176 149h8M224 149h9M251 149h8M321 149h9M387 149h9M440 149h5M176 150h8M224 150h9M251 150h8M321 150h9M387 150h9M440 150h5M176 151h8M224 151h9M251 151h8M321 151h9M387 151h9M440 151h5M176 152h8M224 152h9M251 152h8M321 152h9M387 152h9M440 152h5M176 153h8M224 153h9M251 153h8M321 153h9M396 153h5M440 153h5M176 154h8M224 154h9M251 154h8M321 154h9M396 154h5M440 154h5M176 155h8M224 155h9M251 155h8M321 155h9M396 155h5M440 155h5M176 156h8M224 156h9M251 156h8M321 156h9M396 156h5M440 156h5M176 157h8M224 157h9M251 157h8M321 157h9M396 157h5M440 157h5M176 158h8M224 158h9M251 158h8M321 158h9M348 158h4M396 158h9M440 158h5M176 159h8M224 159h9M251 159h8M321 159h9M348 159h4M396 159h9M440 159h5M176 160h8M224 160h9M251 160h8M321 160h9M348 160h4M396 160h9M440 160h5M176 161h8M224 161h9M251 161h8M321 161h9M348 161h4M396 161h9M440 161h5M176 162h8M224 162h9M251 162h8M321 162h9M348 162h4M396 162h9M440 162h5M176 163h8M224 163h9M251 163h8M321 163h9M348 163h4M396 163h9M440 163h5M176 164h8M224 164h9M251 164h8M321 164h9M348 164h4M396 164h9M440 164h5M176 165h8M224 165h9M251 165h8M321 165h9M348 165h4M396 165h9M440 165h5M176 166h8M224 166h9M251 166h8M321 166h9M348 166h9M396 166h5M440 166h5M176 167h8M224 167h9M251 167h8M321 167h9M348 167h9M396 167h5M440 167h5M176 168h8M224 168h9M251 168h8M321 168h9M348 168h9M396 168h5M440 168h5M176 169h8M224 169h9M251 169h8M321 169h9M348 169h9M396 169h5M440 169h5M176 170h8M224 170h9M251 170h8M321 170h9M348 170h9M396 170h5M440 170h5M176 171h8M224 171h9M251 171h8M321 171h9M352 171h9M392 171h9M440 171h5M176 172h8M224 172h9M251 172h8M321 172h9M352 172h9M392 172h9M440 172h5M176 173h8M224 173h9M251 173h8M321 173h9M352 173h9M392 173h9M440 173h5M176 174h8M224 174h9M251 174h8M321 174h9M352 174h9M392 174h9M440 174h5M176 175h8M224 175h9M251 175h53M321 175h9M357 175h35M440 175h5M176 176h8M224 176h9M251 176h53M321 176h9M357 176h35M440 176h5M176 177h8M224 177h9M251 177h53M321 177h9M357 177h35M440 177h5M176 178h8M224 178h9M251 178h53M321 178h9M357 178h35M440 178h5M176 179h8M224 179h9M251 179h53M321 179h9M357 179h35M440 179h5M176 180h8M224 180h9M251 180h53M321 180h9M370 180h13M440 180h5M176 181h8M224 181h9M251 181h53M321 181h9M370 181h13M440 181h5M176 182h8M224 182h9M251 182h53M321 182h9M370 182h13M440 182h5M176 183h8M224 183h9M251 183h53M321 183h9M370 183h13M440 183h5" />
<path stroke="#f7eb29" d="M55 26h5M55 27h5M55 28h5M55 29h5M51 30h4M51 31h4M51 32h4M51 33h4M51 34h4M188 35h4M188 36h4M188 37h4M188 38h4M298 48h5M298 49h5M298 50h5M298 51h5M298 52h5M42 83h5M42 84h5M42 85h5M42 86h5M42 87h5M392 113h4M392 114h4M392 115h4M392 116h4M392 117h4M392 127h4M392 128h4M392 129h4M392 130h4M365 144h5M365 145h5M365 146h5M365 147h5M365 148h5M383 149h4M383 150h4M383 151h4M383 152h4M365 180h5M383 180h4M365 181h5M383 181h4M365 182h5M383 182h4M365 183h5M383 183h4" />
<path stroke="#f8ec29" d="M122 26h4M130 26h5M254 26h5M281 26h4M391 26h4M122 27h4M130 27h5M254 27h5M281 27h4M391 27h4M122 28h4M130 28h5M254 28h5M281 28h4M391 28h4M122 29h4M130 29h5M254 29h5M281 29h4M391 29h4M122 30h4M130 30h5M228 30h4M281 30h4M364 30h5M122 31h4M130 31h5M228 31h4M281 31h4M364 31h5M122 32h4M130 32h5M228 32h4M281 32h4M364 32h5M122 33h4M130 33h5M228 33h4M281 33h4M364 33h5M122 34h4M130 34h5M228 34h4M281 34h4M364 34h5M122 35h4M130 35h5M281 35h4M298 35h5M122 36h4M130 36h5M281 36h4M298 36h5M122 37h4M130 37h5M281 37h4M298 37h5M122 38h4M130 38h5M281 38h4M298 38h5M122 39h4M130 39h5M197 39h4M254 39h5M281 39h4M391 39h4M122 40h4M130 40h5M197 40h4M254 40h5M281 40h4M391 40h4M122 41h4M130 41h5M197 41h4M254 41h5M281 41h4M391 41h4M122 42h4M130 42h5M197 42h4M254 42h5M281 42h4M391 42h4M122 43h4M130 43h5M197 43h4M254 43h5M281 43h4M391 43h4M122 44h4M130 44h5M197 44h4M281 44h4M289 44h5M122 45h4M130 45h5M197 45h4M281 45h4M289 45h5M122 46h4M130 46h5M197 46h4M281 46h4M289 46h5M122 47h4M130 47h5M197 47h4M281 47h4M289 47h5M20 48h5M130 48h5M281 48h4M289 48h5M20 49h5M130 49h5M281 49h4M289 49h5M20 50h5M130 50h5M281 50h4M289 50h5M20 51h5M130 51h5M281 51h4M289 51h5M20 52h5M130 52h5M281 52h4M289 52h5M20 53h5M130 53h5M281 53h4M289 53h5M20 54h5M130 54h5M281 54h4M289 54h5M20 55h5M130 55h5M281 55h4M289 55h5M20 56h5M130 56h5M281 56h4M289 56h5M20 57h5M130 57h5M281 57h4M289 57h5M312 57h4M20 58h5M130 58h5M281 58h4M289 58h5M312 58h4M20 59h5M130 59h5M281 59h4M289 59h5M312 59h4M20 60h5M130 60h5M281 60h4M289 60h5M312 60h4M20 61h5M60 61h9M122 61h4M130 61h5M281 61h4M289 61h5M20 62h5M60 62h9M122 62h4M130 62h5M281 62h4M289 62h5M20 63h5M60 63h9M122 63h4M130 63h5M281 63h4M289 63h5M20 64h5M60 64h9M122 64h4M130 64h5M281 64h4M289 64h5M20 65h5M60 65h9M122 65h4M130 65h5M281 65h4M289 65h5M11 66h5M122 66h4M130 66h5M188 66h4M281 66h4M289 66h5M307 66h5M11 67h5M122 67h4M130 67h5M188 67h4M281 67h4M289 67h5M307 67h5M11 68h5M122 68h4M130 68h5M188 68h4M281 68h4M289 68h5M307 68h5M11 69h5M122 69h4M130 69h5M188 69h4M281 69h4M289 69h5M307 69h5M122 70h4M130 70h5M254 70h5M281 70h4M289 70h5M122 71h4M130 71h5M254 71h5M281 71h4M289 71h5M122 72h4M130 72h5M254 72h5M281 72h4M289 72h5M122 73h4M130 73h5M254 73h5M281 73h4M289 73h5M122 74h4M130 74h5M254 74h5M281 74h4M289 74h5M122 75h4M130 75h5M192 75h5M281 75h4M289 75h5M122 76h4M130 76h5M192 76h5M281 76h4M289 76h5M122 77h4M130 77h5M192 77h5M281 77h4M289 77h5M122 78h4M130 78h5M192 78h5M281 78h4M289 78h5M122 79h4M130 79h5M228 79h4M281 79h4M289 79h5M364 79h5M122 80h4M130 80h5M228 80h4M281 80h4M289 80h5M364 80h5M122 81h4M130 81h5M228 81h4M281 81h4M289 81h5M364 81h5M122 82h4M130 82h5M228 82h4M281 82h4M289 82h5M364 82h5M122 83h4M130 83h5M197 83h4M254 83h5M281 83h4M289 83h5M391 83h4M122 84h4M130 84h5M197 84h4M254 84h5M281 84h4M289 84h5M391 84h4M122 85h4M130 85h5M197 85h4M254 85h5M281 85h4M289 85h5M391 85h4M122 86h4M130 86h5M197 86h4M254 86h5M281 86h4M289 86h5M391 86h4M122 87h4M130 87h5M197 87h4M254 87h5M281 87h4M289 87h5M391 87h4M233 109h4M410 109h4M233 110h4M410 110h4M233 111h4M410 111h4M233 112h4M410 112h4M233 113h4M410 113h4M233 114h4M410 114h4M233 115h4M410 115h4M233 116h4M410 116h4M233 117h4M410 117h4M233 118h4M348 118h4M361 118h4M445 118h4M233 119h4M348 119h4M361 119h4M445 119h4M233 120h4M348 120h4M361 120h4M445 120h4M233 121h4M348 121h4M361 121h4M445 121h4M233 122h4M445 122h4M233 123h4M445 123h4M233 124h4M445 124h4M233 125h4M445 125h4M233 126h4M445 126h4M233 127h4M445 127h4M233 128h4M445 128h4M233 129h4M445 129h4M233 130h4M445 130h4M233 131h4M357 131h4M445 131h4M233 132h4M357 132h4M445 132h4M233 133h4M357 133h4M445 133h4M233 134h4M357 134h4M445 134h4M233 135h4M445 135h4M233 136h4M445 136h4M233 137h4M445 137h4M233 138h4M445 138h4M233 139h4M445 139h4M233 140h4M352 140h5M445 140h4M233 141h4M352 141h5M445 141h4M233 142h4M352 142h5M445 142h4M233 143h4M352 143h5M445 143h4M233 144h4M361 144h4M445 144h4M233 145h4M361 145h4M445 145h4M233 146h4M361 146h4M445 146h4M233 147h4M361 147h4M445 147h4M233 148h4M361 148h4M445 148h4M233 149h4M379 149h4M445 149h4M233 150h4M379 150h4M445 150h4M233 151h4M379 151h4M445 151h4M233 152h4M379 152h4M445 152h4M233 153h4M445 153h4M233 154h4M445 154h4M233 155h4M445 155h4M233 156h4M445 156h4M233 157h4M445 157h4M233 158h4M343 158h5M445 158h4M233 159h4M343 159h5M445 159h4M233 160h4M343 160h5M445 160h4M233 161h4M343 161h5M445 161h4M233 162h4M343 162h5M445 162h4M233 163h4M343 163h5M445 163h4M233 164h4M343 164h5M445 164h4M233 165h4M343 165h5M445 165h4M233 166h4M445 166h4M233 167h4M445 167h4M233 168h4M445 168h4M233 169h4M445 169h4M233 170h4M445 170h4M233 171h4M445 171h4M233 172h4M445 172h4M233 173h4M445 173h4M233 174h4M445 174h4M233 175h4M445 175h4M233 176h4M445 176h4M233 177h4M445 177h4M233 178h4M445 178h4M233 179h4M445 179h4M233 180h4M445 180h4M233 181h4M445 181h4M233 182h4M445 182h4M233 183h4M445 183h4" />
<path stroke="#f8ec29" d="M223 26h5M360 26h4M223 27h5M360 27h4M223 28h5M360 28h4M223 29h5M360 29h4M20 30h5M250 30h4M387 30h4M20 31h5M250 31h4M387 31h4M20 32h5M250 32h4M387 32h4M20 33h5M250 33h4M387 33h4M20 34h5M250 34h4M387 34h4M55 35h5M214 35h5M254 35h5M351 35h5M391 35h4M55 36h5M214 36h5M254 36h5M351 36h5M391 36h4M55 37h5M214 37h5M254 37h5M351 37h5M391 37h4M55 38h5M214 38h5M254 38h5M351 38h5M391 38h4M294 39h9M294 40h9M294 41h9M294 42h9M294 43h9M188 48h4M188 49h4M188 50h4M188 51h4M188 52h4M183 57h5M183 58h5M183 59h5M183 60h5M183 61h5M307 61h9M183 62h5M307 62h9M183 63h5M307 63h9M183 64h5M307 64h9M183 65h5M307 65h9M20 70h5M188 70h4M20 71h5M188 71h4M20 72h5M188 72h4M20 73h5M188 73h4M20 74h5M188 74h4M214 75h5M254 75h5M351 75h5M391 75h4M214 76h5M254 76h5M351 76h5M391 76h4M214 77h5M254 77h5M351 77h5M391 77h4M214 78h5M254 78h5M351 78h5M391 78h4M20 79h5M60 79h4M192 79h5M250 79h4M387 79h4M20 80h5M60 80h4M192 80h5M250 80h4M387 80h4M20 81h5M60 81h4M192 81h5M250 81h4M387 81h4M20 82h5M60 82h4M192 82h5M250 82h4M387 82h4M25 83h4M55 83h5M223 83h5M360 83h4M25 84h4M55 84h5M223 84h5M360 84h4M25 85h4M55 85h5M223 85h5M360 85h4M25 86h4M55 86h5M223 86h5M360 86h4M25 87h4M55 87h5M223 87h5M360 87h4M38 88h9M38 89h9M38 90h9M38 91h9M379 109h4M379 110h4M379 111h4M379 112h4M387 118h5M387 119h5M387 120h5M387 121h5M396 149h5M396 150h5M396 151h5M396 152h5M392 153h4M392 154h4M392 155h4M392 156h4M392 157h4M392 175h4M392 176h4M392 177h4M392 178h4M392 179h4" />
<path stroke="#ed75dc" d="M232 26h4M232 27h4M232 28h4M232 29h4M232 30h4M241 30h4M232 31h4M241 31h4M232 32h4M241 32h4M232 33h4M241 33h4M232 34h4M241 34h4M228 35h4M236 35h5M245 35h5M228 36h4M236 36h5M245 36h5M228 37h4M236 37h5M245 37h5M228 38h4M236 38h5M245 38h5M245 39h9M245 40h9M245 41h9M245 42h9M245 43h9M223 44h5M241 44h4M250 44h4M223 45h5M241 45h4M250 45h4M223 46h5M241 46h4M250 46h4M223 47h5M241 47h4M250 47h4M223 53h5M241 53h4M254 53h5M223 54h5M241 54h4M254 54h5M223 55h5M241 55h4M254 55h5M223 56h5M241 56h4M254 56h5M219 57h9M219 58h9M219 59h9M219 60h9M254 61h5M254 62h5M254 63h5M254 64h5M254 65h5M236 66h5M250 66h4M236 67h5M250 67h4M236 68h5M250 68h4M236 69h5M250 69h4M223 70h5M223 71h5M223 72h5M223 73h5M223 74h5M228 75h8M245 75h5M228 76h8M245 76h5M228 77h8M245 77h5M228 78h8M245 78h5M236 79h9M236 80h9M236 81h9M236 82h9" />
<path stroke="#fb83c6" d="M236 30h5M236 31h5M236 32h5M236 33h5M236 34h5M232 35h4M232 36h4M232 37h4M232 38h4M223 39h9M223 40h9M223 41h9M223 42h9M223 43h9M223 48h5M232 48h9M223 49h5M232 49h9M223 50h5M232 50h9M223 51h5M232 51h9M223 52h5M232 52h9M228 53h8M250 53h4M228 54h8M250 54h4M228 55h8M250 55h4M228 56h8M250 56h4M228 57h4M228 58h4M228 59h4M228 60h4M228 61h8M228 62h8M228 63h8M228 64h8M228 65h8M228 66h4M228 67h4M228 68h4M228 69h4" />
<path stroke="#000000" d="M373 30h5M373 31h5M373 32h5M373 33h5M373 34h5M369 35h13M369 36h13M369 37h13M369 38h13M373 39h5M373 40h5M373 41h5M373 42h5M373 43h5M373 44h5M373 45h5M373 46h5M373 47h5M373 48h5M373 49h5M373 50h5M373 51h5M373 52h5M373 53h5M373 54h5M373 55h5M373 56h5" />
<path stroke="#fd85c3" d="M241 35h4M241 36h4M241 37h4M241 38h4" />
<path stroke="#f2f2f2" d="M364 35h5M382 35h5M364 36h5M382 36h5M364 37h5M382 37h5M364 38h5M382 38h5M360 39h13M378 39h13M360 40h13M378 40h13M360 41h13M378 41h13M360 42h13M378 42h13M360 43h13M378 43h13M360 44h13M378 44h13M360 45h13M378 45h13M360 46h13M378 46h13M360 47h13M378 47h13M360 48h13M378 48h17M360 49h13M378 49h17M360 50h13M378 50h17M360 51h13M378 51h17M360 52h13M378 52h17M356 53h17M378 53h9M391 53h4M356 54h17M378 54h9M391 54h4M356 55h17M378 55h9M391 55h4M356 56h17M378 56h9M391 56h4M356 57h17M356 58h17M356 59h17M356 60h17M360 61h27M391 61h4M360 62h27M391 62h4M360 63h27M391 63h4M360 64h27M391 64h4M360 65h27M391 65h4M360 66h35M360 67h35M360 68h35M360 69h35M360 70h31M360 71h31M360 72h31M360 73h31M360 74h31M364 75h23M364 76h23M364 77h23M364 78h23M373 79h9M373 80h9M373 81h9M373 82h9" />
<path stroke="#b069d2" d="M232 39h4M232 40h4M232 41h4M232 42h4M232 43h4M228 44h4M236 44h5M245 44h5M228 45h4M236 45h5M245 45h5M228 46h4M236 46h5M245 46h5M228 47h4M236 47h5M245 47h5M241 48h4M250 48h4M241 49h4M250 49h4M241 50h4M250 50h4M241 51h4M250 51h4M241 52h4M250 52h4M219 53h4M219 54h4M219 55h4M219 56h4M254 57h5M254 58h5M254 59h5M254 60h5M223 61h5M223 62h5M223 63h5M223 64h5M223 65h5M223 66h5M223 67h5M223 68h5M223 69h5M228 70h4M236 70h5M228 71h4M236 71h5M228 72h4M236 72h5M228 73h4M236 73h5M228 74h4M236 74h5" />
<path stroke="#ffffff" d="M236 39h5M236 40h5M236 41h5M236 42h5M236 43h5M232 44h4M232 45h4M232 46h4M232 47h4M228 48h4M228 49h4M228 50h4M228 51h4M228 52h4" />
<path stroke="#f67ecd" d="M241 39h4M241 40h4M241 41h4M241 42h4M241 43h4" />
<path stroke="#f8ec29" d="M219 44h4M356 44h4M219 45h4M356 45h4M219 46h4M356 46h4M219 47h4M356 47h4M197 48h4M197 49h4M197 50h4M197 51h4M197 52h4M219 66h4M356 66h4M219 67h4M356 67h4M219 68h4M356 68h4M219 69h4M356 69h4M55 70h5M55 71h5M55 72h5M55 73h5M55 74h5M392 158h4M392 159h4M392 160h4M392 161h4M365 171h5M383 171h4M365 172h5M383 172h4M365 173h5M383 173h4M365 174h5M383 174h4" />
<path stroke="#565742" d="M245 48h5M245 49h5M245 50h5M245 51h5M245 52h5M245 53h5M245 54h5M245 55h5M245 56h5M241 57h13M241 58h13M241 59h13M241 60h13M245 66h5M245 67h5M245 68h5M245 69h5M232 70h4M241 70h4M232 71h4M241 71h4M232 72h4M241 72h4M232 73h4M241 73h4M232 74h4M241 74h4M236 75h5M236 76h5M236 77h5M236 78h5" />
<path stroke="#ff87c0" d="M254 48h5M254 49h5M254 50h5M254 51h5M254 52h5" />
<path stroke="#d379a5" d="M236 53h5M236 54h5M236 55h5M236 56h5M232 57h4M232 58h4M232 59h4M232 60h4" />
<path stroke="#fad44d" d="M259 53h4M259 54h4M259 55h4M259 56h4" />
<path stroke="#3d3d3d" d="M387 53h4M387 54h4M387 55h4M387 56h4M378 57h17M378 58h17M378 59h17M378 60h17M387 61h4M387 62h4M387 63h4M387 64h4M387 65h4" />
<path stroke="#e7d348" d="M214 57h5M214 58h5M214 59h5M214 60h5" />
<path stroke="#d278a6" d="M236 57h5M236 58h5M236 59h5M236 60h5M236 61h5M236 62h5M236 63h5M236 64h5M236 65h5" />
<path stroke="#797979" d="M373 57h5M373 58h5M373 59h5M373 60h5" />
<path stroke="#886175" d="M241 61h9M241 62h9M241 63h9M241 64h9M241 65h9M241 66h4M241 67h4M241 68h4M241 69h4" />
<path stroke="#916a67" d="M250 61h4M250 62h4M250 63h4M250 64h4M250 65h4" />
<path stroke="#d973d9" d="M232 66h4M232 67h4M232 68h4M232 69h4" />
<path stroke="#c46dd5" d="M245 70h9M245 71h9M245 72h9M245 73h9M245 74h9" />
<path stroke="#f9ec29" d="M391 70h4M391 71h4M391 72h4M391 73h4M391 74h4" />
<path stroke="#42533f" d="M241 75h4M241 76h4M241 77h4M241 78h4" />
</svg>